<?xml version="1.0" encoding="UTF-8"?>
<svg viewBox="0 0 800 1200" xmlns="http://www.w3.org/2000/svg">
  <!-- Background -->
  <rect width="800" height="1200" fill="#F6F7FB" />
  
  <!-- Phone Frame -->
  <rect x="150" y="100" width="500" height="1000" rx="40" ry="40" fill="#FFFFFF" stroke="#E0E2E8" stroke-width="2" />
  
  <!-- Status Bar -->
  <rect x="150" y="100" width="500" height="50" rx="40" ry="40" fill="#FFFFFF" />
  <text x="430" y="132" font-family="Arial" font-size="16" text-anchor="middle" fill="#333333">2:45 PM</text>
  
  <!-- Navigation Bar at bottom -->
  <rect x="150" y="1050" width="500" height="50" rx="40" ry="40" fill="#FFFFFF" />
  
  <!-- App Header -->
  <rect x="150" y="150" width="500" height="70" fill="#2A3990" /> <!-- Deep indigo color -->
  <text x="400" y="195" font-family="Arial" font-size="24" font-weight="bold" text-anchor="middle" fill="#FFFFFF">Goal Templates</text>
  
  <!-- Search Bar -->
  <rect x="170" y="230" width="460" height="50" rx="25" ry="25" fill="#FFFFFF" stroke="#E0E2E8" stroke-width="1" />
  <text x="250" y="260" font-family="Arial" font-size="14" fill="#9A9A9A">Search templates...</text>
  <circle cx="210" cy="255" r="15" fill="#FFFFFF" stroke="#9A9A9A" stroke-width="2" />
  <line x1="220" y1="265" x2="230" y2="275" stroke="#9A9A9A" stroke-width="2" />
  
  <!-- Category Tabs -->
  <rect x="170" y="290" width="460" height="50" fill="#FFFFFF" rx="10" ry="10" stroke="#E0E2E8" stroke-width="1" />
  
  <rect x="170" y="290" width="92" height="50" fill="#2A3990" rx="10" ry="10" />
  <text x="216" y="320" font-family="Arial" font-size="14" font-weight="bold" text-anchor="middle" fill="#FFFFFF">All</text>
  
  <text x="308" y="320" font-family="Arial" font-size="14" text-anchor="middle" fill="#9A9A9A">Health</text>
  <text x="400" y="320" font-family="Arial" font-size="14" text-anchor="middle" fill="#9A9A9A">Career</text>
  <text x="492" y="320" font-family="Arial" font-size="14" text-anchor="middle" fill="#9A9A9A">Learning</text>
  <text x="584" y="320" font-family="Arial" font-size="14" text-anchor="middle" fill="#9A9A9A">Personal</text>
  
  <!-- Popular Templates Label -->
  <text x="190" y="365" font-family="Arial" font-size="16" font-weight="bold" fill="#333333">Popular Templates</text>
  
  <!-- Popular Templates Grid -->
  <g>
    <!-- Template 1 - Running -->
    <rect x="190" y="380" width="135" height="180" rx="10" ry="10" fill="#FFFFFF" stroke="#E0E2E8" stroke-width="1" />
    <circle cx="257.5" cy="430" r="30" fill="#DCF7E0" />
    <path d="M247.5 430 C247.5 425 252.5 420 257.5 420 C262.5 420 267.5 422.5 267.5 430 L267.5 445 C265 447.5 260 447.5 255 445 L255 430" fill="none" stroke="#83CE8B" stroke-width="3" />
    <text x="257.5" y="480" font-family="Arial" font-size="14" font-weight="bold" text-anchor="middle" fill="#333333">Run 5K</text>
    <text x="257.5" y="500" font-family="Arial" font-size="12" text-anchor="middle" fill="#9A9A9A">3 months</text>
    <rect x="222.5" y="520" width="70" height="25" rx="12.5" ry="12.5" fill="#E9EDF8" />
    <text x="257.5" y="535" font-family="Arial" font-size="11" text-anchor="middle" fill="#2A3990">12,531 users</text>
    
    <!-- Template 2 - Meditation -->
    <rect x="335" y="380" width="135" height="180" rx="10" ry="10" fill="#FFFFFF" stroke="#E0E2E8" stroke-width="1" />
    <circle cx="402.5" cy="430" r="30" fill="#E0EBFA" />
    <path d="M387.5 435 C392.5 425 412.5 425 417.5 435 M387.5 425 C392.5 423 412.5 423 417.5 425" fill="none" stroke="#4A90E2" stroke-width="3" />
    <text x="402.5" y="480" font-family="Arial" font-size="14" font-weight="bold" text-anchor="middle" fill="#333333">Daily Meditation</text>
    <text x="402.5" y="500" font-family="Arial" font-size="12" text-anchor="middle" fill="#9A9A9A">Ongoing</text>
    <rect x="367.5" y="520" width="70" height="25" rx="12.5" ry="12.5" fill="#E9EDF8" />
    <text x="402.5" y="535" font-family="Arial" font-size="11" text-anchor="middle" fill="#2A3990">9,847 users</text>
    
    <!-- Template 3 - Reading -->
    <rect x="480" y="380" width="135" height="180" rx="10" ry="10" fill="#FFFFFF" stroke="#E0E2E8" stroke-width="1" />
    <circle cx="547.5" cy="430" r="30" fill="#FCF3D9" />
    <path d="M537.5 420 L557.5 420 M537.5 430 L557.5 430 M537.5 440 L552.5 440" fill="none" stroke="#F5A623" stroke-width="3" />
    <text x="547.5" y="480" font-family="Arial" font-size="14" font-weight="bold" text-anchor="middle" fill="#333333">Read 20 Books</text>
    <text x="547.5" y="500" font-family="Arial" font-size="12" text-anchor="middle" fill="#9A9A9A">1 year</text>
    <rect x="512.5" y="520" width="70" height="25" rx="12.5" ry="12.5" fill="#E9EDF8" />
    <text x="547.5" y="535" font-family="Arial" font-size="11" text-anchor="middle" fill="#2A3990">7,284 users</text>
  </g>
  
  <!-- Learning Templates Label -->
  <text x="190" y="585" font-family="Arial" font-size="16" font-weight="bold" fill="#333333">Learning Templates</text>
  
  <!-- Learning Templates List -->
  <g>
    <!-- Template 1 - Language Learning -->
    <rect x="190" y="600" width="420" height="80" rx="10" ry="10" fill="#FFFFFF" stroke="#2A3990" stroke-width="2" />
    <circle cx="230" cy="640" r="25" fill="#E9EDF8" />
    <text x="230" y="645" font-family="Arial" font-size="16" font-weight="bold" text-anchor="middle" fill="#2A3990">L</text>
    <text x="270" y="625" font-family="Arial" font-size="14" font-weight="bold" fill="#333333">Language Learning</text>
    <text x="270" y="650" font-family="Arial" font-size="12" fill="#9A9A9A">6-12 month program with conversation practice</text>
    <text x="270" y="670" font-family="Arial" font-size="12" fill="#9A9A9A">and cultural immersion</text>
    <rect x="560" y="630" width="40" height="40" rx="20" ry="20" fill="#2A3990" filter="url(#shadow)" />
    <text x="580" y="647" font-family="Arial" font-size="20" text-anchor="middle" fill="#FFFFFF">+</text>
    
    <!-- Template 2 - Musical Instrument -->
    <rect x="190" y="690" width="420" height="80" rx="10" ry="10" fill="#FFFFFF" stroke="#E0E2E8" stroke-width="1" />
    <circle cx="230" cy="730" r="25" fill="#E9EDF8" />
    <text x="230" y="735" font-family="Arial" font-size="16" font-weight="bold" text-anchor="middle" fill="#2A3990">M</text>
    <text x="270" y="715" font-family="Arial" font-size="14" font-weight="bold" fill="#333333">Musical Instrument</text>
    <text x="270" y="740" font-family="Arial" font-size="12" fill="#9A9A9A">1-2 year program with structured practice</text>
    <text x="270" y="760" font-family="Arial" font-size="12" fill="#9A9A9A">routines and milestone performances</text>
    <rect x="560" y="720" width="40" height="40" rx="20" ry="20" fill="#F6F7FB" stroke="#E0E2E8" stroke-width="1" />
    <text x="580" y="737" font-family="Arial" font-size="20" text-anchor="middle" fill="#2A3990">+</text>
    
    <!-- Template 3 - Professional Certification -->
    <rect x="190" y="780" width="420" height="80" rx="10" ry="10" fill="#FFFFFF" stroke="#E0E2E8" stroke-width="1" />
    <circle cx="230" cy="820" r="25" fill="#E9EDF8" />
    <text x="230" y="825" font-family="Arial" font-size="16" font-weight="bold" text-anchor="middle" fill="#2A3990">P</text>
    <text x="270" y="805" font-family="Arial" font-size="14" font-weight="bold" fill="#333333">Professional Certification</text>
    <text x="270" y="830" font-family="Arial" font-size="12" fill="#9A9A9A">3-6 month intensive study program with</text>
    <text x="270" y="850" font-family="Arial" font-size="12" fill="#9A9A9A">practice exams and structured review</text>
    <rect x="560" y="810" width="40" height="40" rx="20" ry="20" fill="#F6F7FB" stroke="#E0E2E8" stroke-width="1" />
    <text x="580" y="827" font-family="Arial" font-size="20" text-anchor="middle" fill="#2A3990">+</text>
    
    <!-- Template 4 - Coding Skills -->
    <rect x="190" y="870" width="420" height="80" rx="10" ry="10" fill="#FFFFFF" stroke="#E0E2E8" stroke-width="1" />
    <circle cx="230" cy="910" r="25" fill="#E9EDF8" />
    <text x="230" y="915" font-family="Arial" font-size="16" font-weight="bold" text-anchor="middle" fill="#2A3990">C</text>
    <text x="270" y="895" font-family="Arial" font-size="14" font-weight="bold" fill="#333333">Coding Skills</text>
    <text x="270" y="920" font-family="Arial" font-size="12" fill="#9A9A9A">4-8 month project-based learning with</text>
    <text x="270" y="940" font-family="Arial" font-size="12" fill="#9A9A9A">portfolio development milestones</text>
    <rect x="560" y="900" width="40" height="40" rx="20" ry="20" fill="#F6F7FB" stroke="#E0E2E8" stroke-width="1" />
    <text x="580" y="917" font-family="Arial" font-size="20" text-anchor="middle" fill="#2A3990">+</text>
  </g>
  
  <!-- Bottom Navigation Buttons -->
  <rect x="190" y="980" width="420" height="50" rx="25" ry="25" fill="#2A3990" />
  <text x="400" y="1010" font-family="Arial" font-size="14" text-anchor="middle" fill="#FFFFFF">Continue with Selected Template</text>
  
  <!-- Template Detail Card -->
  <g>
    <rect x="580" y="600" width="200" height="320" rx="15" ry="15" fill="#FFFFFF" stroke="#2A3990" stroke-width="2" filter="url(#shadow)" />
    <text x="600" y="625" font-family="Arial" font-size="14" font-weight="bold" fill="#2A3990">Language Learning</text>
    
    <line x1="600" y1="635" x2="760" y2="635" stroke="#E0E2E8" stroke-width="1" />
    
    <text x="600" y="655" font-family="Arial" font-size="12" font-weight="bold" fill="#333333">
      <tspan x="600" y="655">Included Habits:</tspan>
    </text>
    
    <text x="600" y="680" font-family="Arial" font-size="12" fill="#333333">
      <tspan x="600" y="680">• Daily vocabulary practice</tspan>
      <tspan x="600" y="700">• Weekly conversation session</tspan>
      <tspan x="600" y="720">• Cultural media consumption</tspan>
      <tspan x="600" y="740">• Grammar study sessions</tspan>
    </text>
    
    <text x="600" y="770" font-family="Arial" font-size="12" font-weight="bold" fill="#333333">
      <tspan x="600" y="770">Success Factors:</tspan>
    </text>
    
    <text x="600" y="795" font-family="Arial" font-size="12" fill="#333333">
      <tspan x="600" y="795">• Consistency over intensity</tspan>
      <tspan x="600" y="815">• Early focus on speaking</tspan>
      <tspan x="600" y="835">• Cultural context learning</tspan>
    </text>
    
    <text x="600" y="865" font-family="Arial" font-size="12" font-weight="bold" fill="#333333">
      <tspan x="600" y="865">Typical Obstacles:</tspan>
    </text>
    
    <text x="600" y="890" font-family="Arial" font-size="12" fill="#333333">
      <tspan x="600" y="890">• Initial pronunciation anxiety</tspan>
      <tspan x="600" y="910">• Vocabulary plateaus</tspan>
    </text>
  </g>
  
  <!-- Caption -->
  <text x="400" y="1150" font-family="Arial" font-size="16" text-anchor="middle" fill="#333333">
    <tspan x="400" y="1150">Project Kage - Goal Templates for Common Objectives</tspan>
    <tspan x="400" y="1175">Feature: Pre-configured Goal Frameworks</tspan>
  </text>
  
  <!-- Drop shadow for panels -->
  <defs>
    <filter id="shadow" x="-20%" y="-20%" width="140%" height="140%">
      <feDropShadow dx="0" dy="4" stdDeviation="4" flood-color="#0003" />
    </filter>
  </defs>
</svg>
