<?xml version="1.0" encoding="UTF-8"?>
<svg viewBox="0 0 800 1200" xmlns="http://www.w3.org/2000/svg">
  <!-- Background -->
  <rect width="800" height="1200" fill="#F6F7FB" />
  
  <!-- Phone Frame -->
  <rect x="150" y="100" width="500" height="1000" rx="40" ry="40" fill="#FFFFFF" stroke="#E0E2E8" stroke-width="2" />
  
  <!-- Status Bar -->
  <rect x="150" y="100" width="500" height="50" rx="40" ry="40" fill="#FFFFFF" />
  <text x="430" y="132" font-family="Arial" font-size="16" text-anchor="middle" fill="#333333">3:45 PM</text>
  
  <!-- Navigation Bar at bottom -->
  <rect x="150" y="1050" width="500" height="50" rx="40" ry="40" fill="#FFFFFF" />
  
  <!-- App Header -->
  <rect x="150" y="150" width="500" height="70" fill="#2A3990" /> <!-- Deep indigo color -->
  <text x="400" y="195" font-family="Arial" font-size="24" font-weight="bold" text-anchor="middle" fill="#FFFFFF">DOSE Principles</text>
  
  <!-- Main Container -->
  <rect x="170" y="230" width="460" height="810" fill="#F6F7FB" rx="15" ry="15" />
  
  <!-- DOSE Overview Card -->
  <rect x="190" y="250" width="420" height="130" rx="15" ry="15" fill="#FFFFFF" stroke="#E0E2E8" stroke-width="2" />
  
  <text x="210" y="280" font-family="Arial" font-size="16" font-weight="bold" fill="#2A3990">The DOSE Framework</text>
  <text x="210" y="300" font-family="Arial" font-size="12" fill="#9A9A9A">Understanding your neurochemical motivators</text>
  
  <text x="210" y="330" font-family="Arial" font-size="14" fill="#333333">DOSE represents the four key neurochemicals that drive motivation, reward, and habit formation in your brain: Dopamine, Oxytocin, Serotonin, and Endorphins.</text>
  
  <rect x="210" y="350" width="380" height="20" rx="10" ry="10" fill="#F6F7FB" />
  <rect x="210" y="350" width="228" height="20" rx="10" ry="10" fill="#2A399022" />
  <text x="400" y="365" font-family="Arial" font-size="10" text-anchor="middle" fill="#2A3990">Your understanding: 60% complete</text>
  
  <!-- Dopamine Section -->
  <rect x="190" y="390" width="420" height="200" rx="15" ry="15" fill="#FFFFFF" stroke="#E54D42" stroke-width="2" />
  
  <text x="240" y="420" font-family="Arial" font-size="20" font-weight="bold" fill="#E54D42">D</text>
  <text x="260" y="420" font-family="Arial" font-size="18" font-weight="bold" fill="#E54D42">opamine</text>
  <text x="380" y="420" font-family="Arial" font-size="14" font-weight="bold" fill="#9A9A9A">The Motivator</text>
  
  <text x="210" y="445" font-family="Arial" font-size="12" fill="#333333">The "reward" neurochemical that creates feelings of pleasure and reinforces behaviors.</text>
  
  <!-- Key Points -->
  <rect x="210" y="465" width="380" height="30" rx="5" ry="5" fill="#F6F7FB" />
  <circle cx="225" cy="480" r="8" fill="#E54D42" />
  <text x="225" y="483" font-family="Arial" font-size="10" text-anchor="middle" fill="#FFFFFF">•</text>
  <text x="240" y="483" font-family="Arial" font-size="12" fill="#333333">Released when you anticipate or receive a reward</text>
  
  <rect x="210" y="505" width="380" height="30" rx="5" ry="5" fill="#F6F7FB" />
  <circle cx="225" cy="520" r="8" fill="#E54D42" />
  <text x="225" y="523" font-family="Arial" font-size="10" text-anchor="middle" fill="#FFFFFF">•</text>
  <text x="240" y="523" font-family="Arial" font-size="12" fill="#333333">Drives you to seek and repeat pleasurable behaviors</text>
  
  <rect x="210" y="545" width="380" height="30" rx="5" ry="5" fill="#F6F7FB" />
  <circle cx="225" cy="560" r="8" fill="#E54D42" />
  <text x="225" y="563" font-family="Arial" font-size="10" text-anchor="middle" fill="#FFFFFF">•</text>
  <text x="240" y="563" font-family="Arial" font-size="12" fill="#333333">Too easily hijacked by digital distractions</text>
  
  <!-- Application -->
  <rect x="310" y="585" width="180" height="40" rx="20" ry="20" fill="#E54D4222" />
  <text x="400" y="610" font-family="Arial" font-size="14" text-anchor="middle" fill="#E54D42">Learn to Harness →</text>
  
  <!-- Oxytocin Section -->
  <rect x="190" y="600" width="420" height="200" rx="15" ry="15" fill="#FFFFFF" stroke="#F5A623" stroke-width="2" />
  
  <text x="240" y="630" font-family="Arial" font-size="20" font-weight="bold" fill="#F5A623">O</text>
  <text x="260" y="630" font-family="Arial" font-size="18" font-weight="bold" fill="#F5A623">xytocin</text>
  <text x="380" y="630" font-family="Arial" font-size="14" font-weight="bold" fill="#9A9A9A">The Connector</text>
  
  <text x="210" y="655" font-family="Arial" font-size="12" fill="#333333">The "bonding" neurochemical that creates feelings of trust and connection.</text>
  
  <!-- Key Points -->
  <rect x="210" y="675" width="380" height="30" rx="5" ry="5" fill="#F6F7FB" />
  <circle cx="225" cy="690" r="8" fill="#F5A623" />
  <text x="225" y="693" font-family="Arial" font-size="10" text-anchor="middle" fill="#FFFFFF">•</text>
  <text x="240" y="693" font-family="Arial" font-size="12" fill="#333333">Released during positive social interactions</text>
  
  <rect x="210" y="715" width="380" height="30" rx="5" ry="5" fill="#F6F7FB" />
  <circle cx="225" cy="730" r="8" fill="#F5A623" />
  <text x="225" y="733" font-family="Arial" font-size="10" text-anchor="middle" fill="#FFFFFF">•</text>
  <text x="240" y="733" font-family="Arial" font-size="12" fill="#333333">Strengthens relationships and builds trust</text>
  
  <rect x="210" y="755" width="380" height="30" rx="5" ry="5" fill="#F6F7FB" />
  <circle cx="225" cy="770" r="8" fill="#F5A623" />
  <text x="225" y="773" font-family="Arial" font-size="10" text-anchor="middle" fill="#FFFFFF">•</text>
  <text x="240" y="773" font-family="Arial" font-size="12" fill="#333333">Helps create more meaningful social accountability</text>
  
  <!-- Application -->
  <rect x="310" y="795" width="180" height="40" rx="20" ry="20" fill="#F5A62322" />
  <text x="400" y="820" font-family="Arial" font-size="14" text-anchor="middle" fill="#F5A623">Learn to Harness →</text>
  
  <!-- Continue Button -->
  <rect x="190" y="810" width="420" height="50" rx="25" ry="25" fill="#2A3990" />
  <text x="400" y="840" font-family="Arial" font-size="16" font-weight="bold" text-anchor="middle" fill="#FFFFFF">Continue to Serotonin & Endorphins</text>
  
  <!-- Continue Learning Card -->
  <rect x="190" y="870" width="420" height="150" rx="15" ry="15" fill="#FFFFFF" stroke="#E0E2E8" stroke-width="2" />
  
  <text x="210" y="900" font-family="Arial" font-size="16" font-weight="bold" fill="#2A3990">Apply DOSE to Your Habits</text>
  
  <!-- Application Options -->
  <rect x="210" y="915" width="180" height="90" rx="10" ry="10" fill="#F6F7FB" />
  <circle cx="240" cy="945" r="20" fill="#9F85FF" opacity="0.7" />
  <text x="240" y="950" font-family="Arial" font-size="20" text-anchor="middle" fill="#FFFFFF">📊</text>
  <text x="300" y="935" font-family="Arial" font-size="14" font-weight="bold" fill="#333333">DOSE Quiz</text>
  <text x="300" y="955" font-family="Arial" font-size="12" fill="#9A9A9A">Test your understanding</text>
  <text x="300" y="975" font-family="Arial" font-size="12" fill="#9A9A9A">5 minutes</text>
  
  <rect x="400" y="915" width="180" height="90" rx="10" ry="10" fill="#F6F7FB" />
  <circle cx="430" cy="945" r="20" fill="#83CE8B" opacity="0.7" />
  <text x="430" y="950" font-family="Arial" font-size="20" text-anchor="middle" fill="#FFFFFF">🧠</text>
  <text x="490" y="935" font-family="Arial" font-size="14" font-weight="bold" fill="#333333">Habit Analysis</text>
  <text x="490" y="955" font-family="Arial" font-size="12" fill="#9A9A9A">Examine your habits</text>
  <text x="490" y="975" font-family="Arial" font-size="12" fill="#9A9A9A">10 minutes</text>
  
  <!-- Side Card: Dopamine in Action -->
  <g>
    <rect x="580" y="250" width="200" height="220" rx="15" ry="15" fill="#FFFFFF" stroke="#E54D42" stroke-width="2" filter="url(#shadow)" />
    <text x="600" y="280" font-family="Arial" font-size="14" font-weight="bold" fill="#E54D42">Dopamine in Action</text>
    
    <line x1="600" y1="290" x2="760" y2="290" stroke="#E0E2E8" stroke-width="1" />
    
    <text x="600" y="310" font-family="Arial" font-size="12" fill="#333333">
      <tspan x="600" y="310">How it works in daily life:</tspan>
    </text>
    
    <!-- Example 1 -->
    <rect x="600" y="325" width="160" height="60" rx="5" ry="5" fill="#F6F7FB" />
    <text x="610" y="345" font-family="Arial" font-size="12" font-weight="bold" fill="#333333">Social Media Likes</text>
    <text x="610" y="365" font-family="Arial" font-size="10" fill="#9A9A9A">Unpredictable rewards create</text>
    <text x="610" y="380" font-family="Arial" font-size="10" fill="#9A9A9A">powerful dopamine hits</text>
    
    <!-- Example 2 -->
    <rect x="600" y="395" width="160" height="60" rx="5" ry="5" fill="#F6F7FB" />
    <text x="610" y="415" font-family="Arial" font-size="12" font-weight="bold" fill="#333333">Completing Tasks</text>
    <text x="610" y="435" font-family="Arial" font-size="10" fill="#9A9A9A">Checking items off your list</text>
    <text x="610" y="450" font-family="Arial" font-size="10" fill="#9A9A9A">triggers dopamine release</text>
  </g>
  
  <!-- Side Card: Balancing DOSE -->
  <g>
    <rect x="580" y="480" width="200" height="190" rx="15" ry="15" fill="#FFFFFF" stroke="#2A3990" stroke-width="2" filter="url(#shadow)" />
    <text x="600" y="510" font-family="Arial" font-size="14" font-weight="bold" fill="#2A3990">DOSE Balance</text>
    
    <line x1="600" y1="520" x2="760" y2="520" stroke="#E0E2E8" stroke-width="1" />
    
    <text x="600" y="540" font-family="Arial" font-size="12" fill="#333333">
      <tspan x="600" y="540">Your DOSE analysis based on</tspan>
      <tspan x="600" y="560">app usage and habits:</tspan>
    </text>
    
    <!-- Chart -->
    <rect x="600" y="575" width="160" height="80" fill="#FFFFFF" />
    
    <!-- Balance Bars -->
    <rect x="610" y="585" width="140" height="10" rx="5" ry="5" fill="#F6F7FB" />
    <rect x="610" y="585" width="110" height="10" rx="5" ry="5" fill="#E54D42" opacity="0.7" />
    <text x="600" y="595" font-family="Arial" font-size="9" text-anchor="end" fill="#9A9A9A">D</text>
    
    <rect x="610" y="605" width="140" height="10" rx="5" ry="5" fill="#F6F7FB" />
    <rect x="610" y="605" width="60" height="10" rx="5" ry="5" fill="#F5A623" opacity="0.7" />
    <text x="600" y="615" font-family="Arial" font-size="9" text-anchor="end" fill="#9A9A9A">O</text>
    
    <rect x="610" y="625" width="140" height="10" rx="5" ry="5" fill="#F6F7FB" />
    <rect x="610" y="625" width="85" height="10" rx="5" ry="5" fill="#83CE8B" opacity="0.7" />
    <text x="600" y="635" font-family="Arial" font-size="9" text-anchor="end" fill="#9A9A9A">S</text>
    
    <rect x="610" y="645" width="140" height="10" rx="5" ry="5" fill="#F6F7FB" />
    <rect x="610" y="645" width="70" height="10" rx="5" ry="5" fill="#9F85FF" opacity="0.7" />
    <text x="600" y="655" font-family="Arial" font-size="9" text-anchor="end" fill="#9A9A9A">E</text>
  </g>
  
  <!-- Side Card: DOSE in Your Habits -->
  <g>
    <rect x="580" y="680" width="200" height="220" rx="15" ry="15" fill="#FFFFFF" stroke="#F5A623" stroke-width="2" filter="url(#shadow)" />
    <text x="600" y="710" font-family="Arial" font-size="14" font-weight="bold" fill="#F5A623">DOSE in Your Habits</text>
    
    <line x1="600" y1="720" x2="760" y2="720" stroke="#E0E2E8" stroke-width="1" />
    
    <text x="600" y="740" font-family="Arial" font-size="12" fill="#333333">
      <tspan x="600" y="740">How you can apply DOSE to</tspan>
      <tspan x="600" y="760">your current habits:</tspan>
    </text>
    
    <!-- Habit 1 -->
    <rect x="600" y="775" width="160" height="50" rx="5" ry="5" fill="#F6F7FB" />
    <circle cx="615" cy="800" r="10" fill="#E54D42" opacity="0.7" />
    <text x="615" y="803" font-family="Arial" font-size="10" text-anchor="middle" fill="#FFFFFF">D</text>
    <text x="630" y="790" font-family="Arial" font-size="12" font-weight="bold" fill="#333333">Morning Meditation</text>
    <text x="630" y="810" font-family="Arial" font-size="10" fill="#9A9A9A">Track streak for dopamine boost</text>
    
    <!-- Habit 2 -->
    <rect x="600" y="835" width="160" height="50" rx="5" ry="5" fill="#F6F7FB" />
    <circle cx="615" cy="860" r="10" fill="#83CE8B" opacity="0.7" />
    <text x="615" y="863" font-family="Arial" font-size="10" text-anchor="middle" fill="#FFFFFF">S</text>
    <text x="630" y="850" font-family="Arial" font-size="12" font-weight="bold" fill="#333333">Evening Reading</text>
    <text x="630" y="870" font-family="Arial" font-size="10" fill="#9A9A9A">Boosts serotonin before sleep</text>
  </g>
  
  <!-- DOSE Insight Alert -->
  <g>
    <rect x="260" y="170" width="280" height="80" rx="10" ry="10" fill="#FFFFFF" filter="url(#shadow)" />
    <rect x="260" y="170" width="280" height="25" rx="10" ry="10" fill="#2A3990" />
    <text x="280" y="188" font-family="Arial" font-size="12" fill="#FFFFFF">DOSE Insight</text>
    <text x="520" y="188" font-family="Arial" font-size="12" text-anchor="end" fill="#FFFFFF">new</text>
    <text x="280" y="215" font-family="Arial" font-size="14" font-weight="bold" fill="#333333">Your dopamine balance needs attention</text>
    <text x="280" y="235" font-family="Arial" font-size="12" fill="#9A9A9A">Tap to learn healthier dopamine habits</text>
  </g>
  
  <!-- Caption -->
  <text x="400" y="1150" font-family="Arial" font-size="16" text-anchor="middle" fill="#333333">
    <tspan x="400" y="1150">Project Kage - DOSE Principles Education</tspan>
    <tspan x="400" y="1175">Feature: Neuroscience of Motivation</tspan>
  </text>
  
  <!-- Drop shadow for panels -->
  <defs>
    <filter id="shadow" x="-20%" y="-20%" width="140%" height="140%">
      <feDropShadow dx="0" dy="4" stdDeviation="4" flood-color="#0003" />
    </filter>
  </defs>
</svg>