<?xml version="1.0" encoding="UTF-8"?>
<svg viewBox="0 0 800 1200" xmlns="http://www.w3.org/2000/svg">
  <!-- Background with split design -->
  <rect width="400" height="1200" fill="#F6F7FB" />
  <rect x="400" width="400" height="1200" fill="#1A1A2E" />
  
  <!-- Light Mode Phone Frame (Left) -->
  <rect x="50" y="100" width="350" height="700" rx="40" ry="40" fill="#FFFFFF" stroke="#E0E2E8" stroke-width="2" />
  
  <!-- Status Bar -->
  <rect x="50" y="100" width="350" height="50" rx="40" ry="40" fill="#FFFFFF" />
  <text x="225" y="132" font-family="Arial" font-size="16" text-anchor="middle" fill="#333333">9:30 PM</text>
  
  <!-- App Header -->
  <rect x="50" y="150" width="350" height="70" fill="#2A3990" /> <!-- Deep indigo color -->
  <text x="110" y="195" font-family="Arial" font-size="18" font-weight="bold" fill="#FFFFFF">Settings</text>
  <text x="310" y="195" font-family="Arial" font-size="14" text-anchor="end" fill="#FFFFFF">Light Mode</text>
  
  <!-- Main Container -->
  <rect x="70" y="230" width="310" height="550" fill="#F6F7FB" rx="15" ry="15" />
  
  <!-- Appearance Settings Card -->
  <rect x="90" y="250" width="270" height="390" rx="15" ry="15" fill="#FFFFFF" stroke="#E0E2E8" stroke-width="2" />
  
  <text x="110" y="280" font-family="Arial" font-size="16" font-weight="bold" fill="#2A3990">Appearance</text>
  
  <!-- Theme Options -->
  <text x="110" y="310" font-family="Arial" font-size="14" fill="#333333">Theme Mode</text>
  
  <rect x="110" y="320" width="250" height="50" rx="10" ry="10" fill="#F6F7FB" />
  <circle cx="130" cy="345" r="12" fill="#2A3990" />
  <circle cx="130" cy="345" r="6" fill="#FFFFFF" />
  <text x="150" y="350" font-family="Arial" font-size="14" fill="#333333">Light Mode</text>
  
  <rect x="110" y="380" width="250" height="50" rx="10" ry="10" fill="#F6F7FB" />
  <circle cx="130" cy="405" r="12" fill="#F6F7FB" stroke="#9A9A9A" stroke-width="1" />
  <text x="150" y="410" font-family="Arial" font-size="14" fill="#333333">Dark Mode</text>
  
  <rect x="110" y="440" width="250" height="50" rx="10" ry="10" fill="#F6F7FB" />
  <circle cx="130" cy="465" r="12" fill="#F6F7FB" stroke="#9A9A9A" stroke-width="1" />
  <text x="150" y="470" font-family="Arial" font-size="14" fill="#333333">System Default</text>
  
  <rect x="110" y="500" width="250" height="50" rx="10" ry="10" fill="#F6F7FB" />
  <circle cx="130" cy="525" r="12" fill="#F6F7FB" stroke="#9A9A9A" stroke-width="1" />
  <text x="150" y="530" font-family="Arial" font-size="14" fill="#333333">Auto (Time-based)</text>
  
  <!-- Auto Switch Settings -->
  <rect x="110" y="560" width="250" height="70" rx="10" ry="10" fill="#F6F7FB33" />
  <text x="130" y="580" font-family="Arial" font-size="12" fill="#9A9A9A">Auto switch times:</text>
  <text x="130" y="605" font-family="Arial" font-size="12" fill="#333333">Light: 7:00 AM - 8:00 PM</text>
  <text x="130" y="625" font-family="Arial" font-size="12" fill="#333333">Dark: 8:00 PM - 7:00 AM</text>
  
  <!-- Color Accent Card -->
  <rect x="90" y="650" width="270" height="120" rx="15" ry="15" fill="#FFFFFF" stroke="#E0E2E8" stroke-width="2" />
  
  <text x="110" y="680" font-family="Arial" font-size="16" font-weight="bold" fill="#2A3990">Accent Color</text>
  
  <!-- Color Options -->
  <circle cx="130" cy="710" r="15" fill="#2A3990" stroke="#FFFFFF" stroke-width="2" />
  <circle cx="170" cy="710" r="15" fill="#4B6EAF" />
  <circle cx="210" cy="710" r="15" fill="#83CE8B" />
  <circle cx="250" cy="710" r="15" fill="#F5A623" />
  <circle cx="290" cy="710" r="15" fill="#E54D42" />
  
  <!-- Accessibility Options -->
  <rect x="90" y="780" width="270" height="80" rx="15" ry="15" fill="#FFFFFF" stroke="#E0E2E8" stroke-width="2" />
  
  <text x="110" y="810" font-family="Arial" font-size="16" font-weight="bold" fill="#2A3990">Accessibility</text>
  
  <!-- Text Size Slider -->
  <text x="110" y="835" font-family="Arial" font-size="14" fill="#333333">Text Size</text>
  <line x1="200" y1="835" x2="330" y2="835" stroke="#E0E2E8" stroke-width="2" />
  <circle cx="255" cy="835" r="8" fill="#2A3990" />
  <text x="200" y="850" font-family="Arial" font-size="10" fill="#9A9A9A">A</text>
  <text x="330" y="850" font-family="Arial" font-size="14" fill="#9A9A9A">A</text>
  
  <!-- Light Mode Preview Label -->
  <text x="225" y="900" font-family="Arial" font-size="16" font-weight="bold" text-anchor="middle" fill="#333333">Light Mode Preview</text>
  
  <!-- Dark Mode Phone Frame (Right) -->
  <rect x="400" y="100" width="350" height="700" rx="40" ry="40" fill="#121212" stroke="#333344" stroke-width="2" />
  
  <!-- Status Bar -->
  <rect x="400" y="100" width="350" height="50" rx="40" ry="40" fill="#121212" />
  <text x="575" y="132" font-family="Arial" font-size="16" text-anchor="middle" fill="#FFFFFF">9:30 PM</text>
  
  <!-- App Header -->
  <rect x="400" y="150" width="350" height="70" fill="#1A1F5A" /> <!-- Darker blue for dark mode -->
  <text x="460" y="195" font-family="Arial" font-size="18" font-weight="bold" fill="#FFFFFF">Settings</text>
  <text x="660" y="195" font-family="Arial" font-size="14" text-anchor="end" fill="#FFFFFF">Dark Mode</text>
  
  <!-- Main Container -->
  <rect x="420" y="230" width="310" height="550" fill="#1A1A2E" rx="15" ry="15" />
  
  <!-- Appearance Settings Card -->
  <rect x="440" y="250" width="270" height="390" rx="15" ry="15" fill="#242438" stroke="#333344" stroke-width="2" />
  
  <text x="460" y="280" font-family="Arial" font-size="16" font-weight="bold" fill="#8A90E0">Appearance</text>
  
  <!-- Theme Options -->
  <text x="460" y="310" font-family="Arial" font-size="14" fill="#EFEFEF">Theme Mode</text>
  
  <rect x="460" y="320" width="250" height="50" rx="10" ry="10" fill="#2A2A40" />
  <circle cx="480" cy="345" r="12" fill="#2A2A40" stroke="#9A9A9A" stroke-width="1" />
  <text x="500" y="350" font-family="Arial" font-size="14" fill="#EFEFEF">Light Mode</text>
  
  <rect x="460" y="380" width="250" height="50" rx="10" ry="10" fill="#2A2A40" />
  <circle cx="480" cy="405" r="12" fill="#8A90E0" />
  <circle cx="480" cy="405" r="6" fill="#FFFFFF" />
  <text x="500" y="410" font-family="Arial" font-size="14" fill="#EFEFEF">Dark Mode</text>
  
  <rect x="460" y="440" width="250" height="50" rx="10" ry="10" fill="#2A2A40" />
  <circle cx="480" cy="465" r="12" fill="#2A2A40" stroke="#9A9A9A" stroke-width="1" />
  <text x="500" y="470" font-family="Arial" font-size="14" fill="#EFEFEF">System Default</text>
  
  <rect x="460" y="500" width="250" height="50" rx="10" ry="10" fill="#2A2A40" />
  <circle cx="480" cy="525" r="12" fill="#2A2A40" stroke="#9A9A9A" stroke-width="1" />
  <text x="500" y="530" font-family="Arial" font-size="14" fill="#EFEFEF">Auto (Time-based)</text>
  
  <!-- Auto Switch Settings -->
  <rect x="460" y="560" width="250" height="70" rx="10" ry="10" fill="#FFFFFF11" />
  <text x="480" y="580" font-family="Arial" font-size="12" fill="#9A9A9A">Auto switch times:</text>
  <text x="480" y="605" font-family="Arial" font-size="12" fill="#EFEFEF">Light: 7:00 AM - 8:00 PM</text>
  <text x="480" y="625" font-family="Arial" font-size="12" fill="#EFEFEF">Dark: 8:00 PM - 7:00 AM</text>
  
  <!-- Color Accent Card -->
  <rect x="440" y="650" width="270" height="120" rx="15" ry="15" fill="#242438" stroke="#333344" stroke-width="2" />
  
  <text x="460" y="680" font-family="Arial" font-size="16" font-weight="bold" fill="#8A90E0">Accent Color</text>
  
  <!-- Color Options -->
  <circle cx="480" cy="710" r="15" fill="#8A90E0" stroke="#FFFFFF" stroke-width="2" />
  <circle cx="520" cy="710" r="15" fill="#7B9CDF" />
  <circle cx="560" cy="710" r="15" fill="#83CE8B" />
  <circle cx="600" cy="710" r="15" fill="#F5A623" />
  <circle cx="640" cy="710" r="15" fill="#E54D42" />
  
  <!-- Accessibility Options -->
  <rect x="440" y="780" width="270" height="80" rx="15" ry="15" fill="#242438" stroke="#333344" stroke-width="2" />
  
  <text x="460" y="810" font-family="Arial" font-size="16" font-weight="bold" fill="#8A90E0">Accessibility</text>
  
  <!-- Text Size Slider -->
  <text x="460" y="835" font-family="Arial" font-size="14" fill="#EFEFEF">Text Size</text>
  <line x1="550" y1="835" x2="680" y2="835" stroke="#333344" stroke-width="2" />
  <circle cx="605" cy="835" r="8" fill="#8A90E0" />
  <text x="550" y="850" font-family="Arial" font-size="10" fill="#9A9A9A">A</text>
  <text x="680" y="850" font-family="Arial" font-size="14" fill="#9A9A9A">A</text>
  
  <!-- Dark Mode Preview Label -->
  <text x="575" y="900" font-family="Arial" font-size="16" font-weight="bold" text-anchor="middle" fill="#EFEFEF">Dark Mode Preview</text>
  
  <!-- Dashboard Preview: Light Mode -->
  <rect x="50" y="940" width="350" height="220" rx="15" ry="15" fill="#FFFFFF" stroke="#E0E2E8" stroke-width="2" />
  
  <!-- Demo Header -->
  <rect x="50" y="940" width="350" height="40" rx="15" ry="15" fill="#2A3990" />
  <text x="160" y="966" font-family="Arial" font-size="14" font-weight="bold" fill="#FFFFFF">Dashboard Preview</text>
  
  <!-- Demo Content -->
  <rect x="70" y="990" width="310" height="40" rx="5" ry="5" fill="#F6F7FB" />
  <circle cx="90" cy="1010" r="10" fill="#FFFFFF" stroke="#2A3990" stroke-width="1" />
  <text x="90" y="1014" font-family="Arial" font-size="10" font-weight="bold" text-anchor="middle" fill="#2A3990">1</text>
  <text x="120" y="1015" font-family="Arial" font-size="12" fill="#333333">Morning Meditation</text>
  <text x="310" y="1015" font-family="Arial" font-size="12" text-anchor="end" fill="#83CE8B">Done</text>
  
  <rect x="70" y="1040" width="310" height="40" rx="5" ry="5" fill="#F6F7FB" />
  <circle cx="90" cy="1060" r="10" fill="#FFFFFF" stroke="#2A3990" stroke-width="1" />
  <text x="90" y="1064" font-family="Arial" font-size="10" font-weight="bold" text-anchor="middle" fill="#2A3990">2</text>
  <text x="120" y="1065" font-family="Arial" font-size="12" fill="#333333">Exercise Session</text>
  <text x="310" y="1065" font-family="Arial" font-size="12" text-anchor="end" fill="#9A9A9A">12:00 PM</text>
  
  <rect x="70" y="1090" width="180" height="40" rx="5" ry="5" fill="#F6F7FB" />
  <text x="100" y="1115" font-family="Arial" font-size="12" text-anchor="middle" fill="#333333">Today's Progress</text>
  <text x="170" y="1115" font-family="Arial" font-size="12" font-weight="bold" text-anchor="end" fill="#2A3990">67%</text>
  
  <rect x="260" y="1090" width="120" height="40" rx="5" ry="5" fill="#2A3990" />
  <text x="320" y="1115" font-family="Arial" font-size="12" font-weight="bold" text-anchor="middle" fill="#FFFFFF">View All</text>
  
  <!-- Dashboard Preview: Dark Mode -->
  <rect x="400" y="940" width="350" height="220" rx="15" ry="15" fill="#242438" stroke="#333344" stroke-width="2" />
  
  <!-- Demo Header -->
  <rect x="400" y="940" width="350" height="40" rx="15" ry="15" fill="#1A1F5A" />
  <text x="510" y="966" font-family="Arial" font-size="14" font-weight="bold" fill="#FFFFFF">Dashboard Preview</text>
  
  <!-- Demo Content -->
  <rect x="420" y="990" width="310" height="40" rx="5" ry="5" fill="#2A2A40" />
  <circle cx="440" cy="1010" r="10" fill="#2A2A40" stroke="#8A90E0" stroke-width="1" />
  <text x="440" y="1014" font-family="Arial" font-size="10" font-weight="bold" text-anchor="middle" fill="#8A90E0">1</text>
  <text x="470" y="1015" font-family="Arial" font-size="12" fill="#EFEFEF">Morning Meditation</text>
  <text x="660" y="1015" font-family="Arial" font-size="12" text-anchor="end" fill="#83CE8B">Done</text>
  
  <rect x="420" y="1040" width="310" height="40" rx="5" ry="5" fill="#2A2A40" />
  <circle cx="440" cy="1060" r="10" fill="#2A2A40" stroke="#8A90E0" stroke-width="1" />
  <text x="440" y="1064" font-family="Arial" font-size="10" font-weight="bold" text-anchor="middle" fill="#8A90E0">2</text>
  <text x="470" y="1065" font-family="Arial" font-size="12" fill="#EFEFEF">Exercise Session</text>
  <text x="660" y="1065" font-family="Arial" font-size="12" text-anchor="end" fill="#9A9A9A">12:00 PM</text>
  
  <rect x="420" y="1090" width="180" height="40" rx="5" ry="5" fill="#2A2A40" />
  <text x="450" y="1115" font-family="Arial" font-size="12" text-anchor="middle" fill="#EFEFEF">Today's Progress</text>
  <text x="520" y="1115" font-family="Arial" font-size="12" font-weight="bold" text-anchor="end" fill="#8A90E0">67%</text>
  
  <rect x="610" y="1090" width="120" height="40" rx="5" ry="5" fill="#8A90E0" />
  <text x="670" y="1115" font-family="Arial" font-size="12" font-weight="bold" text-anchor="middle" fill="#242438">View All</text>
  
  <!-- Split Screen Title -->
  <text x="400" y="880" font-family="Arial" font-size="24" font-weight="bold" text-anchor="middle" fill="#F6F7FB">Theme Comparison</text>
  
  <!-- Caption -->
  <rect x="0" y="1170" width="800" height="30" fill="#555555" />
  <text x="400" y="1190" font-family="Arial" font-size="16" text-anchor="middle" fill="#FFFFFF">
    Project Kage - Dark/Light Mode Themes Feature
  </text>
  
</svg>
