<?xml version="1.0" encoding="UTF-8"?>
<svg viewBox="0 0 800 1200" xmlns="http://www.w3.org/2000/svg">
  <!-- Background -->
  <rect width="800" height="1200" fill="#F6F7FB" />
  
  <!-- Phone Frame -->
  <rect x="150" y="100" width="500" height="1000" rx="40" ry="40" fill="#FFFFFF" stroke="#E0E2E8" stroke-width="2" />
  
  <!-- Status Bar -->
  <rect x="150" y="100" width="500" height="50" rx="40" ry="40" fill="#FFFFFF" />
  <text x="430" y="132" font-family="Arial" font-size="16" text-anchor="middle" fill="#333333">8:20 PM</text>
  
  <!-- Navigation Bar at bottom -->
  <rect x="150" y="1050" width="500" height="50" rx="40" ry="40" fill="#FFFFFF" />
  
  <!-- App Header -->
  <rect x="150" y="150" width="500" height="70" fill="#2A3990" /> <!-- Deep indigo color -->
  <text x="400" y="195" font-family="Arial" font-size="24" font-weight="bold" text-anchor="middle" fill="#FFFFFF">Digital Wellbeing</text>
  
  <!-- Main Container -->
  <rect x="170" y="230" width="460" height="810" fill="#F6F7FB" rx="15" ry="15" />
  
  <!-- Weekly Usage Overview Card -->
  <rect x="190" y="250" width="420" height="160" rx="15" ry="15" fill="#FFFFFF" stroke="#E0E2E8" stroke-width="2" />
  
  <text x="210" y="280" font-family="Arial" font-size="16" font-weight="bold" fill="#2A3990">Weekly Screen Time</text>
  <text x="210" y="300" font-family="Arial" font-size="12" fill="#9A9A9A">May 3 - May 9, 2025</text>
  
  <!-- Usage Chart -->
  <rect x="210" y="315" width="380" height="80" fill="#FFFFFF" />
  
  <!-- Bar Chart -->
  <rect x="225" y="355" width="30" height="40" rx="2" ry="2" fill="#2A399022" />
  <rect x="265" y="335" width="30" height="60" rx="2" ry="2" fill="#2A399022" />
  <rect x="305" y="325" width="30" height="70" rx="2" ry="2" fill="#2A399022" />
  <rect x="345" y="315" width="30" height="80" rx="2" ry="2" fill="#2A399022" />
  <rect x="385" y="345" width="30" height="50" rx="2" ry="2" fill="#2A399022" />
  <rect x="425" y="365" width="30" height="30" rx="2" ry="2" fill="#2A399022" />
  <rect x="465" y="335" width="30" height="60" rx="2" ry="2" fill="#E54D42" opacity="0.7" />
  
  <!-- Today's Bar Highlight -->
  <rect x="465" y="335" width="30" height="60" rx="2" ry="2" fill="#E54D42" opacity="0.7" />
  
  <!-- X-axis Labels -->
  <text x="240" y="405" font-family="Arial" font-size="10" text-anchor="middle" fill="#9A9A9A">Mon</text>
  <text x="280" y="405" font-family="Arial" font-size="10" text-anchor="middle" fill="#9A9A9A">Tue</text>
  <text x="320" y="405" font-family="Arial" font-size="10" text-anchor="middle" fill="#9A9A9A">Wed</text>
  <text x="360" y="405" font-family="Arial" font-size="10" text-anchor="middle" fill="#9A9A9A">Thu</text>
  <text x="400" y="405" font-family="Arial" font-size="10" text-anchor="middle" fill="#9A9A9A">Fri</text>
  <text x="440" y="405" font-family="Arial" font-size="10" text-anchor="middle" fill="#9A9A9A">Sat</text>
  <text x="480" y="405" font-family="Arial" font-size="10" text-anchor="middle" fill="#E54D42">Sun</text>
  
  <!-- Daily Usage Card -->
  <rect x="190" y="420" width="420" height="150" rx="15" ry="15" fill="#FFFFFF" stroke="#E0E2E8" stroke-width="2" />
  
  <text x="210" y="450" font-family="Arial" font-size="16" font-weight="bold" fill="#2A3990">Today's Usage</text>
  <text x="210" y="470" font-family="Arial" font-size="12" fill="#9A9A9A">Sunday, May 9, 2025</text>
  
  <!-- Usage Stats -->
  <rect x="210" y="485" width="120" height="70" rx="10" ry="10" fill="#F6F7FB" />
  <text x="270" y="515" font-family="Arial" font-size="22" font-weight="bold" text-anchor="middle" fill="#E54D42">3h 25m</text>
  <text x="270" y="535" font-family="Arial" font-size="12" text-anchor="middle" fill="#9A9A9A">Total Screen Time</text>
  
  <rect x="340" y="485" width="120" height="70" rx="10" ry="10" fill="#F6F7FB" />
  <text x="400" y="515" font-family="Arial" font-size="22" font-weight="bold" text-anchor="middle" fill="#E54D42">47</text>
  <text x="400" y="535" font-family="Arial" font-size="12" text-anchor="middle" fill="#9A9A9A">Pickups</text>
  
  <rect x="470" y="485" width="120" height="70" rx="10" ry="10" fill="#F6F7FB" />
  <text x="530" y="515" font-family="Arial" font-size="22" font-weight="bold" text-anchor="middle" fill="#E54D42">86</text>
  <text x="530" y="535" font-family="Arial" font-size="12" text-anchor="middle" fill="#9A9A9A">Notifications</text>
  
  <!-- App Breakdown Card -->
  <rect x="190" y="580" width="420" height="230" rx="15" ry="15" fill="#FFFFFF" stroke="#E0E2E8" stroke-width="2" />
  
  <text x="210" y="610" font-family="Arial" font-size="16" font-weight="bold" fill="#2A3990">App Breakdown</text>
  <text x="210" y="630" font-family="Arial" font-size="12" fill="#9A9A9A">Time spent by application</text>
  
  <!-- App 1 -->
  <rect x="210" y="645" width="380" height="35" rx="5" ry="5" fill="#F6F7FB" />
  <circle cx="230" cy="662.5" r="15" fill="#3b5998" />
  <text x="230" y="667.5" font-family="Arial" font-size="12" text-anchor="middle" fill="#FFFFFF">F</text>
  <text x="255" y="667.5" font-family="Arial" font-size="14" fill="#333333">Social Media</text>
  <text x="565" y="667.5" font-family="Arial" font-size="14" text-anchor="end" fill="#E54D42">1h 15m</text>
  <rect x="210" y="645" width="380" height="35" rx="5" ry="5" fill="transparent" stroke="#E54D42" stroke-width="2" stroke-dasharray="4,2" />
  
  <!-- App 2 -->
  <rect x="210" y="690" width="380" height="35" rx="5" ry="5" fill="#F6F7FB" />
  <circle cx="230" cy="707.5" r="15" fill="#25D366" />
  <text x="230" y="712.5" font-family="Arial" font-size="12" text-anchor="middle" fill="#FFFFFF">M</text>
  <text x="255" y="707.5" font-family="Arial" font-size="14" fill="#333333">Messaging</text>
  <text x="565" y="707.5" font-family="Arial" font-size="14" text-anchor="end" fill="#9A9A9A">45m</text>
  
  <!-- App 3 -->
  <rect x="210" y="735" width="380" height="35" rx="5" ry="5" fill="#F6F7FB" />
  <circle cx="230" cy="752.5" r="15" fill="#FF0000" />
  <text x="230" y="757.5" font-family="Arial" font-size="12" text-anchor="middle" fill="#FFFFFF">V</text>
  <text x="255" y="752.5" font-family="Arial" font-size="14" fill="#333333">Video Streaming</text>
  <text x="565" y="752.5" font-family="Arial" font-size="14" text-anchor="end" fill="#9A9A9A">35m</text>
  
  <!-- App 4 -->
  <rect x="210" y="780" width="380" height="35" rx="5" ry="5" fill="#F6F7FB" />
  <circle cx="230" cy="797.5" r="15" fill="#83CE8B" />
  <text x="230" y="802.5" font-family="Arial" font-size="12" text-anchor="middle" fill="#FFFFFF">K</text>
  <text x="255" y="797.5" font-family="Arial" font-size="14" fill="#333333">Project Kage</text>
  <text x="565" y="797.5" font-family="Arial" font-size="14" text-anchor="end" fill="#83CE8B">30m</text>
  
  <!-- Wellbeing Goals Card -->
  <rect x="190" y="820" width="420" height="220" rx="15" ry="15" fill="#FFFFFF" stroke="#E0E2E8" stroke-width="2" />
  
  <text x="210" y="850" font-family="Arial" font-size="16" font-weight="bold" fill="#2A3990">Digital Wellbeing Goals</text>
  <text x="210" y="870" font-family="Arial" font-size="12" fill="#9A9A9A">Your targets for healthier digital habits</text>
  
  <!-- Goal 1 -->
  <rect x="210" y="885" width="380" height="45" rx="10" ry="10" fill="#F6F7FB" />
  <text x="230" y="907" font-family="Arial" font-size="14" font-weight="bold" fill="#333333">Daily Screen Time Limit</text>
  <text x="230" y="925" font-family="Arial" font-size="12" fill="#9A9A9A">Goal: 2h 30m • Today: 3h 25m</text>
  <rect x="520" y="897.5" width="50" height="20" rx="10" ry="10" fill="#E54D42" />
  <text x="545" y="912.5" font-family="Arial" font-size="12" text-anchor="middle" fill="#FFFFFF">+55m</text>
  
  <!-- Goal 2 -->
  <rect x="210" y="940" width="380" height="45" rx="10" ry="10" fill="#F6F7FB" />
  <text x="230" y="962" font-family="Arial" font-size="14" font-weight="bold" fill="#333333">Social Media Time</text>
  <text x="230" y="980" font-family="Arial" font-size="12" fill="#9A9A9A">Goal: 45m • Today: 1h 15m</text>
  <rect x="520" y="952.5" width="50" height="20" rx="10" ry="10" fill="#E54D42" />
  <text x="545" y="967.5" font-family="Arial" font-size="12" text-anchor="middle" fill="#FFFFFF">+30m</text>
  
  <!-- Goal 3 -->
  <rect x="210" y="995" width="380" height="45" rx="10" ry="10" fill="#F6F7FB" />
  <text x="230" y="1017" font-family="Arial" font-size="14" font-weight="bold" fill="#333333">Phone Pickups</text>
  <text x="230" y="1035" font-family="Arial" font-size="12" fill="#9A9A9A">Goal: 40 • Today: 47</text>
  <rect x="520" y="1007.5" width="50" height="20" rx="10" ry="10" fill="#E54D42" />
  <text x="545" y="1022.5" font-family="Arial" font-size="12" text-anchor="middle" fill="#FFFFFF">+7</text>
  
  <!-- Side Card: Weekly Trends -->
  <g>
    <rect x="580" y="250" width="200" height="180" rx="15" ry="15" fill="#FFFFFF" stroke="#2A3990" stroke-width="2" filter="url(#shadow)" />
    <text x="600" y="280" font-family="Arial" font-size="14" font-weight="bold" fill="#2A3990">Weekly Trends</text>
    
    <line x1="600" y1="290" x2="760" y2="290" stroke="#E0E2E8" stroke-width="1" />
    
    <text x="600" y="310" font-family="Arial" font-size="12" fill="#333333">
      <tspan x="600" y="310">Compared to last week:</tspan>
    </text>
    
    <!-- Trend 1 -->
    <rect x="600" y="325" width="160" height="30" rx="5" ry="5" fill="#F6F7FB" />
    <text x="615" y="345" font-family="Arial" font-size="12" fill="#333333">Total Screen Time</text>
    <text x="740" y="345" font-family="Arial" font-size="12" text-anchor="end" fill="#E54D42">+15%</text>
    
    <!-- Trend 2 -->
    <rect x="600" y="365" width="160" height="30" rx="5" ry="5" fill="#F6F7FB" />
    <text x="615" y="385" font-family="Arial" font-size="12" fill="#333333">Pickups</text>
    <text x="740" y="385" font-family="Arial" font-size="12" text-anchor="end" fill="#E54D42">+8%</text>
    
    <!-- Trend 3 -->
    <rect x="600" y="405" width="160" height="30" rx="5" ry="5" fill="#F6F7FB" />
    <text x="615" y="425" font-family="Arial" font-size="12" fill="#333333">Social Media</text>
    <text x="740" y="425" font-family="Arial" font-size="12" text-anchor="end" fill="#E54D42">+22%</text>
  </g>
  
  <!-- Side Card: Digital Disruption -->
  <g>
    <rect x="580" y="440" width="200" height="220" rx="15" ry="15" fill="#FFFFFF" stroke="#E54D42" stroke-width="2" filter="url(#shadow)" />
    <text x="600" y="470" font-family="Arial" font-size="14" font-weight="bold" fill="#E54D42">Digital Disruption</text>
    
    <line x1="600" y1="480" x2="760" y2="480" stroke="#E0E2E8" stroke-width="1" />
    
    <text x="600" y="500" font-family="Arial" font-size="12" fill="#333333">
      <tspan x="600" y="500">Impact on your other habits:</tspan>
    </text>
    
    <!-- Impact 1 -->
    <rect x="600" y="515" width="160" height="45" rx="5" ry="5" fill="#F6F7FB" />
    <text x="615" y="535" font-family="Arial" font-size="12" font-weight="bold" fill="#333333">Reading Habit</text>
    <text x="615" y="550" font-family="Arial" font-size="10" fill="#9A9A9A">Completion rate drops 18% on</text>
    <text x="615" y="565" font-family="Arial" font-size="10" fill="#9A9A9A">high screen time days</text>
    
    <!-- Impact 2 -->
    <rect x="600" y="570" width="160" height="45" rx="5" ry="5" fill="#F6F7FB" />
    <text x="615" y="590" font-family="Arial" font-size="12" font-weight="bold" fill="#333333">Sleep Quality</text>
    <text x="615" y="605" font-family="Arial" font-size="10" fill="#9A9A9A">12% lower after evening</text>
    <text x="615" y="620" font-family="Arial" font-size="10" fill="#9A9A9A">social media use</text>
  </g>
  
  <!-- Side Card: Intervention Strategies -->
  <g>
    <rect x="580" y="670" width="200" height="240" rx="15" ry="15" fill="#FFFFFF" stroke="#83CE8B" stroke-width="2" filter="url(#shadow)" />
    <text x="600" y="700" font-family="Arial" font-size="14" font-weight="bold" fill="#83CE8B">Interventions</text>
    
    <line x1="600" y1="710" x2="760" y2="710" stroke="#E0E2E8" stroke-width="1" />
    
    <text x="600" y="730" font-family="Arial" font-size="12" fill="#333333">
      <tspan x="600" y="730">Strategies to try this week:</tspan>
    </text>
    
    <!-- Strategy 1 -->
    <rect x="600" y="745" width="160" height="45" rx="5" ry="5" fill="#F6F7FB" />
    <circle cx="615" cy="767.5" r="8" fill="#83CE8B" />
    <text x="615" y="771" font-family="Arial" font-size="10" text-anchor="middle" fill="#FFFFFF">1</text>
    <text x="630" y="760" font-family="Arial" font-size="12" font-weight="bold" fill="#333333">Social Media Timer</text>
    <text x="630" y="775" font-family="Arial" font-size="10" fill="#9A9A9A">Set a 30 min daily limit</text>
    
    <!-- Strategy 2 -->
    <rect x="600" y="800" width="160" height="45" rx="5" ry="5" fill="#F6F7FB" />
    <circle cx="615" cy="822.5" r="8" fill="#83CE8B" />
    <text x="615" y="826" font-family="Arial" font-size="10" text-anchor="middle" fill="#FFFFFF">2</text>
    <text x="630" y="815" font-family="Arial" font-size="12" font-weight="bold" fill="#333333">Phone-Free Hour</text>
    <text x="630" y="830" font-family="Arial" font-size="10" fill="#9A9A9A">Before bed (9-10 PM)</text>
    
    <!-- Strategy 3 -->
    <rect x="600" y="855" width="160" height="45" rx="5" ry="5" fill="#F6F7FB" />
    <circle cx="615" cy="877.5" r="8" fill="#83CE8B" />
    <text x="615" y="881" font-family="Arial" font-size="10" text-anchor="middle" fill="#FFFFFF">3</text>
    <text x="630" y="870" font-family="Arial" font-size="12" font-weight="bold" fill="#333333">Grayscale Mode</text>
    <text x="630" y="885" font-family="Arial" font-size="10" fill="#9A9A9A">Reduce app engagement</text>
  </g>
  
  <!-- Digital Wellbeing Alert -->
  <g>
    <rect x="260" y="170" width="280" height="80" rx="10" ry="10" fill="#FFFFFF" filter="url(#shadow)" />
    <rect x="260" y="170" width="280" height="25" rx="10" ry="10" fill="#E54D42" />
    <text x="280" y="188" font-family="Arial" font-size="12" fill="#FFFFFF">Digital Wellbeing Alert</text>
    <text x="520" y="188" font-family="Arial" font-size="12" text-anchor="end" fill="#FFFFFF">now</text>
    <text x="280" y="215" font-family="Arial" font-size="14" font-weight="bold" fill="#333333">Social media goal exceeded by 30 min</text>
    <text x="280" y="235" font-family="Arial" font-size="12" fill="#9A9A9A">Your meditation habit is currently at risk</text>
  </g>
  
  <!-- Caption -->
  <text x="400" y="1150" font-family="Arial" font-size="16" text-anchor="middle" fill="#333333">
    <tspan x="400" y="1150">Project Kage - Digital Wellbeing Statistics</tspan>
    <tspan x="400" y="1175">Feature: Technology Usage Monitoring</tspan>
  </text>
  
  <!-- Drop shadow for panels -->
  <defs>
    <filter id="shadow" x="-20%" y="-20%" width="140%" height="140%">
      <feDropShadow dx="0" dy="4" stdDeviation="4" flood-color="#0003" />
    </filter>
  </defs>
</svg>