<?xml version="1.0" encoding="UTF-8"?>
<svg viewBox="0 0 800 1200" xmlns="http://www.w3.org/2000/svg">
  <!-- Background -->
  <rect width="800" height="1200" fill="#F6F7FB" />
  
  <!-- Phone Frame -->
  <rect x="150" y="100" width="500" height="1000" rx="40" ry="40" fill="#FFFFFF" stroke="#E0E2E8" stroke-width="2" />
  
  <!-- Status Bar -->
  <rect x="150" y="100" width="500" height="50" rx="40" ry="40" fill="#FFFFFF" />
  <text x="430" y="132" font-family="Arial" font-size="16" text-anchor="middle" fill="#333333">5:35 PM</text>
  
  <!-- Navigation Bar at bottom -->
  <rect x="150" y="1050" width="500" height="50" rx="40" ry="40" fill="#FFFFFF" />
  
  <!-- App Header -->
  <rect x="150" y="150" width="500" height="70" fill="#2A3990" /> <!-- Deep indigo color -->
  <text x="400" y="195" font-family="Arial" font-size="24" font-weight="bold" text-anchor="middle" fill="#FFFFFF">Goal Progress</text>
  
  <!-- Main Container -->
  <rect x="170" y="230" width="460" height="810" fill="#F6F7FB" rx="15" ry="15" />
  
  <!-- Goal Selection Dropdown -->
  <rect x="190" y="250" width="420" height="50" rx="10" ry="10" fill="#FFFFFF" stroke="#E0E2E8" stroke-width="1" />
  <text x="220" y="280" font-family="Arial" font-size="14" font-weight="bold" fill="#333333">Learn French for Paris Trip</text>
  <path d="M585 275 L575 265 L595 265 Z" fill="#9A9A9A" />
  
  <!-- Time Period Selector Tabs -->
  <rect x="190" y="310" width="420" height="40" rx="20" ry="20" fill="#FFFFFF" stroke="#E0E2E8" stroke-width="1" />
  <rect x="190" y="310" width="105" height="40" rx="20" ry="20" fill="#2A3990" />
  <text x="242.5" y="335" font-family="Arial" font-size="14" text-anchor="middle" fill="#FFFFFF">Month</text>
  <text x="347.5" y="335" font-family="Arial" font-size="14" text-anchor="middle" fill="#9A9A9A">Quarter</text>
  <text x="452.5" y="335" font-family="Arial" font-size="14" text-anchor="middle" fill="#9A9A9A">Year</text>
  <text x="557.5" y="335" font-family="Arial" font-size="14" text-anchor="middle" fill="#9A9A9A">All</text>
  
  <!-- Primary Progress Visualization -->
  <rect x="190" y="360" width="420" height="200" rx="10" ry="10" fill="#FFFFFF" stroke="#E0E2E8" stroke-width="1" />
  
  <!-- Progress Header -->
  <text x="210" y="385" font-family="Arial" font-size="16" font-weight="bold" fill="#2A3990">Overall Progress</text>
  
  <!-- Main Circular Progress -->
  <circle cx="290" cy="460" r="70" fill="#FFFFFF" stroke="#E0E2E8" stroke-width="8" />
  <path d="M290 390 A70 70 0 0 1 346 413 L290 460 Z" fill="#83CE8B" />
  <path d="M346 413 A70 70 0 0 1 360 460 L290 460 Z" fill="#83CE8B" />
  <path d="M360 460 A70 70 0 0 1 335 508 L290 460 Z" fill="#F5A623" />
  <circle cx="290" cy="460" r="50" fill="#FFFFFF" />
  <text x="290" y="455" font-family="Arial" font-size="24" font-weight="bold" text-anchor="middle" fill="#333333">42%</text>
  <text x="290" y="475" font-family="Arial" font-size="12" text-anchor="middle" fill="#9A9A9A">Complete</text>
  
  <!-- Progress Breakdown -->
  <text x="400" y="420" font-family="Arial" font-size="14" font-weight="bold" fill="#333333">Current Level: A1 (Beginner)</text>
  
  <!-- Progress Legend -->
  <circle cx="385" cy="445" r="6" fill="#83CE8B" />
  <text x="400" y="450" font-family="Arial" font-size="12" fill="#333333">On Track (Vocabulary, Grammar)</text>
  
  <circle cx="385" cy="470" r="6" fill="#F5A623" />
  <text x="400" y="475" font-family="Arial" font-size="12" fill="#333333">Needs Attention (Conversation)</text>
  
  <circle cx="385" cy="495" r="6" fill="#E0E2E8" />
  <text x="400" y="500" font-family="Arial" font-size="12" fill="#333333">Not Started (Cultural Studies)</text>
  
  <!-- Milestone Progress Visualization -->
  <rect x="190" y="570" width="420" height="230" rx="10" ry="10" fill="#FFFFFF" stroke="#E0E2E8" stroke-width="1" />
  
  <!-- Milestones Header -->
  <text x="210" y="595" font-family="Arial" font-size="16" font-weight="bold" fill="#2A3990">Milestones</text>
  
  <!-- Timeline Visualization -->
  <line x1="240" y1="625" x2="240" y2="775" stroke="#E0E2E8" stroke-width="2" />
  
  <!-- Completed Milestone 1 -->
  <circle cx="240" cy="640" r="10" fill="#83CE8B" />
  <rect x="260" y="625" width="330" height="50" rx="5" ry="5" fill="#DCF7E0" />
  <text x="280" y="645" font-family="Arial" font-size="14" font-weight="bold" fill="#333333">Basic 100 Words Vocabulary</text>
  <text x="280" y="665" font-family="Arial" font-size="12" fill="#333333">Completed: July 15, 2025</text>
  
  <!-- In Progress Milestone 2 -->
  <circle cx="240" cy="700" r="10" fill="#F5A623" />
  <rect x="260" y="685" width="330" height="50" rx="5" ry="5" fill="#FCF3D9" />
  <text x="280" y="705" font-family="Arial" font-size="14" font-weight="bold" fill="#333333">Present Tense Mastery</text>
  <text x="280" y="725" font-family="Arial" font-size="12" fill="#333333">In Progress: 65% complete</text>
  
  <!-- Upcoming Milestone 3 -->
  <circle cx="240" cy="760" r="10" fill="#E0E2E8" />
  <rect x="260" y="745" width="330" height="50" rx="5" ry="5" fill="#F6F7FB" stroke="#E0E2E8" stroke-width="1" />
  <text x="280" y="765" font-family="Arial" font-size="14" font-weight="bold" fill="#333333">Basic Conversation Fluency</text>
  <text x="280" y="785" font-family="Arial" font-size="12" fill="#333333">Target: October 30, 2025</text>
  
  <!-- Habits Performance -->
  <rect x="190" y="810" width="420" height="210" rx="10" ry="10" fill="#FFFFFF" stroke="#E0E2E8" stroke-width="1" />
  
  <!-- Habits Header -->
  <text x="210" y="835" font-family="Arial" font-size="16" font-weight="bold" fill="#2A3990">Supporting Habits Performance</text>
  
  <!-- Weekly Habit Heatmap -->
  <g>
    <!-- Days of Week -->
    <text x="240" y="865" font-family="Arial" font-size="10" text-anchor="middle" fill="#9A9A9A">Mon</text>
    <text x="280" y="865" font-family="Arial" font-size="10" text-anchor="middle" fill="#9A9A9A">Tue</text>
    <text x="320" y="865" font-family="Arial" font-size="10" text-anchor="middle" fill="#9A9A9A">Wed</text>
    <text x="360" y="865" font-family="Arial" font-size="10" text-anchor="middle" fill="#9A9A9A">Thu</text>
    <text x="400" y="865" font-family="Arial" font-size="10" text-anchor="middle" fill="#9A9A9A">Fri</text>
    <text x="440" y="865" font-family="Arial" font-size="10" text-anchor="middle" fill="#9A9A9A">Sat</text>
    <text x="480" y="865" font-family="Arial" font-size="10" text-anchor="middle" fill="#9A9A9A">Sun</text>
    
    <!-- Habit Names -->
    <text x="180" y="900" font-family="Arial" font-size="12" text-anchor="end" fill="#333333">Vocabulary</text>
    <text x="180" y="940" font-family="Arial" font-size="12" text-anchor="end" fill="#333333">Grammar</text>
    <text x="180" y="980" font-family="Arial" font-size="12" text-anchor="end" fill="#333333">Listening</text>
    <text x="180" y="1020" font-family="Arial" font-size="12" text-anchor="end" fill="#333333">Speaking</text>
    
    <!-- Heatmap Week 1 - Vocabulary -->
    <rect x="220" y="885" width="40" height="25" rx="3" ry="3" fill="#83CE8B" opacity="0.8" />
    <rect x="260" y="885" width="40" height="25" rx="3" ry="3" fill="#83CE8B" opacity="1.0" />
    <rect x="300" y="885" width="40" height="25" rx="3" ry="3" fill="#83CE8B" opacity="0.7" />
    <rect x="340" y="885" width="40" height="25" rx="3" ry="3" fill="#83CE8B" opacity="0.9" />
    <rect x="380" y="885" width="40" height="25" rx="3" ry="3" fill="#83CE8B" opacity="0.8" />
    <rect x="420" y="885" width="40" height="25" rx="3" ry="3" fill="#E0E2E8" opacity="0.7" />
    <rect x="460" y="885" width="40" height="25" rx="3" ry="3" fill="#E0E2E8" opacity="0.7" />
    
    <!-- Heatmap Week 1 - Grammar -->
    <rect x="220" y="925" width="40" height="25" rx="3" ry="3" fill="#83CE8B" opacity="0.6" />
    <rect x="260" y="925" width="40" height="25" rx="3" ry="3" fill="#E0E2E8" opacity="0.7" />
    <rect x="300" y="925" width="40" height="25" rx="3" ry="3" fill="#83CE8B" opacity="0.9" />
    <rect x="340" y="925" width="40" height="25" rx="3" ry="3" fill="#E0E2E8" opacity="0.7" />
    <rect x="380" y="925" width="40" height="25" rx="3" ry="3" fill="#83CE8B" opacity="0.7" />
    <rect x="420" y="925" width="40" height="25" rx="3" ry="3" fill="#E0E2E8" opacity="0.7" />
    <rect x="460" y="925" width="40" height="25" rx="3" ry="3" fill="#E0E2E8" opacity="0.7" />
    
    <!-- Heatmap Week 1 - Listening -->
    <rect x="220" y="965" width="40" height="25" rx="3" ry="3" fill="#83CE8B" opacity="0.9" />
    <rect x="260" y="965" width="40" height="25" rx="3" ry="3" fill="#83CE8B" opacity="0.7" />
    <rect x="300" y="965" width="40" height="25" rx="3" ry="3" fill="#E0E2E8" opacity="0.7" />
    <rect x="340" y="965" width="40" height="25" rx="3" ry="3" fill="#83CE8B" opacity="0.8" />
    <rect x="380" y="965" width="40" height="25" rx="3" ry="3" fill="#83CE8B" opacity="0.7" />
    <rect x="420" y="965" width="40" height="25" rx="3" ry="3" fill="#83CE8B" opacity="0.9" />
    <rect x="460" y="965" width="40" height="25" rx="3" ry="3" fill="#83CE8B" opacity="0.7" />
    
    <!-- Heatmap Week 1 - Speaking -->
    <rect x="220" y="1005" width="40" height="25" rx="3" ry="3" fill="#E0E2E8" opacity="0.7" />
    <rect x="260" y="1005" width="40" height="25" rx="3" ry="3" fill="#E0E2E8" opacity="0.7" />
    <rect x="300" y="1005" width="40" height="25" rx="3" ry="3" fill="#F5A623" opacity="0.7" />
    <rect x="340" y="1005" width="40" height="25" rx="3" ry="3" fill="#E0E2E8" opacity="0.7" />
    <rect x="380" y="1005" width="40" height="25" rx="3" ry="3" fill="#E0E2E8" opacity="0.7" />
    <rect x="420" y="1005" width="40" height="25" rx="3" ry="3" fill="#F5A623" opacity="0.8" />
    <rect x="460" y="1005" width="40" height="25" rx="3" ry="3" fill="#E0E2E8" opacity="0.7" />
  </g>
  
  <!-- Side Card: Performance Insights -->
  <g>
    <rect x="580" y="400" width="200" height="240" rx="15" ry="15" fill="#FFFFFF" stroke="#2A3990" stroke-width="2" filter="url(#shadow)" />
    <text x="600" y="430" font-family="Arial" font-size="14" font-weight="bold" fill="#2A3990">Performance Insights</text>
    
    <line x1="600" y1="440" x2="760" y2="440" stroke="#E0E2E8" stroke-width="1" />
    
    <text x="600" y="465" font-family="Arial" font-size="13" font-weight="bold" fill="#83CE8B">
      <tspan x="600" y="465">Strengths:</tspan>
    </text>
    
    <text x="600" y="490" font-family="Arial" font-size="12" fill="#333333">
      <tspan x="600" y="490">• Consistent vocabulary practice</tspan>
      <tspan x="600" y="510">• Strong listening comprehension</tspan>
      <tspan x="600" y="530">• On track with grammar goals</tspan>
    </text>
    
    <text x="600" y="560" font-family="Arial" font-size="13" font-weight="bold" fill="#F5A623">
      <tspan x="600" y="560">Areas for Improvement:</tspan>
    </text>
    
    <text x="600" y="585" font-family="Arial" font-size="12" fill="#333333">
      <tspan x="600" y="585">• Conversation practice</tspan>
      <tspan x="600" y="605">• Weekend consistency</tspan>
    </text>
  </g>
  
  <!-- Caption -->
  <text x="400" y="1150" font-family="Arial" font-size="16" text-anchor="middle" fill="#333333">
    <tspan x="400" y="1150">Project Kage - Goal Progress Visualization</tspan>
    <tspan x="400" y="1175">Feature: Multi-faceted Progress Tracking</tspan>
  </text>
  
  <!-- Drop shadow for panels -->
  <defs>
    <filter id="shadow" x="-20%" y="-20%" width="140%" height="140%">
      <feDropShadow dx="0" dy="4" stdDeviation="4" flood-color="#0003" />
    </filter>
  </defs>
</svg>
