<?xml version="1.0" encoding="UTF-8"?>
<svg viewBox="0 0 800 1200" xmlns="http://www.w3.org/2000/svg">
  <!-- Background -->
  <rect width="800" height="1200" fill="#F6F7FB" />
  
  <!-- Phone Frame -->
  <rect x="150" y="100" width="500" height="1000" rx="40" ry="40" fill="#FFFFFF" stroke="#E0E2E8" stroke-width="2" />
  
  <!-- Status Bar -->
  <rect x="150" y="100" width="500" height="50" rx="40" ry="40" fill="#FFFFFF" />
  <text x="430" y="132" font-family="Arial" font-size="16" text-anchor="middle" fill="#333333">9:15 AM</text>
  
  <!-- Navigation Bar at bottom -->
  <rect x="150" y="1050" width="500" height="50" rx="40" ry="40" fill="#FFFFFF" />
  
  <!-- App Header -->
  <rect x="150" y="150" width="500" height="70" fill="#2A3990" /> <!-- Deep indigo color -->
  <text x="400" y="195" font-family="Arial" font-size="24" font-weight="bold" text-anchor="middle" fill="#FFFFFF">Today</text>
  
  <!-- Main Container -->
  <rect x="170" y="230" width="460" height="810" fill="#F6F7FB" rx="15" ry="15" />
  
  <!-- Daily Progress Header -->
  <rect x="190" y="250" width="420" height="80" rx="15" ry="15" fill="#FFFFFF" stroke="#E0E2E8" stroke-width="2" />
  
  <text x="210" y="275" font-family="Arial" font-size="16" font-weight="bold" fill="#333333">Monday, May 9, 2025</text>
  
  <!-- Progress Bar -->
  <rect x="210" y="290" width="300" height="10" rx="5" ry="5" fill="#F6F7FB" />
  <rect x="210" y="290" width="90" height="10" rx="5" ry="5" fill="#2A3990" />
  <text x="520" y="300" font-family="Arial" font-size="14" font-weight="bold" text-anchor="end" fill="#2A3990">30%</text>
  
  <!-- Progress Stats -->
  <text x="210" y="320" font-family="Arial" font-size="12" fill="#9A9A9A">3 of 10 activities completed</text>
  
  <!-- Current Activity -->
  <rect x="190" y="340" width="420" height="120" rx="15" ry="15" fill="#2A3990" />
  
  <text x="400" y="370" font-family="Arial" font-size="12" font-weight="bold" text-anchor="middle" fill="#FFFFFF">CURRENT ACTIVITY</text>
  <text x="400" y="410" font-family="Arial" font-size="20" font-weight="bold" text-anchor="middle" fill="#FFFFFF">Team Strategy Meeting</text>
  <text x="400" y="435" font-family="Arial" font-size="14" text-anchor="middle" fill="#FFFFFF">9:00 - 10:00 AM (45 min left)</text>
  
  <circle cx="530" cy="380" r="20" fill="#FFFFFF" opacity="0.2" />
  <text x="530" y="385" font-family="Arial" font-size="16" text-anchor="middle" fill="#FFFFFF">✓</text>
  
  <!-- Timeline Section -->
  <rect x="190" y="470" width="420" height="550" rx="15" ry="15" fill="#FFFFFF" stroke="#E0E2E8" stroke-width="2" />
  
  <text x="210" y="500" font-family="Arial" font-size="16" font-weight="bold" fill="#2A3990">Timeline</text>
  
  <!-- Morning Header -->
  <rect x="210" y="515" width="380" height="30" rx="15" ry="15" fill="#F6F7FB" />
  <text x="400" y="535" font-family="Arial" font-size="14" font-weight="bold" text-anchor="middle" fill="#9A9A9A">Morning</text>
  
  <!-- Activity 1 (Completed) -->
  <rect x="210" y="555" width="380" height="60" rx="10" ry="10" fill="#F6F7FB" />
  <rect x="210" y="555" width="5" height="60" rx="0" ry="0" fill="#83CE8B" />
  <text x="230" y="575" font-family="Arial" font-size="14" font-weight="bold" fill="#333333">Morning Meditation</text>
  <text x="230" y="595" font-family="Arial" font-size="12" fill="#9A9A9A">6:00 - 6:30 AM</text>
  <text x="570" y="585" font-family="Arial" font-size="12" text-anchor="end" fill="#83CE8B">✓</text>
  
  <!-- Activity 2 (Completed) -->
  <rect x="210" y="625" width="380" height="60" rx="10" ry="10" fill="#F6F7FB" />
  <rect x="210" y="625" width="5" height="60" rx="0" ry="0" fill="#83CE8B" />
  <text x="230" y="645" font-family="Arial" font-size="14" font-weight="bold" fill="#333333">Breakfast & Planning</text>
  <text x="230" y="665" font-family="Arial" font-size="12" fill="#9A9A9A">7:00 - 7:45 AM</text>
  <text x="570" y="655" font-family="Arial" font-size="12" text-anchor="end" fill="#83CE8B">✓</text>
  
  <!-- Activity 3 (Completed) -->
  <rect x="210" y="695" width="380" height="60" rx="10" ry="10" fill="#F6F7FB" />
  <rect x="210" y="695" width="5" height="60" rx="0" ry="0" fill="#83CE8B" />
  <text x="230" y="715" font-family="Arial" font-size="14" font-weight="bold" fill="#333333">Review Project Requirements</text>
  <text x="230" y="735" font-family="Arial" font-size="12" fill="#9A9A9A">8:00 - 9:00 AM</text>
  <text x="570" y="725" font-family="Arial" font-size="12" text-anchor="end" fill="#83CE8B">✓</text>
  
  <!-- Activity 4 (Current) -->
  <rect x="210" y="765" width="380" height="60" rx="10" ry="10" fill="#2A399022" />
  <rect x="210" y="765" width="5" height="60" rx="0" ry="0" fill="#2A3990" />
  <text x="230" y="785" font-family="Arial" font-size="14" font-weight="bold" fill="#333333">Team Strategy Meeting</text>
  <text x="230" y="805" font-family="Arial" font-size="12" fill="#9A9A9A">9:00 - 10:00 AM</text>
  <circle cx="570" cy="785" r="12" fill="#F6F7FB" stroke="#2A3990" stroke-width="2" />
  <rect x="564" y="779" width="12" height="12" fill="#2A3990" />
  
  <!-- Afternoon Header -->
  <rect x="210" y="835" width="380" height="30" rx="15" ry="15" fill="#F6F7FB" />
  <text x="400" y="855" font-family="Arial" font-size="14" font-weight="bold" text-anchor="middle" fill="#9A9A9A">Afternoon</text>
  
  <!-- Activity 5 (Upcoming) -->
  <rect x="210" y="875" width="380" height="60" rx="10" ry="10" fill="#F6F7FB" />
  <rect x="210" y="875" width="5" height="60" rx="0" ry="0" fill="#9A9A9A" />
  <text x="230" y="895" font-family="Arial" font-size="14" font-weight="bold" fill="#333333">Design Sprint</text>
  <text x="230" y="915" font-family="Arial" font-size="12" fill="#9A9A9A">10:30 AM - 12:00 PM</text>
  <circle cx="570" cy="895" r="12" fill="#F6F7FB" stroke="#E0E2E8" stroke-width="2" />
  
  <!-- Activity 6 (Upcoming) -->
  <rect x="210" y="945" width="380" height="60" rx="10" ry="10" fill="#F6F7FB" />
  <rect x="210" y="945" width="5" height="60" rx="0" ry="0" fill="#9A9A9A" />
  <text x="230" y="965" font-family="Arial" font-size="14" font-weight="bold" fill="#333333">Lunch Break</text>
  <text x="230" y="985" font-family="Arial" font-size="12" fill="#9A9A9A">12:00 - 1:00 PM</text>
  <circle cx="570" cy="965" r="12" fill="#F6F7FB" stroke="#E0E2E8" stroke-width="2" />
  
  <!-- Quick Actions -->
  <rect x="190" y="1030" width="420" height="60" rx="15" ry="15" fill="#FFFFFF" stroke="#E0E2E8" stroke-width="2" />
  
  <rect x="210" y="1045" width="120" height="30" rx="15" ry="15" fill="#2A3990" />
  <text x="270" y="1065" font-family="Arial" font-size="12" text-anchor="middle" fill="#FFFFFF">Complete</text>
  
  <rect x="340" y="1045" width="120" height="30" rx="15" ry="15" fill="#F6F7FB" />
  <text x="400" y="1065" font-family="Arial" font-size="12" text-anchor="middle" fill="#2A3990">Reschedule</text>
  
  <rect x="470" y="1045" width="120" height="30" rx="15" ry="15" fill="#F6F7FB" />
  <text x="530" y="1065" font-family="Arial" font-size="12" text-anchor="middle" fill="#2A3990">Add Note</text>
  
  <!-- Side Card: Quick Stats -->
  <g>
    <rect x="580" y="250" width="200" height="180" rx="15" ry="15" fill="#FFFFFF" stroke="#2A3990" stroke-width="2" filter="url(#shadow)" />
    <text x="600" y="280" font-family="Arial" font-size="14" font-weight="bold" fill="#2A3990">Daily Overview</text>
    
    <line x1="600" y1="290" x2="760" y2="290" stroke="#E0E2E8" stroke-width="1" />
    
    <text x="600" y="315" font-family="Arial" font-size="12" fill="#333333">Activities Today:</text>
    <text x="760" y="315" font-family="Arial" font-size="14" font-weight="bold" text-anchor="end" fill="#333333">10</text>
    
    <text x="600" y="345" font-family="Arial" font-size="12" fill="#333333">Habits Due:</text>
    <text x="760" y="345" font-family="Arial" font-size="14" font-weight="bold" text-anchor="end" fill="#333333">6</text>
    
    <text x="600" y="375" font-family="Arial" font-size="12" fill="#333333">Focus Blocks:</text>
    <text x="760" y="375" font-family="Arial" font-size="14" font-weight="bold" text-anchor="end" fill="#333333">3</text>
    
    <text x="600" y="405" font-family="Arial" font-size="12" fill="#333333">Free Time:</text>
    <text x="760" y="405" font-family="Arial" font-size="14" font-weight="bold" text-anchor="end" fill="#333333">2h 15m</text>
  </g>
  
  <!-- Side Card: Next Up Preview -->
  <g>
    <rect x="580" y="440" width="200" height="180" rx="15" ry="15" fill="#FFFFFF" stroke="#F5A623" stroke-width="2" filter="url(#shadow)" />
    <text x="600" y="470" font-family="Arial" font-size="14" font-weight="bold" fill="#F5A623">Next Up</text>
    
    <line x1="600" y1="480" x2="760" y2="480" stroke="#E0E2E8" stroke-width="1" />
    
    <rect x="600" y="495" width="160" height="70" rx="10" ry="10" fill="#F6F7FB" />
    <text x="610" y="515" font-family="Arial" font-size="14" font-weight="bold" fill="#333333">Design Sprint</text>
    <text x="610" y="535" font-family="Arial" font-size="12" fill="#9A9A9A">10:30 AM - 12:00 PM</text>
    <text x="610" y="555" font-family="Arial" font-size="12" fill="#9A9A9A">Conference Room B</text>
    
    <text x="600" y="585" font-family="Arial" font-size="12" fill="#333333">
      <tspan x="600" y="585">Starting in: 1h 15m</tspan>
    </text>
    
    <rect x="600" y="600" width="160" height="30" rx="15" ry="15" fill="#F5A623" />
    <text x="680" y="620" font-family="Arial" font-size="12" text-anchor="middle" fill="#FFFFFF">Prepare Now</text>
  </g>
  
  <!-- Side Card: Daily Notes -->
  <g>
    <rect x="580" y="630" width="200" height="200" rx="15" ry="15" fill="#FFFFFF" stroke="#2A3990" stroke-width="2" filter="url(#shadow)" />
    <text x="600" y="660" font-family="Arial" font-size="14" font-weight="bold" fill="#2A3990">Daily Notes</text>
    
    <line x1="600" y1="670" x2="760" y2="670" stroke="#E0E2E8" stroke-width="1" />
    
    <rect x="600" y="685" width="160" height="100" rx="5" ry="5" fill="#F6F7FB" />
    <text x="610" y="705" font-family="Arial" font-size="12" fill="#333333">
      <tspan x="610" y="705">Remember to follow up with</tspan>
      <tspan x="610" y="725">Mark about the design assets</tspan>
      <tspan x="610" y="745">before the 2pm deadline.</tspan>
    </text>
    
    <rect x="600" y="795" width="160" height="30" rx="15" ry="15" fill="#F6F7FB" />
    <text x="680" y="815" font-family="Arial" font-size="12" text-anchor="middle" fill="#2A3990">Edit Notes</text>
  </g>
  
  <!-- Side Card: Weather Impact -->
  <g>
    <rect x="580" y="840" width="200" height="130" rx="15" ry="15" fill="#FFFFFF" stroke="#83CE8B" stroke-width="2" filter="url(#shadow)" />
    <text x="600" y="870" font-family="Arial" font-size="14" font-weight="bold" fill="#83CE8B">Today's Weather</text>
    
    <line x1="600" y1="880" x2="760" y2="880" stroke="#E0E2E8" stroke-width="1" />
    
    <text x="640" y="910" font-family="Arial" font-size="28" text-anchor="middle" fill="#333333">☀️</text>
    <text x="640" y="940" font-family="Arial" font-size="14" text-anchor="middle" fill="#333333">75°F</text>
    
    <line x1="680" y1="890" x2="680" y2="940" stroke="#E0E2E8" stroke-width="1" />
    
    <text x="690" y="905" font-family="Arial" font-size="12" fill="#333333">
      <tspan x="690" y="905">Perfect day for your</tspan>
      <tspan x="690" y="925">scheduled walk at</tspan>
      <tspan x="690" y="945">lunch time!</tspan>
    </text>
  </g>
  
  <!-- Caption -->
  <text x="400" y="1150" font-family="Arial" font-size="16" text-anchor="middle" fill="#333333">
    <tspan x="400" y="1150">Project Kage - Daily Routine View</tspan>
    <tspan x="400" y="1175">Feature: Focused Day Visualization</tspan>
  </text>
  
  <!-- Drop shadow for panels -->
  <defs>
    <filter id="shadow" x="-20%" y="-20%" width="140%" height="140%">
      <feDropShadow dx="0" dy="4" stdDeviation="4" flood-color="#0003" />
    </filter>
  </defs>
</svg>