<?xml version="1.0" encoding="UTF-8"?>
<svg viewBox="0 0 800 1200" xmlns="http://www.w3.org/2000/svg">
  <!-- Background -->
  <rect width="800" height="1200" fill="#F6F7FB" />
  
  <!-- Phone Frame -->
  <rect x="150" y="100" width="500" height="1000" rx="40" ry="40" fill="#FFFFFF" stroke="#E0E2E8" stroke-width="2" />
  
  <!-- Status Bar -->
  <rect x="150" y="100" width="500" height="50" rx="40" ry="40" fill="#FFFFFF" />
  <text x="430" y="132" font-family="Arial" font-size="16" text-anchor="middle" fill="#333333">8:15 PM</text>
  
  <!-- Navigation Bar at bottom -->
  <rect x="150" y="1050" width="500" height="50" rx="40" ry="40" fill="#FFFFFF" />
  
  <!-- App Header -->
  <rect x="150" y="150" width="500" height="70" fill="#2A3990" /> <!-- Deep indigo color -->
  <text x="400" y="195" font-family="Arial" font-size="24" font-weight="bold" text-anchor="middle" fill="#FFFFFF">Journal Prompts</text>
  
  <!-- Main Container -->
  <rect x="170" y="230" width="460" height="810" fill="#F6F7FB" rx="15" ry="15" />
  
  <!-- Today's Prompt Card -->
  <rect x="190" y="250" width="420" height="180" rx="15" ry="15" fill="#FFFFFF" stroke="#2A3990" stroke-width="2" />
  
  <text x="210" y="280" font-family="Arial" font-size="16" font-weight="bold" fill="#2A3990">Today's Reflection</text>
  <text x="210" y="300" font-family="Arial" font-size="12" fill="#9A9A9A">Monday, May 9, 2025</text>
  
  <text x="210" y="335" font-family="Arial" font-size="18" fill="#333333">What was the most meaningful moment of your day, and why did it resonate with you?</text>
  
  <rect x="210" y="375" width="180" height="40" rx="20" ry="20" fill="#2A3990" />
  <text x="300" y="400" font-family="Arial" font-size="14" text-anchor="middle" fill="#FFFFFF">Start Writing</text>
  
  <rect x="400" y="375" width="180" height="40" rx="20" ry="20" fill="#F6F7FB" />
  <text x="490" y="400" font-family="Arial" font-size="14" text-anchor="middle" fill="#2A3990">Try Another</text>
  
  <!-- Prompt Categories -->
  <rect x="190" y="440" width="420" height="60" rx="15" ry="15" fill="#FFFFFF" stroke="#E0E2E8" stroke-width="2" />
  
  <text x="210" y="478" font-family="Arial" font-size="16" font-weight="bold" fill="#2A3990">Browse Categories</text>
  
  <!-- Category Chips -->
  <rect x="340" y="465" width="100" height="30" rx="15" ry="15" fill="#2A3990" />
  <text x="390" y="485" font-family="Arial" font-size="12" text-anchor="middle" fill="#FFFFFF">All</text>
  
  <rect x="450" y="465" width="30" height="30" rx="15" ry="15" fill="#F6F7FB" />
  <text x="465" y="485" font-family="Arial" font-size="14" text-anchor="middle" fill="#9A9A9A">→</text>
  
  <!-- Prompt Library Section -->
  <rect x="190" y="510" width="420" height="480" rx="15" ry="15" fill="#FFFFFF" stroke="#E0E2E8" stroke-width="2" />
  
  <text x="210" y="540" font-family="Arial" font-size="16" font-weight="bold" fill="#2A3990">Prompt Library</text>
  
  <!-- Search Bar -->
  <rect x="370" y="525" width="220" height="30" rx="15" ry="15" fill="#F6F7FB" />
  <text x="390" y="545" font-family="Arial" font-size="12" fill="#9A9A9A">Search prompts...</text>
  <text x="570" y="545" font-family="Arial" font-size="12" text-anchor="end" fill="#9A9A9A">🔍</text>
  
  <!-- Gratitude Category -->
  <rect x="210" y="565" width="380" height="30" rx="5" ry="5" fill="#F6F7FB" />
  <text x="230" y="585" font-family="Arial" font-size="14" font-weight="bold" fill="#2A3990">Gratitude</text>
  <text x="570" y="585" font-family="Arial" font-size="14" text-anchor="end" fill="#9A9A9A">▼</text>
  
  <!-- Gratitude Prompt 1 -->
  <rect x="210" y="605" width="380" height="70" rx="10" ry="10" fill="#FFFFFF" stroke="#F6F7FB" stroke-width="2" />
  <text x="230" y="630" font-family="Arial" font-size="14" fill="#333333">What are three things you're grateful for today that you often take for granted?</text>
  <text x="230" y="655" font-family="Arial" font-size="12" fill="#9A9A9A">Depth: Medium • Duration: 5-10 min</text>
  <circle cx="570" cy="630" r="15" fill="#F6F7FB" />
  <text x="570" y="634" font-family="Arial" font-size="14" text-anchor="middle" fill="#2A3990">+</text>
  
  <!-- Gratitude Prompt 2 -->
  <rect x="210" y="685" width="380" height="70" rx="10" ry="10" fill="#FFFFFF" stroke="#F6F7FB" stroke-width="2" />
  <text x="230" y="710" font-family="Arial" font-size="14" fill="#333333">Who made a positive impact on your life recently, and how did they help you?</text>
  <text x="230" y="735" font-family="Arial" font-size="12" fill="#9A9A9A">Depth: Deep • Duration: 10-15 min</text>
  <circle cx="570" cy="710" r="15" fill="#F6F7FB" />
  <text x="570" y="714" font-family="Arial" font-size="14" text-anchor="middle" fill="#2A3990">+</text>
  
  <!-- Goal Reflection Category -->
  <rect x="210" y="765" width="380" height="30" rx="5" ry="5" fill="#F6F7FB" />
  <text x="230" y="785" font-family="Arial" font-size="14" font-weight="bold" fill="#2A3990">Goal Reflection</text>
  <text x="570" y="785" font-family="Arial" font-size="14" text-anchor="end" fill="#9A9A9A">▼</text>
  
  <!-- Goal Reflection Prompt 1 -->
  <rect x="210" y="805" width="380" height="70" rx="10" ry="10" fill="#FFFFFF" stroke="#F6F7FB" stroke-width="2" />
  <text x="230" y="830" font-family="Arial" font-size="14" fill="#333333">What obstacles are currently blocking your progress toward your main goal?</text>
  <text x="230" y="855" font-family="Arial" font-size="12" fill="#9A9A9A">Depth: Medium • Duration: 10 min</text>
  <circle cx="570" cy="830" r="15" fill="#F6F7FB" />
  <text x="570" y="834" font-family="Arial" font-size="14" text-anchor="middle" fill="#2A3990">+</text>
  
  <!-- Goal Reflection Prompt 2 -->
  <rect x="210" y="885" width="380" height="70" rx="10" ry="10" fill="#FFFFFF" stroke="#F6F7FB" stroke-width="2" />
  <text x="230" y="910" font-family="Arial" font-size="14" fill="#333333">What small win did you achieve today that moves you closer to your larger goals?</text>
  <text x="230" y="935" font-family="Arial" font-size="12" fill="#9A9A9A">Depth: Light • Duration: 5 min</text>
  <circle cx="570" cy="910" r="15" fill="#F6F7FB" />
  <text x="570" y="914" font-family="Arial" font-size="14" text-anchor="middle" fill="#2A3990">+</text>
  
  <!-- Create Custom Prompt Button -->
  <rect x="190" y="1000" width="420" height="50" rx="25" ry="25" fill="#FFFFFF" stroke="#2A3990" stroke-width="2" />
  <text x="400" y="1030" font-family="Arial" font-size="16" font-weight="bold" text-anchor="middle" fill="#2A3990">Create Custom Prompt</text>
  
  <!-- Side Card: Category Listing -->
  <g>
    <rect x="580" y="250" width="200" height="240" rx="15" ry="15" fill="#FFFFFF" stroke="#2A3990" stroke-width="2" filter="url(#shadow)" />
    <text x="600" y="280" font-family="Arial" font-size="14" font-weight="bold" fill="#2A3990">Prompt Categories</text>
    
    <line x1="600" y1="290" x2="760" y2="290" stroke="#E0E2E8" stroke-width="1" />
    
    <!-- Category 1 -->
    <rect x="600" y="305" width="160" height="30" rx="5" ry="5" fill="#2A399022" />
    <text x="615" y="325" font-family="Arial" font-size="12" fill="#333333">All Categories</text>
    <text x="740" y="325" font-family="Arial" font-size="12" text-anchor="end" fill="#9A9A9A">56</text>
    
    <!-- Category 2 -->
    <rect x="600" y="345" width="160" height="30" rx="5" ry="5" fill="#F6F7FB" />
    <text x="615" y="365" font-family="Arial" font-size="12" fill="#333333">Gratitude</text>
    <text x="740" y="365" font-family="Arial" font-size="12" text-anchor="end" fill="#9A9A9A">12</text>
    
    <!-- Category 3 -->
    <rect x="600" y="385" width="160" height="30" rx="5" ry="5" fill="#F6F7FB" />
    <text x="615" y="405" font-family="Arial" font-size="12" fill="#333333">Goal Reflection</text>
    <text x="740" y="405" font-family="Arial" font-size="12" text-anchor="end" fill="#9A9A9A">8</text>
    
    <!-- Category 4 -->
    <rect x="600" y="425" width="160" height="30" rx="5" ry="5" fill="#F6F7FB" />
    <text x="615" y="445" font-family="Arial" font-size="12" fill="#333333">Habit Assessment</text>
    <text x="740" y="445" font-family="Arial" font-size="12" text-anchor="end" fill="#9A9A9A">10</text>
    
    <!-- Category 5 -->
    <rect x="600" y="465" width="160" height="30" rx="5" ry="5" fill="#F6F7FB" />
    <text x="615" y="485" font-family="Arial" font-size="12" fill="#333333">Personal Growth</text>
    <text x="740" y="485" font-family="Arial" font-size="12" text-anchor="end" fill="#9A9A9A">15</text>
    
    <!-- Category 6 -->
    <rect x="600" y="505" width="160" height="30" rx="5" ry="5" fill="#F6F7FB" />
    <text x="615" y="525" font-family="Arial" font-size="12" fill="#333333">Emotional Awareness</text>
    <text x="740" y="525" font-family="Arial" font-size="12" text-anchor="end" fill="#9A9A9A">11</text>
  </g>
  
  <!-- Side Card: Prompt Depth Levels -->
  <g>
    <rect x="580" y="500" width="200" height="180" rx="15" ry="15" fill="#FFFFFF" stroke="#F5A623" stroke-width="2" filter="url(#shadow)" />
    <text x="600" y="530" font-family="Arial" font-size="14" font-weight="bold" fill="#F5A623">Reflection Depth</text>
    
    <line x1="600" y1="540" x2="760" y2="540" stroke="#E0E2E8" stroke-width="1" />
    
    <text x="600" y="560" font-family="Arial" font-size="12" fill="#333333">
      <tspan x="600" y="560">Choose prompts based on how</tspan>
      <tspan x="600" y="580">much time you have:</tspan>
    </text>
    
    <!-- Depth 1 -->
    <rect x="600" y="595" width="160" height="30" rx="5" ry="5" fill="#F6F7FB" />
    <circle cx="615" cy="610" r="8" fill="#83CE8B" />
    <text x="630" y="613" font-family="Arial" font-size="12" fill="#333333">Light (3-5 min)</text>
    
    <!-- Depth 2 -->
    <rect x="600" y="635" width="160" height="30" rx="5" ry="5" fill="#F6F7FB" />
    <circle cx="615" cy="650" r="8" fill="#F5A623" />
    <text x="630" y="653" font-family="Arial" font-size="12" fill="#333333">Medium (5-10 min)</text>
    
    <!-- Depth 3 -->
    <rect x="600" y="675" width="160" height="30" rx="5" ry="5" fill="#F6F7FB" />
    <circle cx="615" cy="690" r="8" fill="#E54D42" />
    <text x="630" y="693" font-family="Arial" font-size="12" fill="#333333">Deep (10-15+ min)</text>
  </g>
  
  <!-- Side Card: Prompt Effectiveness -->
  <g>
    <rect x="580" y="690" width="200" height="180" rx="15" ry="15" fill="#FFFFFF" stroke="#2A3990" stroke-width="2" filter="url(#shadow)" />
    <text x="600" y="720" font-family="Arial" font-size="14" font-weight="bold" fill="#2A3990">Prompt Impact</text>
    
    <line x1="600" y1="730" x2="760" y2="730" stroke="#E0E2E8" stroke-width="1" />
    
    <text x="600" y="750" font-family="Arial" font-size="12" fill="#333333">
      <tspan x="600" y="750">Your most valuable prompts</tspan>
      <tspan x="600" y="770">based on your responses:</tspan>
    </text>
    
    <!-- Impact 1 -->
    <rect x="600" y="785" width="160" height="35" rx="5" ry="5" fill="#F6F7FB" />
    <text x="615" y="800" font-family="Arial" font-size="12" fill="#333333">Obstacle Reflection</text>
    <text x="615" y="815" font-family="Arial" font-size="10" fill="#9A9A9A">Used 8 times • Avg. length: 280 words</text>
    
    <!-- Impact 2 -->
    <rect x="600" y="830" width="160" height="35" rx="5" ry="5" fill="#F6F7FB" />
    <text x="615" y="845" font-family="Arial" font-size="12" fill="#333333">Daily Gratitude</text>
    <text x="615" y="860" font-family="Arial" font-size="10" fill="#9A9A9A">Used 12 times • Avg. length: 150 words</text>
  </g>
  
  <!-- Prompt Sequence Indicator -->
  <g>
    <rect x="350" y="173" width="100" height="24" rx="12" ry="12" fill="#FFFFFF" opacity="0.8" />
    <circle cx="380" cy="185" r="6" fill="#2A3990" />
    <circle cx="400" cy="185" r="4" fill="#E0E2E8" />
    <circle cx="420" cy="185" r="4" fill="#E0E2E8" />
  </g>
  
  <!-- Caption -->
  <text x="400" y="1150" font-family="Arial" font-size="16" text-anchor="middle" fill="#333333">
    <tspan x="400" y="1150">Project Kage - Guided Journaling Prompts</tspan>
    <tspan x="400" y="1175">Feature: Structured Reflection Starters</tspan>
  </text>
  
  <!-- Drop shadow for panels -->
  <defs>
    <filter id="shadow" x="-20%" y="-20%" width="140%" height="140%">
      <feDropShadow dx="0" dy="4" stdDeviation="4" flood-color="#0003" />
    </filter>
  </defs>
</svg>