<?xml version="1.0" encoding="UTF-8"?>
<svg viewBox="0 0 800 1200" xmlns="http://www.w3.org/2000/svg">
  <!-- Background -->
  <rect width="800" height="1200" fill="#F6F7FB" />
  
  <!-- Phone Frame -->
  <rect x="150" y="100" width="500" height="1000" rx="40" ry="40" fill="#FFFFFF" stroke="#E0E2E8" stroke-width="2" />
  
  <!-- Status Bar -->
  <rect x="150" y="100" width="500" height="50" rx="40" ry="40" fill="#FFFFFF" />
  <text x="430" y="132" font-family="Arial" font-size="16" text-anchor="middle" fill="#333333">3:20 PM</text>
  
  <!-- Navigation Bar at bottom -->
  <rect x="150" y="1050" width="500" height="50" rx="40" ry="40" fill="#FFFFFF" />
  
  <!-- App Header -->
  <rect x="150" y="150" width="500" height="70" fill="#2A3990" /> <!-- Deep indigo color -->
  <text x="400" y="195" font-family="Arial" font-size="24" font-weight="bold" text-anchor="middle" fill="#FFFFFF">Progress Reports</text>
  
  <!-- Main Container -->
  <rect x="170" y="230" width="460" height="810" fill="#F6F7FB" rx="15" ry="15" />
  
  <!-- Date Range Selector -->
  <rect x="190" y="250" width="420" height="60" rx="15" ry="15" fill="#FFFFFF" stroke="#E0E2E8" stroke-width="2" />
  
  <text x="210" y="280" font-family="Arial" font-size="14" font-weight="bold" fill="#2A3990">Date Range:</text>
  
  <rect x="300" y="262.5" width="120" height="35" rx="17.5" ry="17.5" fill="#F6F7FB" />
  <text x="360" y="285" font-family="Arial" font-size="12" text-anchor="middle" fill="#333333">Last 7 Days</text>
  
  <rect x="430" y="262.5" width="120" height="35" rx="17.5" ry="17.5" fill="#2A3990" />
  <text x="490" y="285" font-family="Arial" font-size="12" font-weight="bold" text-anchor="middle" fill="#FFFFFF">Last 30 Days</text>
  
  <rect x="560" y="262.5" width="120" height="35" rx="17.5" ry="17.5" fill="#F6F7FB" />
  <text x="620" y="285" font-family="Arial" font-size="12" text-anchor="middle" fill="#333333">Custom</text>
  
  <!-- Overall Progress Card -->
  <rect x="190" y="320" width="420" height="210" rx="15" ry="15" fill="#FFFFFF" stroke="#E0E2E8" stroke-width="2" />
  
  <text x="210" y="350" font-family="Arial" font-size="16" font-weight="bold" fill="#2A3990">Overall Progress</text>
  <text x="580" y="350" font-family="Arial" font-size="12" text-anchor="end" fill="#9A9A9A">vs. Previous Period</text>
  
  <!-- Key Metrics -->
  <rect x="210" y="365" width="125" height="70" rx="10" ry="10" fill="#F6F7FB" />
  <text x="272.5" y="395" font-family="Arial" font-size="20" font-weight="bold" text-anchor="middle" fill="#2A3990">83%</text>
  <text x="272.5" y="420" font-family="Arial" font-size="12" text-anchor="middle" fill="#9A9A9A">Completion Rate</text>
  <text x="272.5" y="440" font-family="Arial" font-size="12" text-anchor="middle" fill="#83CE8B">↑ 7%</text>
  
  <rect x="345" y="365" width="125" height="70" rx="10" ry="10" fill="#F6F7FB" />
  <text x="407.5" y="395" font-family="Arial" font-size="20" font-weight="bold" text-anchor="middle" fill="#2A3990">24</text>
  <text x="407.5" y="420" font-family="Arial" font-size="12" text-anchor="middle" fill="#9A9A9A">Longest Streak</text>
  <text x="407.5" y="440" font-family="Arial" font-size="12" text-anchor="middle" fill="#83CE8B">↑ 8 days</text>
  
  <rect x="480" y="365" width="125" height="70" rx="10" ry="10" fill="#F6F7FB" />
  <text x="542.5" y="395" font-family="Arial" font-size="20" font-weight="bold" text-anchor="middle" fill="#2A3990">68%</text>
  <text x="542.5" y="420" font-family="Arial" font-size="12" text-anchor="middle" fill="#9A9A9A">Goal Progress</text>
  <text x="542.5" y="440" font-family="Arial" font-size="12" text-anchor="middle" fill="#83CE8B">↑ 12%</text>
  
  <!-- Trend Chart -->
  <rect x="210" y="445" width="380" height="70" rx="5" ry="5" fill="#F6F7FB" />
  
  <!-- Simplified trend line visualization -->
  <polyline points="220,495 250,480 280,485 310,465 340,470 370,450 400,445 430,460 460,440 490,425 520,430 550,415 580,405" 
          stroke="#2A3990" stroke-width="2" fill="none" />
  
  <line x1="220" y1="495" x2="580" y2="495" stroke="#E0E2E8" stroke-width="1" />
  <text x="230" y="510" font-family="Arial" font-size="8" fill="#9A9A9A">Apr 9</text>
  <text x="580" y="510" font-family="Arial" font-size="8" text-anchor="end" fill="#9A9A9A">May 9</text>
  
  <!-- Habit Performance Card -->
  <rect x="190" y="540" width="420" height="280" rx="15" ry="15" fill="#FFFFFF" stroke="#E0E2E8" stroke-width="2" />
  
  <text x="210" y="570" font-family="Arial" font-size="16" font-weight="bold" fill="#2A3990">Habit Performance</text>
  <text x="580" y="570" font-family="Arial" font-size="12" text-anchor="end" fill="#9A9A9A">Sort by: Completion Rate ▼</text>
  
  <!-- Habit 1 -->
  <rect x="210" y="585" width="380" height="60" rx="5" ry="5" fill="#F6F7FB" />
  <text x="230" y="610" font-family="Arial" font-size="14" font-weight="bold" fill="#333333">Morning Meditation</text>
  <text x="230" y="630" font-family="Arial" font-size="12" fill="#9A9A9A">10 minutes daily</text>
  
  <!-- Progress bar -->
  <rect x="370" y="605" width="180" height="10" rx="5" ry="5" fill="#F6F7FB" />
  <rect x="370" y="605" width="162" height="10" rx="5" ry="5" fill="#83CE8B" />
  <text x="560" y="625" font-family="Arial" font-size="12" text-anchor="end" fill="#2A3990">90% • 27/30 days</text>
  
  <!-- Habit 2 -->
  <rect x="210" y="655" width="380" height="60" rx="5" ry="5" fill="#F6F7FB" />
  <text x="230" y="680" font-family="Arial" font-size="14" font-weight="bold" fill="#333333">Evening Journaling</text>
  <text x="230" y="700" font-family="Arial" font-size="12" fill="#9A9A9A">15 minutes daily</text>
  
  <!-- Progress bar -->
  <rect x="370" y="675" width="180" height="10" rx="5" ry="5" fill="#F6F7FB" />
  <rect x="370" y="675" width="144" height="10" rx="5" ry="5" fill="#83CE8B" />
  <text x="560" y="695" font-family="Arial" font-size="12" text-anchor="end" fill="#2A3990">80% • 24/30 days</text>
  
  <!-- Habit 3 -->
  <rect x="210" y="725" width="380" height="60" rx="5" ry="5" fill="#F6F7FB" />
  <text x="230" y="750" font-family="Arial" font-size="14" font-weight="bold" fill="#333333">Digital Detox</text>
  <text x="230" y="770" font-family="Arial" font-size="12" fill="#9A9A9A">60 minutes daily</text>
  
  <!-- Progress bar -->
  <rect x="370" y="745" width="180" height="10" rx="5" ry="5" fill="#F6F7FB" />
  <rect x="370" y="745" width="126" height="10" rx="5" ry="5" fill="#F5A623" />
  <text x="560" y="765" font-family="Arial" font-size="12" text-anchor="end" fill="#2A3990">70% • 21/30 days</text>
  
  <!-- View More Button -->
  <rect x="375" y="795" width="50" height="15" rx="7.5" ry="7.5" fill="#F6F7FB" />
  <text x="400" y="806" font-family="Arial" font-size="10" text-anchor="middle" fill="#2A3990">View All</text>
  
  <!-- Goal Insights Card -->
  <rect x="190" y="830" width="420" height="190" rx="15" ry="15" fill="#FFFFFF" stroke="#E0E2E8" stroke-width="2" />
  
  <text x="210" y="860" font-family="Arial" font-size="16" font-weight="bold" fill="#2A3990">Goal Insights</text>
  
  <!-- Goal Progress Chart -->
  <rect x="210" y="870" width="180" height="120" rx="5" ry="5" fill="#F6F7FB" />
  
  <!-- Donut chart visualization -->
  <circle cx="300" cy="930" r="45" fill="#F6F7FB" />
  <path d="M300,885 A45,45 0 1,1 265,900" stroke="#2A3990" stroke-width="15" fill="none" stroke-linecap="round" />
  <path d="M265,900 A45,45 0 0,1 300,885" stroke="#E0E2E8" stroke-width="15" fill="none" stroke-linecap="round" />
  <text x="300" y="925" font-family="Arial" font-size="18" font-weight="bold" text-anchor="middle" fill="#2A3990">68%</text>
  <text x="300" y="945" font-family="Arial" font-size="12" text-anchor="middle" fill="#9A9A9A">Complete</text>
  
  <!-- Goal Insights Text -->
  <rect x="400" y="870" width="190" height="120" rx="5" ry="5" fill="#2A399022" />
  <text x="410" y="890" font-family="Arial" font-size="14" font-weight="bold" fill="#2A3990">Key Insights:</text>
  <text x="410" y="915" font-family="Arial" font-size="12" fill="#333333">• Morning habits have highest</text>
  <text x="415" y="935" font-family="Arial" font-size="12" fill="#333333">completion rate (90%)</text>
  <text x="410" y="955" font-family="Arial" font-size="12" fill="#333333">• Digital detox improving weekly</text>
  <text x="410" y="975" font-family="Arial" font-size="12" fill="#333333">• Exercise frequency below target</text>
  
  <!-- Export Button -->
  <rect x="320" y="1000" width="160" height="40" rx="20" ry="20" fill="#2A3990" />
  <text x="400" y="1025" font-family="Arial" font-size="14" font-weight="bold" text-anchor="middle" fill="#FFFFFF">Export Report</text>
  
  <!-- Side Card: Visualization Options -->
  <g>
    <rect x="580" y="320" width="200" height="210" rx="15" ry="15" fill="#FFFFFF" stroke="#2A3990" stroke-width="2" filter="url(#shadow)" />
    <text x="600" y="350" font-family="Arial" font-size="14" font-weight="bold" fill="#2A3990">Visualization Options</text>
    
    <line x1="600" y1="360" x2="760" y2="360" stroke="#E0E2E8" stroke-width="1" />
    
    <text x="600" y="380" font-family="Arial" font-size="12" fill="#333333">
      <tspan x="600" y="380">Change how data is displayed:</tspan>
    </text>
    
    <!-- Option 1 -->
    <rect x="600" y="395" width="160" height="30" rx="5" ry="5" fill="#2A3990" />
    <text x="615" y="415" font-family="Arial" font-size="12" fill="#FFFFFF">Line Chart</text>
    <circle cx="740" cy="410" r="8" fill="#FFFFFF" />
    <circle cx="740" cy="410" r="4" fill="#2A3990" />
    
    <!-- Option 2 -->
    <rect x="600" y="435" width="160" height="30" rx="5" ry="5" fill="#F6F7FB" />
    <text x="615" y="455" font-family="Arial" font-size="12" fill="#333333">Bar Chart</text>
    <circle cx="740" cy="450" r="8" fill="#FFFFFF" stroke="#2A3990" stroke-width="1" />
    
    <!-- Option 3 -->
    <rect x="600" y="475" width="160" height="30" rx="5" ry="5" fill="#F6F7FB" />
    <text x="615" y="495" font-family="Arial" font-size="12" fill="#333333">Calendar View</text>
    <circle cx="740" cy="490" r="8" fill="#FFFFFF" stroke="#2A3990" stroke-width="1" />
    
    <!-- Apply Button -->
    <rect x="600" y="515" width="160" height="30" rx="15" ry="15" fill="#2A3990" />
    <text x="680" y="535" font-family="Arial" font-size="12" font-weight="bold" text-anchor="middle" fill="#FFFFFF">Apply</text>
  </g>
  
  <!-- Side Card: Compare Periods -->
  <g>
    <rect x="580" y="540" width="200" height="220" rx="15" ry="15" fill="#FFFFFF" stroke="#F5A623" stroke-width="2" filter="url(#shadow)" />
    <text x="600" y="570" font-family="Arial" font-size="14" font-weight="bold" fill="#F5A623">Compare Periods</text>
    
    <line x1="600" y1="580" x2="760" y2="580" stroke="#E0E2E8" stroke-width="1" />
    
    <text x="600" y="600" font-family="Arial" font-size="12" fill="#333333">
      <tspan x="600" y="600">Choose periods to compare:</tspan>
    </text>
    
    <!-- Period 1 -->
    <rect x="600" y="615" width="160" height="40" rx="5" ry="5" fill="#F6F7FB" />
    <text x="615" y="635" font-family="Arial" font-size="12" font-weight="bold" fill="#333333">Current:</text>
    <text x="680" y="635" font-family="Arial" font-size="12" fill="#F5A623">Apr 9 - May 9</text>
    <text x="615" y="650" font-family="Arial" font-size="10" fill="#9A9A9A">Last 30 days</text>
    
    <!-- Period 2 -->
    <rect x="600" y="665" width="160" height="40" rx="5" ry="5" fill="#F6F7FB" />
    <text x="615" y="685" font-family="Arial" font-size="12" font-weight="bold" fill="#333333">Previous:</text>
    <text x="680" y="685" font-family="Arial" font-size="12" fill="#F5A623">Mar 9 - Apr 8</text>
    <text x="615" y="700" font-family="Arial" font-size="10" fill="#9A9A9A">Prior 30 days</text>
    
    <!-- Apply Button -->
    <rect x="600" y="715" width="160" height="30" rx="15" ry="15" fill="#F5A623" />
    <text x="680" y="735" font-family="Arial" font-size="12" font-weight="bold" text-anchor="middle" fill="#FFFFFF">Compare</text>
  </g>
  
  <!-- Side Card: Success Factors -->
  <g>
    <rect x="580" y="770" width="200" height="210" rx="15" ry="15" fill="#FFFFFF" stroke="#2A3990" stroke-width="2" filter="url(#shadow)" />
    <text x="600" y="800" font-family="Arial" font-size="14" font-weight="bold" fill="#2A3990">Success Factors</text>
    
    <line x1="600" y1="810" x2="760" y2="810" stroke="#E0E2E8" stroke-width="1" />
    
    <text x="600" y="830" font-family="Arial" font-size="12" fill="#333333">
      <tspan x="600" y="830">Patterns in your success:</tspan>
    </text>
    
    <!-- Factor 1 -->
    <rect x="600" y="845" width="160" height="40" rx="5" ry="5" fill="#2A399022" />
    <circle cx="615" cy="865" r="10" fill="#83CE8B" />
    <text x="615" y="869" font-family="Arial" font-size="10" text-anchor="middle" fill="#FFFFFF">1</text>
    <text x="635" y="860" font-family="Arial" font-size="12" font-weight="bold" fill="#333333">Morning Routines</text>
    <text x="635" y="875" font-family="Arial" font-size="10" fill="#9A9A9A">90% success before 9 AM</text>
    
    <!-- Factor 2 -->
    <rect x="600" y="895" width="160" height="40" rx="5" ry="5" fill="#2A399022" />
    <circle cx="615" cy="915" r="10" fill="#83CE8B" />
    <text x="615" y="919" font-family="Arial" font-size="10" text-anchor="middle" fill="#FFFFFF">2</text>
    <text x="635" y="910" font-family="Arial" font-size="12" font-weight="bold" fill="#333333">Weather Impact</text>
    <text x="635" y="925" font-family="Arial" font-size="10" fill="#9A9A9A">+15% on sunny days</text>
    
    <!-- Factor 3 -->
    <rect x="600" y="945" width="160" height="40" rx="5" ry="5" fill="#2A399022" />
    <circle cx="615" cy="965" r="10" fill="#83CE8B" />
    <text x="615" y="969" font-family="Arial" font-size="10" text-anchor="middle" fill="#FFFFFF">3</text>
    <text x="635" y="960" font-family="Arial" font-size="12" font-weight="bold" fill="#333333">Monday Effect</text>
    <text x="635" y="975" font-family="Arial" font-size="10" fill="#9A9A9A">Strongest day for habits</text>
  </g>
  
  <!-- New Insight Notification -->
  <g>
    <rect x="270" y="170" width="260" height="80" rx="10" ry="10" fill="#FFFFFF" filter="url(#shadow)" />
    <rect x="270" y="170" width="260" height="25" rx="10" ry="10" fill="#2A3990" />
    <text x="290" y="188" font-family="Arial" font-size="12" fill="#FFFFFF">New Insight</text>
    <text x="510" y="188" font-family="Arial" font-size="12" text-anchor="end" fill="#FFFFFF">now</text>
    <text x="290" y="215" font-family="Arial" font-size="14" font-weight="bold" fill="#333333">Your meditation streak is having a</text>
    <text x="290" y="235" font-family="Arial" font-size="14" font-weight="bold" fill="#333333">positive impact on sleep quality!</text>
  </g>
  
  <!-- AI Assistant Button -->
  <circle cx="400" cy="1075" r="25" fill="#2A3990" filter="url(#shadow)" />
  <text x="400" y="1082" font-family="Arial" font-size="20" font-weight="bold" text-anchor="middle" fill="#FFFFFF">AI</text>
  
  <!-- Caption -->
  <text x="400" y="1150" font-family="Arial" font-size="16" text-anchor="middle" fill="#333333">
    <tspan x="400" y="1150">Project Kage - Progress Reports and Insights</tspan>
    <tspan x="400" y="1175">Feature: Comprehensive Progress Analysis</tspan>
  </text>
  
  <!-- Drop shadow for panels -->
  <defs>
    <filter id="shadow" x="-20%" y="-20%" width="140%" height="140%">
      <feDropShadow dx="0" dy="4" stdDeviation="4" flood-color="#0003" />
    </filter>
  </defs>
</svg>
