<?xml version="1.0" encoding="UTF-8"?>
<svg viewBox="0 0 800 1200" xmlns="http://www.w3.org/2000/svg">
  <!-- Background -->
  <rect width="800" height="1200" fill="#F6F7FB" />
  
  <!-- Phone Frame -->
  <rect x="150" y="100" width="500" height="1000" rx="40" ry="40" fill="#FFFFFF" stroke="#E0E2E8" stroke-width="2" />
  
  <!-- Status Bar -->
  <rect x="150" y="100" width="500" height="50" rx="40" ry="40" fill="#FFFFFF" />
  <text x="430" y="132" font-family="Arial" font-size="16" text-anchor="middle" fill="#333333">7:15 PM</text>
  
  <!-- Navigation Bar at bottom -->
  <rect x="150" y="1050" width="500" height="50" rx="40" ry="40" fill="#FFFFFF" />
  
  <!-- App Header -->
  <rect x="150" y="150" width="500" height="70" fill="#2A3990" /> <!-- Deep indigo color -->
  <text x="400" y="195" font-family="Arial" font-size="24" font-weight="bold" text-anchor="middle" fill="#FFFFFF">Learn</text>
  
  <!-- Search Bar -->
  <rect x="170" y="230" width="460" height="50" rx="25" ry="25" fill="#FFFFFF" stroke="#E0E2E8" stroke-width="1" />
  <text x="210" y="262" font-family="Arial" font-size="14" fill="#9A9A9A">Search articles, videos, and courses...</text>
  <circle cx="600" cy="255" r="15" fill="#F6F7FB" />
  <text x="600" y="260" font-family="Arial" font-size="14" text-anchor="middle" fill="#2A3990">🔍</text>
  
  <!-- Content Categories -->
  <rect x="170" y="290" width="460" height="60" rx="5" ry="5" fill="#FFFFFF" />
  
  <rect x="180" y="300" width="100" height="40" rx="20" ry="20" fill="#2A3990" />
  <text x="230" y="325" font-family="Arial" font-size="14" font-weight="bold" text-anchor="middle" fill="#FFFFFF">All</text>
  
  <rect x="290" y="300" width="100" height="40" rx="20" ry="20" fill="#F6F7FB" />
  <text x="340" y="325" font-family="Arial" font-size="14" font-weight="bold" text-anchor="middle" fill="#9A9A9A">Habits</text>
  
  <rect x="400" y="300" width="100" height="40" rx="20" ry="20" fill="#F6F7FB" />
  <text x="450" y="325" font-family="Arial" font-size="14" font-weight="bold" text-anchor="middle" fill="#9A9A9A">DOSE</text>
  
  <rect x="510" y="300" width="100" height="40" rx="20" ry="20" fill="#F6F7FB" />
  <text x="560" y="325" font-family="Arial" font-size="14" font-weight="bold" text-anchor="middle" fill="#9A9A9A">Goals</text>
  
  <!-- Main Container -->
  <rect x="170" y="360" width="460" height="680" fill="#F6F7FB" rx="15" ry="15" />
  
  <!-- Featured Content -->
  <rect x="190" y="380" width="420" height="200" rx="15" ry="15" fill="#FFFFFF" stroke="#E0E2E8" stroke-width="2" />
  
  <text x="210" y="410" font-family="Arial" font-size="16" font-weight="bold" fill="#333333">Featured Content</text>
  
  <!-- Featured Article -->
  <rect x="210" y="420" width="380" height="150" rx="10" ry="10" fill="#F6F7FB" />
  
  <!-- Featured Image -->
  <rect x="210" y="420" width="380" height="100" rx="10" ry="10" fill="#2A399033" />
  <text x="400" y="475" font-family="Arial" font-size="40" font-weight="bold" text-anchor="middle" fill="#2A399066">DOSE</text>
  
  <!-- Featured Text -->
  <rect x="210" y="520" width="380" height="50" rx="0" ry="0" fill="#F6F7FB" />
  <text x="230" y="540" font-family="Arial" font-size="14" font-weight="bold" fill="#333333">The Science of DOSE: How Neurochemicals Shape Habits</text>
  <text x="230" y="560" font-family="Arial" font-size="12" fill="#9A9A9A">5 min read • Basic</text>
  
  <!-- Popular Mini-Courses -->
  <rect x="190" y="590" width="420" height="220" rx="15" ry="15" fill="#FFFFFF" stroke="#E0E2E8" stroke-width="2" />
  
  <text x="210" y="620" font-family="Arial" font-size="16" font-weight="bold" fill="#333333">Popular Mini-Courses</text>
  
  <!-- Course 1 -->
  <rect x="210" y="630" width="190" height="170" rx="10" ry="10" fill="#F6F7FB" />
  
  <!-- Course 1 Image -->
  <rect x="210" y="630" width="190" height="100" rx="10" ry="10" fill="#5BC0EB33" />
  <text x="305" y="685" font-family="Arial" font-size="24" font-weight="bold" text-anchor="middle" fill="#5BC0EB">HABITS</text>
  
  <!-- Course 1 Text -->
  <rect x="210" y="730" width="190" height="70" rx="0" ry="0" fill="#F6F7FB" />
  <text x="220" y="750" font-family="Arial" font-size="14" font-weight="bold" fill="#333333">Habit Stacking 101</text>
  <text x="220" y="770" font-family="Arial" font-size="12" fill="#9A9A9A">4 lessons • 20 min</text>
  <rect x="220" y="780" width="80" height="15" rx="7.5" ry="7.5" fill="#F6F7FB" stroke="#2A3990" stroke-width="1" />
  <text x="260" y="792" font-family="Arial" font-size="10" text-anchor="middle" fill="#2A3990">Beginner</text>
  
  <!-- Course 2 -->
  <rect x="410" y="630" width="190" height="170" rx="10" ry="10" fill="#F6F7FB" />
  
  <!-- Course 2 Image -->
  <rect x="410" y="630" width="190" height="100" rx="10" ry="10" fill="#83CE8B33" />
  <text x="505" y="685" font-family="Arial" font-size="24" font-weight="bold" text-anchor="middle" fill="#83CE8B">FOCUS</text>
  
  <!-- Course 2 Text -->
  <rect x="410" y="730" width="190" height="70" rx="0" ry="0" fill="#F6F7FB" />
  <text x="420" y="750" font-family="Arial" font-size="14" font-weight="bold" fill="#333333">Deep Work Mastery</text>
  <text x="420" y="770" font-family="Arial" font-size="12" fill="#9A9A9A">5 lessons • 35 min</text>
  <rect x="420" y="780" width="100" height="15" rx="7.5" ry="7.5" fill="#F6F7FB" stroke="#2A3990" stroke-width="1" />
  <text x="470" y="792" font-family="Arial" font-size="10" text-anchor="middle" fill="#2A3990">Intermediate</text>
  
  <!-- Latest Articles -->
  <rect x="190" y="820" width="420" height="210" rx="15" ry="15" fill="#FFFFFF" stroke="#E0E2E8" stroke-width="2" />
  
  <text x="210" y="850" font-family="Arial" font-size="16" font-weight="bold" fill="#333333">Latest Articles</text>
  
  <!-- Article 1 -->
  <rect x="210" y="860" width="380" height="50" rx="5" ry="5" fill="#F6F7FB" />
  <circle cx="235" cy="885" r="15" fill="#F5A623" />
  <text x="235" y="890" font-family="Arial" font-size="14" font-weight="bold" text-anchor="middle" fill="#FFFFFF">G</text>
  <text x="260" y="880" font-family="Arial" font-size="14" font-weight="bold" fill="#333333">Setting SMART Goals That Actually Work</text>
  <text x="260" y="900" font-family="Arial" font-size="12" fill="#9A9A9A">7 min read</text>
  
  <!-- Article 2 -->
  <rect x="210" y="920" width="380" height="50" rx="5" ry="5" fill="#F6F7FB" />
  <circle cx="235" cy="945" r="15" fill="#E54D42" />
  <text x="235" y="950" font-family="Arial" font-size="14" font-weight="bold" text-anchor="middle" fill="#FFFFFF">D</text>
  <text x="260" y="940" font-family="Arial" font-size="14" font-weight="bold" fill="#333333">Digital Minimalism: Reclaiming Your Attention</text>
  <text x="260" y="960" font-family="Arial" font-size="12" fill="#9A9A9A">6 min read</text>
  
  <!-- Article 3 -->
  <rect x="210" y="980" width="380" height="50" rx="5" ry="5" fill="#F6F7FB" />
  <circle cx="235" cy="1005" r="15" fill="#2A3990" />
  <text x="235" y="1010" font-family="Arial" font-size="14" font-weight="bold" text-anchor="middle" fill="#FFFFFF">S</text>
  <text x="260" y="1000" font-family="Arial" font-size="14" font-weight="bold" fill="#333333">Sleep Quality: The Foundation of Productivity</text>
  <text x="260" y="1020" font-family="Arial" font-size="12" fill="#9A9A9A">8 min read</text>
  
  <!-- Side Panels -->
  
  <!-- DOSE Framework Explanation -->
  <g>
    <rect x="580" y="360" width="200" height="230" rx="15" ry="15" fill="#FFFFFF" stroke="#2A3990" stroke-width="2" filter="url(#shadow)" />
    <text x="600" y="390" font-family="Arial" font-size="14" font-weight="bold" fill="#2A3990">DOSE Framework</text>
    
    <line x1="600" y1="400" x2="760" y2="400" stroke="#E0E2E8" stroke-width="1" />
    
    <text x="600" y="420" font-family="Arial" font-size="12" fill="#333333">
      <tspan x="600" y="420">Core neurochemicals that drive habits:</tspan>
    </text>
    
    <!-- DOSE Component 1 -->
    <rect x="600" y="430" width="160" height="40" rx="5" ry="5" fill="#F6F7FB" />
    <text x="610" y="450" font-family="Arial" font-size="12" font-weight="bold" fill="#E54D42">D - Dopamine</text>
    <text x="610" y="465" font-family="Arial" font-size="10" fill="#333333">Motivation and reward</text>
    
    <!-- DOSE Component 2 -->
    <rect x="600" y="480" width="160" height="40" rx="5" ry="5" fill="#F6F7FB" />
    <text x="610" y="500" font-family="Arial" font-size="12" font-weight="bold" fill="#5BC0EB">O - Oxytocin</text>
    <text x="610" y="515" font-family="Arial" font-size="10" fill="#333333">Social connection</text>
    
    <!-- DOSE Component 3 -->
    <rect x="600" y="530" width="160" height="40" rx="5" ry="5" fill="#F6F7FB" />
    <text x="610" y="550" font-family="Arial" font-size="12" font-weight="bold" fill="#83CE8B">S - Serotonin</text>
    <text x="610" y="565" font-family="Arial" font-size="10" fill="#333333">Mood and wellbeing</text>
    
    <!-- DOSE Component 4 -->
    <rect x="600" y="580" width="160" height="40" rx="5" ry="5" fill="#F6F7FB" />
    <text x="610" y="600" font-family="Arial" font-size="12" font-weight="bold" fill="#F5A623">E - Endorphins</text>
    <text x="610" y="615" font-family="Arial" font-size="10" fill="#333333">Pain reduction, pleasure</text>
    
    <text x="680" y="645" font-family="Arial" font-size="12" text-anchor="middle" fill="#2A3990">Learn More →</text>
  </g>
  
  <!-- Learning Path -->
  <g>
    <rect x="580" y="600" width="200" height="220" rx="15" ry="15" fill="#FFFFFF" stroke="#2A3990" stroke-width="2" filter="url(#shadow)" />
    <text x="600" y="630" font-family="Arial" font-size="14" font-weight="bold" fill="#2A3990">Your Learning Path</text>
    
    <line x1="600" y1="640" x2="760" y2="640" stroke="#E0E2E8" stroke-width="1" />
    
    <text x="600" y="660" font-family="Arial" font-size="12" fill="#333333">
      <tspan x="600" y="660">Recommended based on your goals:</tspan>
    </text>
    
    <!-- Path Step 1 -->
    <rect x="600" y="670" width="160" height="40" rx="5" ry="5" fill="#F6F7FB" />
    <circle cx="615" cy="690" r="8" fill="#2A3990" />
    <text x="615" y="694" font-family="Arial" font-size="10" text-anchor="middle" fill="#FFFFFF">1</text>
    <text x="630" y="685" font-family="Arial" font-size="12" font-weight="bold" fill="#333333">Habit Fundamentals</text>
    <text x="630" y="700" font-family="Arial" font-size="10" fill="#83CE8B">Completed</text>
    
    <!-- Path Step 2 -->
    <rect x="600" y="720" width="160" height="40" rx="5" ry="5" fill="#F6F7FB" />
    <circle cx="615" cy="740" r="8" fill="#2A3990" />
    <text x="615" y="744" font-family="Arial" font-size="10" text-anchor="middle" fill="#FFFFFF">2</text>
    <text x="630" y="735" font-family="Arial" font-size="12" font-weight="bold" fill="#333333">DOSE Framework</text>
    <text x="630" y="750" font-family="Arial" font-size="10" fill="#83CE8B">Completed</text>
    
    <!-- Path Step 3 -->
    <rect x="600" y="770" width="160" height="40" rx="5" ry="5" fill="#2A399022" />
    <circle cx="615" cy="790" r="8" fill="#2A3990" />
    <text x="615" y="794" font-family="Arial" font-size="10" text-anchor="middle" fill="#FFFFFF">3</text>
    <text x="630" y="785" font-family="Arial" font-size="12" font-weight="bold" fill="#333333">Deep Work Mastery</text>
    <text x="630" y="800" font-family="Arial" font-size="10" fill="#2A3990">In Progress</text>
  </g>
  
  <!-- Expert Contributors -->
  <g>
    <rect x="580" y="830" width="200" height="200" rx="15" ry="15" fill="#FFFFFF" stroke="#2A3990" stroke-width="2" filter="url(#shadow)" />
    <text x="600" y="860" font-family="Arial" font-size="14" font-weight="bold" fill="#2A3990">Expert Contributors</text>
    
    <line x1="600" y1="870" x2="760" y2="870" stroke="#E0E2E8" stroke-width="1" />
    
    <!-- Expert 1 -->
    <rect x="600" y="880" width="160" height="40" rx="5" ry="5" fill="#F6F7FB" />
    <circle cx="615" cy="900" r="15" fill="#FFFFFF" stroke="#2A3990" stroke-width="1" />
    <text x="615" y="905" font-family="Arial" font-size="12" font-weight="bold" text-anchor="middle" fill="#2A3990">JC</text>
    <text x="640" y="895" font-family="Arial" font-size="12" font-weight="bold" fill="#333333">Dr. James Clear</text>
    <text x="640" y="910" font-family="Arial" font-size="10" fill="#9A9A9A">Habit Formation</text>
    
    <!-- Expert 2 -->
    <rect x="600" y="930" width="160" height="40" rx="5" ry="5" fill="#F6F7FB" />
    <circle cx="615" cy="950" r="15" fill="#FFFFFF" stroke="#2A3990" stroke-width="1" />
    <text x="615" y="955" font-family="Arial" font-size="12" font-weight="bold" text-anchor="middle" fill="#2A3990">CN</text>
    <text x="640" y="945" font-family="Arial" font-size="12" font-weight="bold" fill="#333333">Cal Newport</text>
    <text x="640" y="960" font-family="Arial" font-size="10" fill="#9A9A9A">Deep Work</text>
    
    <!-- Expert 3 -->
    <rect x="600" y="980" width="160" height="40" rx="5" ry="5" fill="#F6F7FB" />
    <circle cx="615" cy="1000" r="15" fill="#FFFFFF" stroke="#2A3990" stroke-width="1" />
    <text x="615" y="1005" font-family="Arial" font-size="12" font-weight="bold" text-anchor="middle" fill="#2A3990">AH</text>
    <text x="640" y="995" font-family="Arial" font-size="12" font-weight="bold" fill="#333333">Dr. Andrew Huberman</text>
    <text x="640" y="1010" font-family="Arial" font-size="10" fill="#9A9A9A">Neuroscience</text>
  </g>
  
  <!-- Article Detail Card -->
  <g opacity="0">
    <rect x="170" y="360" width="460" height="680" fill="#FFFFFF" rx="15" ry="15" />
    
    <text x="210" y="400" font-family="Arial" font-size="24" font-weight="bold" fill="#333333">The Science of DOSE: How Neurochemicals Shape Habits</text>
    
    <text x="210" y="430" font-family="Arial" font-size="14" fill="#9A9A9A">By Dr. Andrew Huberman • 5 min read • May 2, 2025</text>
    
    <rect x="210" y="450" width="380" height="200" rx="10" ry="10" fill="#2A399033" />
    <text x="400" y="550" font-family="Arial" font-size="40" font-weight="bold" text-anchor="middle" fill="#2A399066">DOSE</text>
    
    <text x="210" y="680" font-family="Arial" font-size="16" fill="#333333">
      <tspan x="210" y="680">Understanding the neurochemistry behind habit formation can</tspan>
      <tspan x="210" y="705">transform how you approach building new behaviors. The DOSE</tspan>
      <tspan x="210" y="730">framework focuses on four key chemicals in your brain:</tspan>
    </text>
    
    <text x="210" y="770" font-family="Arial" font-size="16" font-weight="bold" fill="#E54D42">Dopamine: The Motivation Molecule</text>
    <text x="210" y="795" font-family="Arial" font-size="14" fill="#333333">
      <tspan x="210" y="795">Dopamine drives anticipation and desire, making you take action</tspan>
      <tspan x="210" y="820">toward goals. It's released not just upon reward, but in anticipation</tspan>
      <tspan x="210" y="845">of rewards, which is why habit cues are so powerful...</tspan>
    </text>
  </g>
  
  <!-- Content Library Notification -->
  <g>
    <rect x="270" y="170" width="260" height="80" rx="10" ry="10" fill="#FFFFFF" filter="url(#shadow)" />
    <rect x="270" y="170" width="260" height="25" rx="10" ry="10" fill="#2A3990" />
    <text x="290" y="188" font-family="Arial" font-size="12" fill="#FFFFFF">New Content</text>
    <text x="510" y="188" font-family="Arial" font-size="12" text-anchor="end" fill="#FFFFFF">now</text>
    <text x="290" y="215" font-family="Arial" font-size="14" font-weight="bold" fill="#333333">New mini-course available</text>
    <text x="290" y="235" font-family="Arial" font-size="12" fill="#9A9A9A">Deep Work Mastery • 5 lessons</text>
  </g>
  
  <!-- Caption -->
  <text x="400" y="1150" font-family="Arial" font-size="16" text-anchor="middle" fill="#333333">
    <tspan x="400" y="1150">Project Kage - Educational Content Library</tspan>
    <tspan x="400" y="1175">Feature: Resources for Habit Formation and Personal Growth</tspan>
  </text>
  
  <!-- Drop shadow for panels -->
  <defs>
    <filter id="shadow" x="-20%" y="-20%" width="140%" height="140%">
      <feDropShadow dx="0" dy="4" stdDeviation="4" flood-color="#0003" />
    </filter>
  </defs>
</svg>
