<?xml version="1.0" encoding="UTF-8"?>
<svg viewBox="0 0 800 1200" xmlns="http://www.w3.org/2000/svg">
  <!-- Background -->
  <rect width="800" height="1200" fill="#F6F7FB" />
  
  <!-- Phone Frame -->
  <rect x="150" y="100" width="500" height="1000" rx="40" ry="40" fill="#FFFFFF" stroke="#E0E2E8" stroke-width="2" />
  
  <!-- Status Bar -->
  <rect x="150" y="100" width="500" height="50" rx="40" ry="40" fill="#FFFFFF" />
  <text x="430" y="132" font-family="Arial" font-size="16" text-anchor="middle" fill="#333333">9:30 PM</text>
  
  <!-- Navigation Bar at bottom -->
  <rect x="150" y="1050" width="500" height="50" rx="40" ry="40" fill="#FFFFFF" />
  
  <!-- App Header -->
  <rect x="150" y="150" width="500" height="70" fill="#2A3990" /> <!-- Deep indigo color -->
  <text x="400" y="195" font-family="Arial" font-size="24" font-weight="bold" text-anchor="middle" fill="#FFFFFF">Journal Insights</text>
  
  <!-- Main Container -->
  <rect x="170" y="230" width="460" height="810" fill="#F6F7FB" rx="15" ry="15" />
  
  <!-- Sentiment Analysis Card -->
  <rect x="190" y="250" width="420" height="170" rx="15" ry="15" fill="#FFFFFF" stroke="#E0E2E8" stroke-width="2" />
  
  <text x="210" y="280" font-family="Arial" font-size="16" font-weight="bold" fill="#2A3990">Emotional Tone</text>
  <text x="210" y="300" font-family="Arial" font-size="12" fill="#9A9A9A">Analysis from last 30 days of journaling</text>
  
  <!-- Sentiment Chart -->
  <rect x="210" y="315" width="380" height="80" fill="#FFFFFF" />
  
  <!-- Chart Axes -->
  <line x1="210" y1="355" x2="590" y2="355" stroke="#E0E2E8" stroke-width="1" />
  
  <!-- Sentiment Line -->
  <polyline points="210,360 240,350 270,370 300,345 330,320 360,340 390,325 420,315 450,330 480,310 510,340 540,325 570,320 590,330" fill="none" stroke="#2A3990" stroke-width="2" />
  
  <!-- Average Line -->
  <line x1="210" y1="330" x2="590" y2="330" stroke="#2A3990" stroke-width="1" stroke-dasharray="5,5" />
  
  <!-- X-Axis Labels -->
  <text x="210" y="375" font-family="Arial" font-size="8" text-anchor="middle" fill="#9A9A9A">Apr 9</text>
  <text x="310" y="375" font-family="Arial" font-size="8" text-anchor="middle" fill="#9A9A9A">Apr 19</text>
  <text x="410" y="375" font-family="Arial" font-size="8" text-anchor="middle" fill="#9A9A9A">Apr 29</text>
  <text x="510" y="375" font-family="Arial" font-size="8" text-anchor="middle" fill="#9A9A9A">May 9</text>
  
  <!-- Y-Axis Labels -->
  <text x="590" y="320" font-family="Arial" font-size="8" text-anchor="end" fill="#E54D42">Negative</text>
  <text x="590" y="355" font-family="Arial" font-size="8" text-anchor="end" fill="#9A9A9A">Neutral</text>
  <text x="590" y="390" font-family="Arial" font-size="8" text-anchor="end" fill="#83CE8B">Positive</text>
  
  <!-- Overall Sentiment -->
  <rect x="400" y="395" width="190" height="15" fill="#FFFFFF" />
  <text x="400" y="405" font-family="Arial" font-size="12" fill="#333333">Overall: </text>
  <text x="450" y="405" font-family="Arial" font-size="12" font-weight="bold" fill="#83CE8B">Moderately Positive</text>
  
  <!-- Recurring Themes Card -->
  <rect x="190" y="430" width="420" height="210" rx="15" ry="15" fill="#FFFFFF" stroke="#E0E2E8" stroke-width="2" />
  
  <text x="210" y="460" font-family="Arial" font-size="16" font-weight="bold" fill="#2A3990">Common Themes</text>
  <text x="210" y="480" font-family="Arial" font-size="12" fill="#9A9A9A">Topics you write about most frequently</text>
  
  <!-- Theme Tags -->
  <rect x="210" y="495" width="120" height="35" rx="17.5" ry="17.5" fill="#2A399022" />
  <text x="270" y="517" font-family="Arial" font-size="12" text-anchor="middle" fill="#2A3990">Work</text>
  <text x="310" y="517" font-family="Arial" font-size="12" fill="#9A9A9A">32x</text>
  
  <rect x="350" y="495" width="120" height="35" rx="17.5" ry="17.5" fill="#2A399022" />
  <text x="410" y="517" font-family="Arial" font-size="12" text-anchor="middle" fill="#2A3990">Family</text>
  <text x="450" y="517" font-family="Arial" font-size="12" fill="#9A9A9A">25x</text>
  
  <rect x="490" y="495" width="120" height="35" rx="17.5" ry="17.5" fill="#2A399022" />
  <text x="550" y="517" font-family="Arial" font-size="12" text-anchor="middle" fill="#2A3990">Health</text>
  <text x="590" y="517" font-family="Arial" font-size="12" fill="#9A9A9A">20x</text>
  
  <rect x="210" y="540" width="120" height="35" rx="17.5" ry="17.5" fill="#2A399022" />
  <text x="270" y="562" font-family="Arial" font-size="12" text-anchor="middle" fill="#2A3990">Focus</text>
  <text x="310" y="562" font-family="Arial" font-size="12" fill="#9A9A9A">18x</text>
  
  <rect x="350" y="540" width="120" height="35" rx="17.5" ry="17.5" fill="#2A399022" />
  <text x="410" y="562" font-family="Arial" font-size="12" text-anchor="middle" fill="#2A3990">Anxiety</text>
  <text x="450" y="562" font-family="Arial" font-size="12" fill="#9A9A9A">15x</text>
  
  <rect x="490" y="540" width="120" height="35" rx="17.5" ry="17.5" fill="#2A399022" />
  <text x="550" y="562" font-family="Arial" font-size="12" text-anchor="middle" fill="#2A3990">Sleep</text>
  <text x="590" y="562" font-family="Arial" font-size="12" fill="#9A9A9A">12x</text>
  
  <!-- Theme-based Insight -->
  <rect x="210" y="585" width="380" height="45" rx="10" ry="10" fill="#F6F7FB" />
  <text x="230" y="605" font-family="Arial" font-size="12" fill="#333333">Work-related journal entries tend to be more</text>
  <text x="230" y="625" font-family="Arial" font-size="12" fill="#333333">negative than family or health topics.</text>
  <circle cx="570" cy="605" r="10" fill="#9F85FF" />
  <text x="570" y="609" font-family="Arial" font-size="10" text-anchor="middle" fill="#FFFFFF">💡</text>
  
  <!-- Language Patterns Card -->
  <rect x="190" y="650" width="420" height="170" rx="15" ry="15" fill="#FFFFFF" stroke="#E0E2E8" stroke-width="2" />
  
  <text x="210" y="680" font-family="Arial" font-size="16" font-weight="bold" fill="#2A3990">Language Patterns</text>
  <text x="210" y="700" font-family="Arial" font-size="12" fill="#9A9A9A">Word choice and expression analysis</text>
  
  <!-- Growth & Thinking Pattern -->
  <rect x="210" y="715" width="180" height="85" rx="10" ry="10" fill="#F6F7FB" />
  <text x="230" y="735" font-family="Arial" font-size="14" font-weight="bold" fill="#2A3990">Growth Mindset</text>
  <text x="230" y="755" font-family="Arial" font-size="12" fill="#333333">You frequently use words like</text>
  <text x="230" y="775" font-family="Arial" font-size="12" fill="#333333">"learn," "improve," and</text>
  <text x="230" y="795" font-family="Arial" font-size="12" fill="#333333">"progress" in your entries.</text>
  
  <!-- Cognitive Distortion -->
  <rect x="400" y="715" width="190" height="85" rx="10" ry="10" fill="#F6F7FB" />
  <text x="420" y="735" font-family="Arial" font-size="14" font-weight="bold" fill="#E54D42">All-or-Nothing</text>
  <text x="420" y="755" font-family="Arial" font-size="12" fill="#333333">Words like "always," "never,"</text>
  <text x="420" y="775" font-family="Arial" font-size="12" fill="#333333">and "completely" appear</text>
  <text x="420" y="795" font-family="Arial" font-size="12" fill="#333333">when writing about work.</text>
  
  <!-- Mood Correlation Card -->
  <rect x="190" y="830" width="420" height="190" rx="15" ry="15" fill="#FFFFFF" stroke="#E0E2E8" stroke-width="2" />
  
  <text x="210" y="860" font-family="Arial" font-size="16" font-weight="bold" fill="#2A3990">Journal → Habit Correlation</text>
  <text x="210" y="880" font-family="Arial" font-size="12" fill="#9A9A9A">How journaling affects your habit success</text>
  
  <!-- Correlation Chart -->
  <rect x="210" y="895" width="380" height="100" fill="#FFFFFF" />
  
  <!-- Chart Components -->
  <rect x="230" y="925" width="70" height="50" rx="5" ry="5" fill="#83CE8B" opacity="0.7" />
  <text x="265" y="983" font-family="Arial" font-size="10" text-anchor="middle" fill="#9A9A9A">No Journal</text>
  <text x="265" y="920" font-family="Arial" font-size="10" text-anchor="middle" fill="#FFFFFF">65%</text>
  
  <rect x="310" y="905" width="70" height="70" rx="5" ry="5" fill="#83CE8B" opacity="0.7" />
  <text x="345" y="983" font-family="Arial" font-size="10" text-anchor="middle" fill="#9A9A9A">Quick Entry</text>
  <text x="345" y="920" font-family="Arial" font-size="10" text-anchor="middle" fill="#FFFFFF">78%</text>
  
  <rect x="390" y="885" width="70" height="90" rx="5" ry="5" fill="#83CE8B" opacity="0.7" />
  <text x="425" y="983" font-family="Arial" font-size="10" text-anchor="middle" fill="#9A9A9A">Detailed</text>
  <text x="425" y="920" font-family="Arial" font-size="10" text-anchor="middle" fill="#FFFFFF">89%</text>
  
  <rect x="470" y="865" width="70" height="110" rx="5" ry="5" fill="#83CE8B" opacity="0.7" />
  <text x="505" y="983" font-family="Arial" font-size="10" text-anchor="middle" fill="#9A9A9A">Deep Reflection</text>
  <text x="505" y="920" font-family="Arial" font-size="10" text-anchor="middle" fill="#FFFFFF">92%</text>
  
  <text x="210" y="895" font-family="Arial" font-size="12" fill="#333333">Habit</text>
  <text x="210" y="915" font-family="Arial" font-size="12" fill="#333333">Success</text>
  <text x="210" y="935" font-family="Arial" font-size="12" fill="#333333">Rate</text>
  
  <line x1="210" y1="975" x2="590" y2="975" stroke="#E0E2E8" stroke-width="1" />
  
  <!-- Side Card: Personal Insights -->
  <g>
    <rect x="580" y="250" width="200" height="230" rx="15" ry="15" fill="#FFFFFF" stroke="#2A3990" stroke-width="2" filter="url(#shadow)" />
    <text x="600" y="280" font-family="Arial" font-size="14" font-weight="bold" fill="#2A3990">Key Insights</text>
    
    <line x1="600" y1="290" x2="760" y2="290" stroke="#E0E2E8" stroke-width="1" />
    
    <!-- Insight 1 -->
    <rect x="600" y="305" width="160" height="60" rx="5" ry="5" fill="#F6F7FB" />
    <circle cx="615" cy="325" r="10" fill="#9F85FF" />
    <text x="615" y="329" font-family="Arial" font-size="10" text-anchor="middle" fill="#FFFFFF">💡</text>
    <text x="630" y="320" font-family="Arial" font-size="12" fill="#333333">Your mood is consistently</text>
    <text x="630" y="340" font-family="Arial" font-size="12" fill="#333333">better on days you</text>
    <text x="630" y="360" font-family="Arial" font-size="12" fill="#333333">meditate in the morning.</text>
    
    <!-- Insight 2 -->
    <rect x="600" y="375" width="160" height="60" rx="5" ry="5" fill="#F6F7FB" />
    <circle cx="615" cy="395" r="10" fill="#9F85FF" />
    <text x="615" y="399" font-family="Arial" font-size="10" text-anchor="middle" fill="#FFFFFF">💡</text>
    <text x="630" y="390" font-family="Arial" font-size="12" fill="#333333">Work anxiety peaks on</text>
    <text x="630" y="410" font-family="Arial" font-size="12" fill="#333333">Sundays and Mondays in</text>
    <text x="630" y="430" font-family="Arial" font-size="12" fill="#333333">your journal entries.</text>
    
    <!-- Insight 3 -->
    <rect x="600" y="445" width="160" height="25" rx="5" ry="5" fill="#2A3990" />
    <text x="680" y="462" font-family="Arial" font-size="12" text-anchor="middle" fill="#FFFFFF">See All Insights</text>
  </g>
  
  <!-- Side Card: Growth Recognition -->
  <g>
    <rect x="580" y="490" width="200" height="180" rx="15" ry="15" fill="#FFFFFF" stroke="#83CE8B" stroke-width="2" filter="url(#shadow)" />
    <text x="600" y="520" font-family="Arial" font-size="14" font-weight="bold" fill="#83CE8B">Growth Patterns</text>
    
    <line x1="600" y1="530" x2="760" y2="530" stroke="#E0E2E8" stroke-width="1" />
    
    <text x="600" y="550" font-family="Arial" font-size="12" fill="#333333">
      <tspan x="600" y="550">Areas where your journal shows</tspan>
      <tspan x="600" y="570">positive development:</tspan>
    </text>
    
    <!-- Growth 1 -->
    <rect x="600" y="585" width="160" height="35" rx="5" ry="5" fill="#F6F7FB" />
    <text x="615" y="605" font-family="Arial" font-size="12" font-weight="bold" fill="#83CE8B">Problem-solving</text>
    <text x="615" y="615" font-family="Arial" font-size="10" fill="#9A9A9A">+23% more solution focus</text>
    
    <!-- Growth 2 -->
    <rect x="600" y="630" width="160" height="35" rx="5" ry="5" fill="#F6F7FB" />
    <text x="615" y="650" font-family="Arial" font-size="12" font-weight="bold" fill="#83CE8B">Self-compassion</text>
    <text x="615" y="660" font-family="Arial" font-size="10" fill="#9A9A9A">+18% kinder self-talk</text>
  </g>
  
  <!-- Side Card: Cognitive Distortions -->
  <g>
    <rect x="580" y="680" width="200" height="200" rx="15" ry="15" fill="#FFFFFF" stroke="#E54D42" stroke-width="2" filter="url(#shadow)" />
    <text x="600" y="710" font-family="Arial" font-size="14" font-weight="bold" fill="#E54D42">Thought Patterns</text>
    
    <line x1="600" y1="720" x2="760" y2="720" stroke="#E0E2E8" stroke-width="1" />
    
    <text x="600" y="740" font-family="Arial" font-size="12" fill="#333333">
      <tspan x="600" y="740">Potential thinking traps in your</tspan>
      <tspan x="600" y="760">journal entries:</tspan>
    </text>
    
    <!-- Pattern 1 -->
    <rect x="600" y="775" width="160" height="45" rx="5" ry="5" fill="#F6F7FB" />
    <text x="615" y="795" font-family="Arial" font-size="12" font-weight="bold" fill="#E54D42">All-or-Nothing</text>
    <text x="615" y="815" font-family="Arial" font-size="10" fill="#9A9A9A">Seeing things in black and white</text>
    
    <!-- Pattern 2 -->
    <rect x="600" y="830" width="160" height="45" rx="5" ry="5" fill="#F6F7FB" />
    <text x="615" y="850" font-family="Arial" font-size="12" font-weight="bold" fill="#E54D42">Mind Reading</text>
    <text x="615" y="870" font-family="Arial" font-size="10" fill="#9A9A9A">Assuming others' thoughts</text>
  </g>
  
  <!-- Caption -->
  <text x="400" y="1150" font-family="Arial" font-size="16" text-anchor="middle" fill="#333333">
    <tspan x="400" y="1150">Project Kage - Journal Insights and Pattern Recognition</tspan>
    <tspan x="400" y="1175">Feature: AI-Powered Reflection Analysis</tspan>
  </text>
  
  <!-- Drop shadow for panels -->
  <defs>
    <filter id="shadow" x="-20%" y="-20%" width="140%" height="140%">
      <feDropShadow dx="0" dy="4" stdDeviation="4" flood-color="#0003" />
    </filter>
  </defs>
</svg>