<?xml version="1.0" encoding="UTF-8"?>
<svg viewBox="0 0 800 1200" xmlns="http://www.w3.org/2000/svg">
  <!-- Background -->
  <rect width="800" height="1200" fill="#F6F7FB" />
  
  <!-- Phone Frame -->
  <rect x="150" y="100" width="500" height="1000" rx="40" ry="40" fill="#FFFFFF" stroke="#E0E2E8" stroke-width="2" />
  
  <!-- Status Bar -->
  <rect x="150" y="100" width="500" height="50" rx="40" ry="40" fill="#FFFFFF" />
  <text x="430" y="132" font-family="Arial" font-size="16" text-anchor="middle" fill="#333333">5:30 PM</text>
  
  <!-- Navigation Bar at bottom -->
  <rect x="150" y="1050" width="500" height="50" rx="40" ry="40" fill="#FFFFFF" />
  
  <!-- App Header -->
  <rect x="150" y="150" width="500" height="70" fill="#2A3990" /> <!-- Deep indigo color -->
  <text x="400" y="195" font-family="Arial" font-size="24" font-weight="bold" text-anchor="middle" fill="#FFFFFF">Community</text>
  
  <!-- Main Container -->
  <rect x="170" y="230" width="460" height="810" fill="#F6F7FB" rx="15" ry="15" />
  
  <!-- Community Stats Card -->
  <rect x="190" y="250" width="420" height="100" rx="15" ry="15" fill="#FFFFFF" stroke="#E0E2E8" stroke-width="2" />
  
  <text x="210" y="280" font-family="Arial" font-size="16" font-weight="bold" fill="#2A3990">Your Community</text>
  
  <!-- Stats -->
  <rect x="210" y="295" width="125" height="40" rx="10" ry="10" fill="#F6F7FB" />
  <text x="272.5" y="320" font-family="Arial" font-size="16" font-weight="bold" text-anchor="middle" fill="#2A3990">7</text>
  <text x="272.5" y="335" font-family="Arial" font-size="10" text-anchor="middle" fill="#9A9A9A">Connections</text>
  
  <rect x="342.5" y="295" width="125" height="40" rx="10" ry="10" fill="#F6F7FB" />
  <text x="405" y="320" font-family="Arial" font-size="16" font-weight="bold" text-anchor="middle" fill="#2A3990">3</text>
  <text x="405" y="335" font-family="Arial" font-size="10" text-anchor="middle" fill="#9A9A9A">Groups</text>
  
  <rect x="475" y="295" width="125" height="40" rx="10" ry="10" fill="#F6F7FB" />
  <text x="537.5" y="320" font-family="Arial" font-size="16" font-weight="bold" text-anchor="middle" fill="#2A3990">85%</text>
  <text x="537.5" y="335" font-family="Arial" font-size="10" text-anchor="middle" fill="#9A9A9A">Privacy Level</text>
  
  <!-- Discover Section -->
  <rect x="190" y="360" width="420" height="260" rx="15" ry="15" fill="#FFFFFF" stroke="#E0E2E8" stroke-width="2" />
  
  <text x="210" y="390" font-family="Arial" font-size="16" font-weight="bold" fill="#2A3990">Discover</text>
  <text x="210" y="410" font-family="Arial" font-size="12" fill="#9A9A9A">People pursuing similar goals</text>
  
  <!-- Search Bar -->
  <rect x="210" y="425" width="380" height="35" rx="17.5" ry="17.5" fill="#F6F7FB" />
  <text x="240" y="448" font-family="Arial" font-size="12" fill="#9A9A9A">Search by goal or habit...</text>
  <text x="570" y="448" font-family="Arial" font-size="12" text-anchor="end" fill="#9A9A9A">🔍</text>
  
  <!-- Category Tabs -->
  <rect x="210" y="470" width="100" height="30" rx="15" ry="15" fill="#2A3990" />
  <text x="260" y="490" font-family="Arial" font-size="12" text-anchor="middle" fill="#FFFFFF">All</text>
  
  <rect x="320" y="470" width="100" height="30" rx="15" ry="15" fill="#F6F7FB" />
  <text x="370" y="490" font-family="Arial" font-size="12" text-anchor="middle" fill="#9A9A9A">Popular</text>
  
  <rect x="430" y="470" width="100" height="30" rx="15" ry="15" fill="#F6F7FB" />
  <text x="480" y="490" font-family="Arial" font-size="12" text-anchor="middle" fill="#9A9A9A">New</text>
  
  <!-- Community Item 1 -->
  <rect x="210" y="510" width="380" height="80" rx="10" ry="10" fill="#F6F7FB" />
  <circle cx="245" cy="550" r="25" fill="#FFFFFF" stroke="#2A3990" stroke-width="2" />
  <text x="245" y="555" font-family="Arial" font-size="14" font-weight="bold" text-anchor="middle" fill="#2A3990">EF</text>
  
  <text x="280" y="535" font-family="Arial" font-size="14" font-weight="bold" fill="#333333">Early Focus Group</text>
  <text x="280" y="555" font-family="Arial" font-size="12" fill="#9A9A9A">124 members • Morning productivity</text>
  <text x="280" y="575" font-family="Arial" font-size="12" fill="#83CE8B">3 shared habits</text>
  
  <rect x="540" y="535" width="30" height="30" rx="15" ry="15" fill="#2A3990" />
  <text x="555" y="555" font-family="Arial" font-size="20" text-anchor="middle" fill="#FFFFFF">+</text>
  
  <!-- Community Item 2 -->
  <rect x="210" y="600" width="380" height="80" rx="10" ry="10" fill="#F6F7FB" />
  <circle cx="245" cy="640" r="25" fill="#FFFFFF" stroke="#2A3990" stroke-width="2" />
  <text x="245" y="645" font-family="Arial" font-size="14" font-weight="bold" text-anchor="middle" fill="#2A3990">MM</text>
  
  <text x="280" y="625" font-family="Arial" font-size="14" font-weight="bold" fill="#333333">Mindful Meditators</text>
  <text x="280" y="645" font-family="Arial" font-size="12" fill="#9A9A9A">89 members • Daily meditation</text>
  <text x="280" y="665" font-family="Arial" font-size="12" fill="#83CE8B">1 shared habit</text>
  
  <rect x="540" y="625" width="30" height="30" rx="15" ry="15" fill="#2A3990" />
  <text x="555" y="645" font-family="Arial" font-size="20" text-anchor="middle" fill="#FFFFFF">+</text>
  
  <!-- Your Community Section -->
  <rect x="190" y="630" width="420" height="390" rx="15" ry="15" fill="#FFFFFF" stroke="#E0E2E8" stroke-width="2" />
  
  <text x="210" y="660" font-family="Arial" font-size="16" font-weight="bold" fill="#2A3990">Your Groups</text>
  
  <!-- My Group 1 -->
  <rect x="210" y="675" width="380" height="100" rx="10" ry="10" fill="#F6F7FB" />
  <circle cx="245" cy="725" r="25" fill="#FFFFFF" stroke="#2A3990" stroke-width="2" />
  <text x="245" y="730" font-family="Arial" font-size="14" font-weight="bold" text-anchor="middle" fill="#2A3990">WL</text>
  
  <text x="280" y="700" font-family="Arial" font-size="14" font-weight="bold" fill="#333333">Work-Life Balance</text>
  <text x="280" y="720" font-family="Arial" font-size="12" fill="#9A9A9A">57 members • You joined Apr 15</text>
  <text x="280" y="740" font-family="Arial" font-size="12" fill="#9A9A9A">Recent topic: Evening wind-down routines</text>
  
  <rect x="540" y="710" width="30" height="30" rx="15" ry="15" fill="#F6F7FB" />
  <text x="555" y="730" font-family="Arial" font-size="20" text-anchor="middle" fill="#2A3990">▶</text>
  
  <!-- Challenge Card -->
  <rect x="210" y="785" width="380" height="100" rx="10" ry="10" fill="#2A399022" />
  <circle cx="245" cy="835" r="25" fill="#FFFFFF" stroke="#2A3990" stroke-width="2" />
  <text x="245" y="840" font-family="Arial" font-size="14" font-weight="bold" text-anchor="middle" fill="#2A3990">🏆</text>
  
  <text x="280" y="810" font-family="Arial" font-size="14" font-weight="bold" fill="#333333">May Meditation Challenge</text>
  <text x="280" y="830" font-family="Arial" font-size="12" fill="#9A9A9A">25 participants • 21 days remaining</text>
  <text x="280" y="850" font-family="Arial" font-size="12" fill="#83CE8B">You're in 3rd place! • 16-day streak</text>
  
  <rect x="540" y="820" width="30" height="30" rx="15" ry="15" fill="#F6F7FB" />
  <text x="555" y="840" font-family="Arial" font-size="20" text-anchor="middle" fill="#2A3990">▶</text>
  
  <!-- Goal Template Sharing -->
  <rect x="210" y="895" width="380" height="100" rx="10" ry="10" fill="#F6F7FB" />
  <circle cx="245" cy="945" r="25" fill="#FFFFFF" stroke="#2A3990" stroke-width="2" />
  <text x="245" y="950" font-family="Arial" font-size="14" font-weight="bold" text-anchor="middle" fill="#2A3990">📋</text>
  
  <text x="280" y="920" font-family="Arial" font-size="14" font-weight="bold" fill="#333333">Share Goal Template</text>
  <text x="280" y="940" font-family="Arial" font-size="12" fill="#9A9A9A">Contribute your successful frameworks</text>
  <text x="280" y="960" font-family="Arial" font-size="12" fill="#9A9A9A">with the community</text>
  
  <rect x="540" y="930" width="30" height="30" rx="15" ry="15" fill="#2A3990" />
  <text x="555" y="950" font-family="Arial" font-size="20" text-anchor="middle" fill="#FFFFFF">+</text>
  
  <!-- Create New Group Button -->
  <rect x="190" y="1030" width="420" height="50" rx="25" ry="25" fill="#2A3990" />
  <text x="400" y="1060" font-family="Arial" font-size="16" font-weight="bold" text-anchor="middle" fill="#FFFFFF">Create a New Group</text>
  
  <!-- Side Card: Privacy Settings -->
  <g>
    <rect x="580" y="250" width="200" height="240" rx="15" ry="15" fill="#FFFFFF" stroke="#2A3990" stroke-width="2" filter="url(#shadow)" />
    <text x="600" y="280" font-family="Arial" font-size="14" font-weight="bold" fill="#2A3990">Privacy Controls</text>
    
    <line x1="600" y1="290" x2="760" y2="290" stroke="#E0E2E8" stroke-width="1" />
    
    <text x="600" y="310" font-family="Arial" font-size="12" fill="#333333">
      <tspan x="600" y="310">What information is shared:</tspan>
    </text>
    
    <!-- Setting 1 -->
    <rect x="600" y="325" width="160" height="30" rx="5" ry="5" fill="#F6F7FB" />
    <text x="615" y="345" font-family="Arial" font-size="12" fill="#333333">Goal Types</text>
    <rect x="720" y="331" width="30" height="18" rx="9" ry="9" fill="#2A3990" />
    <circle cx="738" cy="340" r="7" fill="#FFFFFF" />
    
    <!-- Setting 2 -->
    <rect x="600" y="365" width="160" height="30" rx="5" ry="5" fill="#F6F7FB" />
    <text x="615" y="385" font-family="Arial" font-size="12" fill="#333333">Habit Names</text>
    <rect x="720" y="371" width="30" height="18" rx="9" ry="9" fill="#2A3990" />
    <circle cx="738" cy="380" r="7" fill="#FFFFFF" />
    
    <!-- Setting 3 -->
    <rect x="600" y="405" width="160" height="30" rx="5" ry="5" fill="#F6F7FB" />
    <text x="615" y="425" font-family="Arial" font-size="12" fill="#333333">Completion Stats</text>
    <rect x="720" y="411" width="30" height="18" rx="9" ry="9" fill="#2A3990" />
    <circle cx="738" cy="420" r="7" fill="#FFFFFF" />
    
    <!-- Setting 4 -->
    <rect x="600" y="445" width="160" height="30" rx="5" ry="5" fill="#F6F7FB" />
    <text x="615" y="465" font-family="Arial" font-size="12" fill="#333333">Journal Entries</text>
    <rect x="720" y="451" width="30" height="18" rx="9" ry="9" fill="#F6F7FB" />
    <circle cx="732" cy="460" r="7" fill="#FFFFFF" />
  </g>
  
  <!-- Side Card: Similar Users -->
  <g>
    <rect x="580" y="500" width="200" height="200" rx="15" ry="15" fill="#FFFFFF" stroke="#F5A623" stroke-width="2" filter="url(#shadow)" />
    <text x="600" y="530" font-family="Arial" font-size="14" font-weight="bold" fill="#F5A623">People Like You</text>
    
    <line x1="600" y1="540" x2="760" y2="540" stroke="#E0E2E8" stroke-width="1" />
    
    <text x="600" y="560" font-family="Arial" font-size="12" fill="#333333">
      <tspan x="600" y="560">Others with similar goals:</tspan>
    </text>
    
    <!-- Person 1 -->
    <rect x="600" y="575" width="160" height="45" rx="5" ry="5" fill="#F6F7FB" />
    <circle cx="620" cy="597.5" r="15" fill="#FFFFFF" stroke="#F5A623" stroke-width="1" />
    <text x="620" y="601.5" font-family="Arial" font-size="10" font-weight="bold" text-anchor="middle" fill="#F5A623">JT</text>
    <text x="640" y="591.5" font-family="Arial" font-size="12" font-weight="bold" fill="#333333">Jamie T.</text>
    <text x="640" y="608.5" font-family="Arial" font-size="10" fill="#9A9A9A">Work-Life Balance, Fitness</text>
    
    <!-- Person 2 -->
    <rect x="600" y="630" width="160" height="45" rx="5" ry="5" fill="#F6F7FB" />
    <circle cx="620" cy="652.5" r="15" fill="#FFFFFF" stroke="#F5A623" stroke-width="1" />
    <text x="620" y="656.5" font-family="Arial" font-size="10" font-weight="bold" text-anchor="middle" fill="#F5A623">AS</text>
    <text x="640" y="646.5" font-family="Arial" font-size="12" font-weight="bold" fill="#333333">Alex S.</text>
    <text x="640" y="663.5" font-family="Arial" font-size="10" fill="#9A9A9A">Meditation, Productivity</text>
  </g>
  
  <!-- Side Card: Community Guidelines -->
  <g>
    <rect x="580" y="710" width="200" height="240" rx="15" ry="15" fill="#FFFFFF" stroke="#2A3990" stroke-width="2" filter="url(#shadow)" />
    <text x="600" y="740" font-family="Arial" font-size="14" font-weight="bold" fill="#2A3990">Community Guidelines</text>
    
    <line x1="600" y1="750" x2="760" y2="750" stroke="#E0E2E8" stroke-width="1" />
    
    <text x="600" y="770" font-family="Arial" font-size="12" fill="#333333">
      <tspan x="600" y="770">Core principles:</tspan>
    </text>
    
    <!-- Guideline 1 -->
    <rect x="600" y="785" width="160" height="40" rx="5" ry="5" fill="#F6F7FB" />
    <circle cx="615" cy="805" r="8" fill="#2A3990" />
    <text x="615" y="809" font-family="Arial" font-size="10" text-anchor="middle" fill="#FFFFFF">1</text>
    <text x="630" y="800" font-family="Arial" font-size="12" font-weight="bold" fill="#333333">Supportive Feedback</text>
    <text x="630" y="815" font-family="Arial" font-size="10" fill="#9A9A9A">No criticism, only encouragement</text>
    
    <!-- Guideline 2 -->
    <rect x="600" y="835" width="160" height="40" rx="5" ry="5" fill="#F6F7FB" />
    <circle cx="615" cy="855" r="8" fill="#2A3990" />
    <text x="615" y="859" font-family="Arial" font-size="10" text-anchor="middle" fill="#FFFFFF">2</text>
    <text x="630" y="850" font-family="Arial" font-size="12" font-weight="bold" fill="#333333">Privacy Respect</text>
    <text x="630" y="865" font-family="Arial" font-size="10" fill="#9A9A9A">Don't share outside the group</text>
    
    <!-- Guideline 3 -->
    <rect x="600" y="885" width="160" height="40" rx="5" ry="5" fill="#F6F7FB" />
    <circle cx="615" cy="905" r="8" fill="#2A3990" />
    <text x="615" y="909" font-family="Arial" font-size="10" text-anchor="middle" fill="#FFFFFF">3</text>
    <text x="630" y="900" font-family="Arial" font-size="12" font-weight="bold" fill="#333333">Quality Contributions</text>
    <text x="630" y="915" font-family="Arial" font-size="10" fill="#9A9A9A">Share helpful experiences only</text>
  </g>
  
  <!-- Notification Alert -->
  <g>
    <rect x="270" y="170" width="260" height="80" rx="10" ry="10" fill="#FFFFFF" filter="url(#shadow)" />
    <rect x="270" y="170" width="260" height="25" rx="10" ry="10" fill="#83CE8B" />
    <text x="290" y="188" font-family="Arial" font-size="12" fill="#FFFFFF">Community Update</text>
    <text x="510" y="188" font-family="Arial" font-size="12" text-anchor="end" fill="#FFFFFF">25m ago</text>
    <text x="290" y="215" font-family="Arial" font-size="14" font-weight="bold" fill="#333333">Sarah completed her 21-day meditation streak!</text>
    <text x="290" y="235" font-family="Arial" font-size="12" fill="#9A9A9A">Send her encouragement →</text>
  </g>
  
  <!-- Caption -->
  <text x="400" y="1150" font-family="Arial" font-size="16" text-anchor="middle" fill="#333333">
    <tspan x="400" y="1150">Project Kage - Community Goal and Habit Sharing</tspan>
    <tspan x="400" y="1175">Feature: Connected Habit Formation</tspan>
  </text>
  
  <!-- Drop shadow for panels -->
  <defs>
    <filter id="shadow" x="-20%" y="-20%" width="140%" height="140%">
      <feDropShadow dx="0" dy="4" stdDeviation="4" flood-color="#0003" />
    </filter>
  </defs>
</svg>