<?xml version="1.0" encoding="UTF-8"?>
<svg viewBox="0 0 800 1200" xmlns="http://www.w3.org/2000/svg">
  <!-- Background -->
  <rect width="800" height="1200" fill="#F6F7FB" />
  
  <!-- Phone Frame -->
  <rect x="150" y="100" width="500" height="1000" rx="40" ry="40" fill="#FFFFFF" stroke="#E0E2E8" stroke-width="2" />
  
  <!-- Status Bar -->
  <rect x="150" y="100" width="500" height="50" rx="40" ry="40" fill="#FFFFFF" />
  <text x="430" y="132" font-family="Arial" font-size="16" text-anchor="middle" fill="#333333">3:45 PM</text>
  
  <!-- Navigation Bar at bottom -->
  <rect x="150" y="1050" width="500" height="50" rx="40" ry="40" fill="#FFFFFF" />
  
  <!-- App Header -->
  <rect x="150" y="150" width="500" height="70" fill="#2A3990" /> <!-- Deep indigo color -->
  <text x="400" y="195" font-family="Arial" font-size="24" font-weight="bold" text-anchor="middle" fill="#FFFFFF">Habit Connections</text>
  
  <!-- Main Container -->
  <rect x="170" y="230" width="460" height="810" fill="#F6F7FB" rx="15" ry="15" />
  
  <!-- View Options Tabs -->
  <rect x="190" y="250" width="420" height="50" fill="#FFFFFF" rx="10" ry="10" stroke="#E0E2E8" stroke-width="1" />
  
  <rect x="190" y="250" width="140" height="50" fill="#2A3990" rx="10" ry="10" />
  <text x="260" y="280" font-family="Arial" font-size="14" font-weight="bold" text-anchor="middle" fill="#FFFFFF">Map View</text>
  
  <text x="400" y="280" font-family="Arial" font-size="14" text-anchor="middle" fill="#9A9A9A">List View</text>
  
  <text x="540" y="280" font-family="Arial" font-size="14" text-anchor="middle" fill="#9A9A9A">Analysis</text>
  
  <!-- Main Goal Node -->
  <g>
    <circle cx="400" cy="400" r="70" fill="#E9EDF8" stroke="#2A3990" stroke-width="3" filter="url(#shadow)" />
    <text x="400" y="380" font-family="Arial" font-size="14" font-weight="bold" text-anchor="middle" fill="#2A3990">Learn French</text>
    <text x="400" y="400" font-family="Arial" font-size="12" text-anchor="middle" fill="#333333">for Paris Trip</text>
    <text x="400" y="420" font-family="Arial" font-size="12" text-anchor="middle" fill="#333333">42% Complete</text>
  </g>
  
  <!-- Habit Nodes - Connected with varying strengths -->
  
  <!-- Vocabulary Habit - Strong Connection -->
  <circle cx="250" cy="300" r="45" fill="#DCF7E0" stroke="#83CE8B" stroke-width="2" />
  <text x="250" y="295" font-family="Arial" font-size="12" font-weight="bold" text-anchor="middle" fill="#333333">Daily</text>
  <text x="250" y="310" font-family="Arial" font-size="12" font-weight="bold" text-anchor="middle" fill="#333333">Vocabulary</text>
  <line x1="307" y1="331" x2="355" y2="365" stroke="#83CE8B" stroke-width="5" />
  <text x="325" y="335" font-family="Arial" font-size="11" fill="#333333">High Impact</text>
  
  <!-- Grammar Study - Medium Connection -->
  <circle cx="570" cy="330" r="45" fill="#FCF3D9" stroke="#F5A623" stroke-width="2" />
  <text x="570" y="325" font-family="Arial" font-size="12" font-weight="bold" text-anchor="middle" fill="#333333">Weekly</text>
  <text x="570" y="340" font-family="Arial" font-size="12" font-weight="bold" text-anchor="middle" fill="#333333">Grammar</text>
  <line x1="525" y1="342" x2="455" y2="370" stroke="#F5A623" stroke-width="3" />
  <text x="505" y="345" font-family="Arial" font-size="11" fill="#333333">Medium Impact</text>
  
  <!-- Listening Practice - Medium Connection -->
  <circle cx="250" cy="500" r="45" fill="#FCF3D9" stroke="#F5A623" stroke-width="2" />
  <text x="250" y="495" font-family="Arial" font-size="12" font-weight="bold" text-anchor="middle" fill="#333333">Podcast</text>
  <text x="250" y="510" font-family="Arial" font-size="12" font-weight="bold" text-anchor="middle" fill="#333333">Listening</text>
  <line x1="295" y1="485" x2="345" y2="435" stroke="#F5A623" stroke-width="3" />
  <text x="310" y="475" font-family="Arial" font-size="11" fill="#333333">Medium Impact</text>
  
  <!-- Conversation Practice - Strong Connection -->
  <circle cx="570" cy="500" r="45" fill="#DCF7E0" stroke="#83CE8B" stroke-width="2" />
  <text x="570" y="495" font-family="Arial" font-size="12" font-weight="bold" text-anchor="middle" fill="#333333">Weekly</text>
  <text x="570" y="510" font-family="Arial" font-size="12" font-weight="bold" text-anchor="middle" fill="#333333">Conversation</text>
  <line x1="525" y1="485" x2="455" y2="435" stroke="#83CE8B" stroke-width="5" />
  <text x="485" y="475" font-family="Arial" font-size="11" fill="#333333">High Impact</text>
  
  <!-- Cultural Media - Low Connection -->
  <circle cx="400" cy="600" r="45" fill="#E0EBFA" stroke="#4A90E2" stroke-width="2" />
  <text x="400" y="595" font-family="Arial" font-size="12" font-weight="bold" text-anchor="middle" fill="#333333">French</text>
  <text x="400" y="610" font-family="Arial" font-size="12" font-weight="bold" text-anchor="middle" fill="#333333">Media</text>
  <line x1="400" y1="555" x2="400" y2="470" stroke="#4A90E2" stroke-width="2" />
  <text x="425" y="525" font-family="Arial" font-size="11" fill="#333333">Supportive</text>
  
  <!-- Habit Performance Indicators -->
  <circle cx="280" cy="300" r="10" fill="#FFFFFF" stroke="#83CE8B" stroke-width="2" />
  <text x="280" y="304" font-family="Arial" font-size="12" font-weight="bold" text-anchor="middle" fill="#83CE8B">✓</text>
  
  <circle cx="540" cy="330" r="10" fill="#FFFFFF" stroke="#E54D42" stroke-width="2" />
  <text x="540" y="334" font-family="Arial" font-size="12" font-weight="bold" text-anchor="middle" fill="#E54D42">!</text>
  
  <circle cx="280" cy="500" r="10" fill="#FFFFFF" stroke="#83CE8B" stroke-width="2" />
  <text x="280" y="504" font-family="Arial" font-size="12" font-weight="bold" text-anchor="middle" fill="#83CE8B">✓</text>
  
  <circle cx="540" cy="500" r="10" fill="#FFFFFF" stroke="#F5A623" stroke-width="2" />
  <text x="540" y="504" font-family="Arial" font-size="12" font-weight="bold" text-anchor="middle" fill="#F5A623">~</text>
  
  <circle cx="430" cy="600" r="10" fill="#FFFFFF" stroke="#83CE8B" stroke-width="2" />
  <text x="430" y="604" font-family="Arial" font-size="12" font-weight="bold" text-anchor="middle" fill="#83CE8B">✓</text>
  
  <!-- Legend -->
  <rect x="190" y="670" width="420" height="90" rx="10" ry="10" fill="#FFFFFF" stroke="#E0E2E8" stroke-width="1" />
  <text x="210" y="695" font-family="Arial" font-size="14" font-weight="bold" fill="#2A3990">Connection Strength Legend</text>
  
  <!-- High Impact Legend -->
  <line x1="220" y1="720" x2="260" y2="720" stroke="#83CE8B" stroke-width="5" />
  <text x="270" y="725" font-family="Arial" font-size="12" fill="#333333">High Impact: Essential for goal success</text>
  
  <!-- Medium Impact Legend -->
  <line x1="220" y1="745" x2="260" y2="745" stroke="#F5A623" stroke-width="3" />
  <text x="270" y="750" font-family="Arial" font-size="12" fill="#333333">Medium Impact: Important contributor</text>
  
  <!-- Supportive Legend -->
  <line x1="220" y1="770" x2="260" y2="770" stroke="#4A90E2" stroke-width="2" />
  <text x="270" y="775" font-family="Arial" font-size="12" fill="#333333">Supportive: Helpful but not critical</text>
  
  <!-- Habit Status Section -->
  <rect x="190" y="780" width="420" height="240" rx="10" ry="10" fill="#FFFFFF" stroke="#E0E2E8" stroke-width="1" />
  <text x="210" y="805" font-family="Arial" font-size="14" font-weight="bold" fill="#2A3990">Habit Status</text>
  
  <!-- Status Table Headers -->
  <line x1="210" y1="825" x2="590" y2="825" stroke="#E0E2E8" stroke-width="1" />
  <text x="230" y="845" font-family="Arial" font-size="12" font-weight="bold" fill="#333333">Habit</text>
  <text x="370" y="845" font-family="Arial" font-size="12" font-weight="bold" fill="#333333">Impact</text>
  <text x="460" y="845" font-family="Arial" font-size="12" font-weight="bold" fill="#333333">Status</text>
  <text x="550" y="845" font-family="Arial" font-size="12" font-weight="bold" fill="#333333">Action</text>
  
  <!-- Status Table Row 1 -->
  <line x1="210" y1="855" x2="590" y2="855" stroke="#E0E2E8" stroke-width="1" />
  <text x="230" y="875" font-family="Arial" font-size="12" fill="#333333">Daily Vocabulary</text>
  <text x="370" y="875" font-family="Arial" font-size="12" fill="#83CE8B">High</text>
  <text x="460" y="875" font-family="Arial" font-size="12" fill="#83CE8B">On Track</text>
  <rect x="530" y="860" width="40" height="20" rx="10" ry="10" fill="#E9EDF8" />
  <text x="550" y="875" font-family="Arial" font-size="10" text-anchor="middle" fill="#2A3990">View</text>
  
  <!-- Status Table Row 2 -->
  <line x1="210" y1="885" x2="590" y2="885" stroke="#E0E2E8" stroke-width="1" />
  <text x="230" y="905" font-family="Arial" font-size="12" fill="#333333">Weekly Grammar</text>
  <text x="370" y="905" font-family="Arial" font-size="12" fill="#F5A623">Medium</text>
  <text x="460" y="905" font-family="Arial" font-size="12" fill="#E54D42">At Risk</text>
  <rect x="530" y="890" width="40" height="20" rx="10" ry="10" fill="#2A3990" />
  <text x="550" y="905" font-family="Arial" font-size="10" text-anchor="middle" fill="#FFFFFF">Fix</text>
  
  <!-- Status Table Row 3 -->
  <line x1="210" y1="915" x2="590" y2="915" stroke="#E0E2E8" stroke-width="1" />
  <text x="230" y="935" font-family="Arial" font-size="12" fill="#333333">Podcast Listening</text>
  <text x="370" y="935" font-family="Arial" font-size="12" fill="#F5A623">Medium</text>
  <text x="460" y="935" font-family="Arial" font-size="12" fill="#83CE8B">On Track</text>
  <rect x="530" y="920" width="40" height="20" rx="10" ry="10" fill="#E9EDF8" />
  <text x="550" y="935" font-family="Arial" font-size="10" text-anchor="middle" fill="#2A3990">View</text>
  
  <!-- Status Table Row 4 -->
  <line x1="210" y1="945" x2="590" y2="945" stroke="#E0E2E8" stroke-width="1" />
  <text x="230" y="965" font-family="Arial" font-size="12" fill="#333333">Weekly Conversation</text>
  <text x="370" y="965" font-family="Arial" font-size="12" fill="#83CE8B">High</text>
  <text x="460" y="965" font-family="Arial" font-size="12" fill="#F5A623">Needs Work</text>
  <rect x="530" y="950" width="40" height="20" rx="10" ry="10" fill="#2A3990" />
  <text x="550" y="965" font-family="Arial" font-size="10" text-anchor="middle" fill="#FFFFFF">Fix</text>
  
  <!-- Status Table Row 5 -->
  <line x1="210" y1="975" x2="590" y2="975" stroke="#E0E2E8" stroke-width="1" />
  <text x="230" y="995" font-family="Arial" font-size="12" fill="#333333">French Media</text>
  <text x="370" y="995" font-family="Arial" font-size="12" fill="#4A90E2">Supportive</text>
  <text x="460" y="995" font-family="Arial" font-size="12" fill="#83CE8B">On Track</text>
  <rect x="530" y="980" width="40" height="20" rx="10" ry="10" fill="#E9EDF8" />
  <text x="550" y="995" font-family="Arial" font-size="10" text-anchor="middle" fill="#2A3990">View</text>
  
  <!-- Side Card: Habit Adjustment -->
  <g>
    <rect x="580" y="350" width="200" height="160" rx="15" ry="15" fill="#FFFFFF" stroke="#F5A623" stroke-width="2" filter="url(#shadow)" />
    <text x="600" y="375" font-family="Arial" font-size="14" font-weight="bold" fill="#F5A623">Goal Risk Alert</text>
    
    <line x1="600" y1="385" x2="760" y2="385" stroke="#E0E2E8" stroke-width="1" />
    
    <text x="600" y="410" font-family="Arial" font-size="12" fill="#333333">
      <tspan x="600" y="410">High-impact grammar habit</tspan>
      <tspan x="600" y="430">is falling behind schedule.</tspan>
    </text>
    
    <text x="600" y="460" font-family="Arial" font-size="12" font-weight="bold" fill="#333333">
      <tspan x="600" y="460">Suggested adjustment:</tspan>
    </text>
    
    <text x="600" y="485" font-family="Arial" font-size="12" fill="#333333">
      <tspan x="600" y="485">Reduce to 2 sessions per week</tspan>
      <tspan x="600" y="505">but increase session duration</tspan>
    </text>
  </g>
  
  <!-- Caption -->
  <text x="400" y="1150" font-family="Arial" font-size="16" text-anchor="middle" fill="#333333">
    <tspan x="400" y="1150">Project Kage - Goal-Habit Connection Mapping</tspan>
    <tspan x="400" y="1175">Feature: Visual Habit-Goal Relationship</tspan>
  </text>
  
  <!-- Drop shadow for panels -->
  <defs>
    <filter id="shadow" x="-20%" y="-20%" width="140%" height="140%">
      <feDropShadow dx="0" dy="4" stdDeviation="4" flood-color="#0003" />
    </filter>
  </defs>
</svg>
