<?xml version="1.0" encoding="UTF-8"?>
<svg viewBox="0 0 800 1200" xmlns="http://www.w3.org/2000/svg">
  <!-- Background -->
  <rect width="800" height="1200" fill="#F6F7FB" />
  
  <!-- Phone Frame -->
  <rect x="150" y="100" width="500" height="1000" rx="40" ry="40" fill="#FFFFFF" stroke="#E0E2E8" stroke-width="2" />
  
  <!-- Status Bar -->
  <rect x="150" y="100" width="500" height="50" rx="40" ry="40" fill="#FFFFFF" />
  <text x="430" y="132" font-family="Arial" font-size="16" text-anchor="middle" fill="#333333">5:45 PM</text>
  
  <!-- Navigation Bar at bottom -->
  <rect x="150" y="1050" width="500" height="50" rx="40" ry="40" fill="#FFFFFF" />
  
  <!-- App Header -->
  <rect x="150" y="150" width="500" height="70" fill="#2A3990" /> <!-- Deep indigo color -->
  <text x="400" y="195" font-family="Arial" font-size="24" font-weight="bold" text-anchor="middle" fill="#FFFFFF">Health Integration</text>
  
  <!-- Main Container -->
  <rect x="170" y="230" width="460" height="810" fill="#F6F7FB" rx="15" ry="15" />
  
  <!-- Connected Health Apps -->
  <rect x="190" y="250" width="420" height="180" rx="15" ry="15" fill="#FFFFFF" stroke="#E0E2E8" stroke-width="2" />
  
  <text x="210" y="280" font-family="Arial" font-size="16" font-weight="bold" fill="#333333">Connected Health Apps</text>
  <text x="550" y="280" font-family="Arial" font-size="12" text-anchor="end" fill="#2A3990">Manage</text>
  
  <!-- Connected App 1 -->
  <rect x="210" y="290" width="380" height="60" rx="10" ry="10" fill="#F6F7FB" />
  <circle cx="240" cy="320" r="20" fill="#75D701" />
  <text x="240" y="325" font-family="Arial" font-size="12" font-weight="bold" text-anchor="middle" fill="#FFFFFF">AH</text>
  
  <text x="270" y="315" font-family="Arial" font-size="14" font-weight="bold" fill="#333333">Apple Health</text>
  <text x="270" y="335" font-family="Arial" font-size="12" fill="#9A9A9A">Activity, Steps, Workout, Sleep</text>
  
  <rect x="550" y="320" width="20" height="20" rx="10" ry="10" fill="#F6F7FB" />
  <text x="560" y="330" font-family="Arial" font-size="16" text-anchor="middle" fill="#9A9A9A">⋮</text>
  
  <!-- Connected App 2 -->
  <rect x="210" y="360" width="380" height="60" rx="10" ry="10" fill="#F6F7FB" />
  <circle cx="240" cy="390" r="20" fill="#5FCDFA" />
  <text x="240" y="395" font-family="Arial" font-size="12" font-weight="bold" text-anchor="middle" fill="#FFFFFF">FT</text>
  
  <text x="270" y="385" font-family="Arial" font-size="14" font-weight="bold" fill="#333333">Fitbit</text>
  <text x="270" y="405" font-family="Arial" font-size="12" fill="#9A9A9A">Steps, Heart Rate, Sleep, Exercise</text>
  
  <rect x="550" y="390" width="20" height="20" rx="10" ry="10" fill="#F6F7FB" />
  <text x="560" y="400" font-family="Arial" font-size="16" text-anchor="middle" fill="#9A9A9A">⋮</text>
  
  <!-- Add Health App Button -->
  <rect x="190" y="440" width="420" height="70" rx="15" ry="15" fill="#FFFFFF" stroke="#2A3990" stroke-width="1" stroke-dasharray="4 2" />
  
  <circle cx="240" cy="475" r="20" fill="#F6F7FB" stroke="#2A3990" stroke-width="2" />
  <text x="240" y="480" font-family="Arial" font-size="18" font-weight="bold" text-anchor="middle" fill="#2A3990">+</text>
  
  <text x="270" y="470" font-family="Arial" font-size="14" font-weight="bold" fill="#2A3990">Connect Additional Health App</text>
  <text x="270" y="490" font-family="Arial" font-size="12" fill="#9A9A9A">Sync with other fitness trackers or health platforms</text>
  
  <!-- Health Data Overview -->
  <rect x="190" y="520" width="420" height="200" rx="15" ry="15" fill="#FFFFFF" stroke="#E0E2E8" stroke-width="2" />
  
  <text x="210" y="550" font-family="Arial" font-size="16" font-weight="bold" fill="#333333">Health Data Overview</text>
  <text x="550" y="550" font-family="Arial" font-size="12" text-anchor="end" fill="#2A3990">Today</text>
  
  <!-- Health Metrics Grid -->
  <!-- Row 1 -->
  <rect x="210" y="560" width="125" height="70" rx="10" ry="10" fill="#F6F7FB" />
  <text x="240" y="585" font-family="Arial" font-size="14" font-weight="bold" text-anchor="middle" fill="#2A3990">8,754</text>
  <text x="240" y="605" font-family="Arial" font-size="12" text-anchor="middle" fill="#333333">Steps</text>
  <text x="240" y="620" font-family="Arial" font-size="10" text-anchor="middle" fill="#9A9A9A">Goal: 10,000</text>
  
  <rect x="345" y="560" width="125" height="70" rx="10" ry="10" fill="#F6F7FB" />
  <text x="375" y="585" font-family="Arial" font-size="14" font-weight="bold" text-anchor="middle" fill="#2A3990">68 bpm</text>
  <text x="375" y="605" font-family="Arial" font-size="12" text-anchor="middle" fill="#333333">Resting HR</text>
  <text x="375" y="620" font-family="Arial" font-size="10" text-anchor="middle" fill="#9A9A9A">Avg: 65-75 bpm</text>
  
  <rect x="480" y="560" width="125" height="70" rx="10" ry="10" fill="#F6F7FB" />
  <text x="510" y="585" font-family="Arial" font-size="14" font-weight="bold" text-anchor="middle" fill="#2A3990">2,450</text>
  <text x="510" y="605" font-family="Arial" font-size="12" text-anchor="middle" fill="#333333">Calories</text>
  <text x="510" y="620" font-family="Arial" font-size="10" text-anchor="middle" fill="#9A9A9A">Goal: 2,800</text>
  
  <!-- Row 2 -->
  <rect x="210" y="640" width="125" height="70" rx="10" ry="10" fill="#F6F7FB" />
  <text x="240" y="665" font-family="Arial" font-size="14" font-weight="bold" text-anchor="middle" fill="#2A3990">45 min</text>
  <text x="240" y="685" font-family="Arial" font-size="12" text-anchor="middle" fill="#333333">Exercise</text>
  <text x="240" y="700" font-family="Arial" font-size="10" text-anchor="middle" fill="#9A9A9A">Goal: 30 min</text>
  
  <rect x="345" y="640" width="125" height="70" rx="10" ry="10" fill="#F6F7FB" />
  <text x="375" y="665" font-family="Arial" font-size="14" font-weight="bold" text-anchor="middle" fill="#2A3990">7h 15m</text>
  <text x="375" y="685" font-family="Arial" font-size="12" text-anchor="middle" fill="#333333">Sleep</text>
  <text x="375" y="700" font-family="Arial" font-size="10" text-anchor="middle" fill="#9A9A9A">Goal: 8 hours</text>
  
  <rect x="480" y="640" width="125" height="70" rx="10" ry="10" fill="#F6F7FB" />
  <text x="510" y="665" font-family="Arial" font-size="14" font-weight="bold" text-anchor="middle" fill="#2A3990">6/8</text>
  <text x="510" y="685" font-family="Arial" font-size="12" text-anchor="middle" fill="#333333">Water</text>
  <text x="510" y="700" font-family="Arial" font-size="10" text-anchor="middle" fill="#9A9A9A">Goal: 8 glasses</text>
  
  <!-- Health Goals -->
  <rect x="190" y="730" width="420" height="140" rx="15" ry="15" fill="#FFFFFF" stroke="#E0E2E8" stroke-width="2" />
  
  <text x="210" y="760" font-family="Arial" font-size="16" font-weight="bold" fill="#333333">Connected Health Goals</text>
  
  <!-- Health Goal 1 -->
  <rect x="210" y="770" width="380" height="40" rx="5" ry="5" fill="#F6F7FB" />
  <text x="230" y="795" font-family="Arial" font-size="14" fill="#333333">Weekly Exercise</text>
  
  <rect x="210" y="770" width="5" height="40" rx="2.5" ry="2.5" fill="#75D701" />
  
  <rect x="440" y="780" width="130" height="20" rx="10" ry="10" fill="#75D70133" />
  <text x="505" y="795" font-family="Arial" font-size="12" text-anchor="middle" fill="#75D701">3/5 days</text>
  
  <!-- Health Goal 2 -->
  <rect x="210" y="820" width="380" height="40" rx="5" ry="5" fill="#F6F7FB" />
  <text x="230" y="845" font-family="Arial" font-size="14" fill="#333333">Sleep Improvement</text>
  
  <rect x="210" y="820" width="5" height="40" rx="2.5" ry="2.5" fill="#5FCDFA" />
  
  <rect x="440" y="830" width="130" height="20" rx="10" ry="10" fill="#5FCDFA33" />
  <text x="505" y="845" font-family="Arial" font-size="12" text-anchor="middle" fill="#5FCDFA">7.2h avg</text>
  
  <!-- Health Data Insights -->
  <rect x="190" y="880" width="420" height="150" rx="15" ry="15" fill="#FFFFFF" stroke="#E0E2E8" stroke-width="2" />
  
  <text x="210" y="910" font-family="Arial" font-size="16" font-weight="bold" fill="#333333">Health Insights</text>
  
  <!-- Insight 1 -->
  <rect x="210" y="920" width="380" height="50" rx="5" ry="5" fill="#F6F7FB" />
  <circle cx="230" cy="945" r="15" fill="#FFFFFF" stroke="#2A3990" stroke-width="2" />
  <text x="230" y="950" font-family="Arial" font-size="14" font-weight="bold" text-anchor="middle" fill="#2A3990">💡</text>
  
  <text x="255" y="940" font-family="Arial" font-size="14" font-weight="bold" fill="#333333">Sleep Pattern Correlation</text>
  <text x="255" y="960" font-family="Arial" font-size="12" fill="#9A9A9A">Better sleep correlates with 28% higher task completion</text>
  
  <!-- Insight 2 -->
  <rect x="210" y="980" width="380" height="50" rx="5" ry="5" fill="#F6F7FB" />
  <circle cx="230" cy="1005" r="15" fill="#FFFFFF" stroke="#2A3990" stroke-width="2" />
  <text x="230" y="1010" font-family="Arial" font-size="14" font-weight="bold" text-anchor="middle" fill="#2A3990">💡</text>
  
  <text x="255" y="1000" font-family="Arial" font-size="14" font-weight="bold" fill="#333333">Exercise Impact</text>
  <text x="255" y="1020" font-family="Arial" font-size="12" fill="#9A9A9A">Morning workouts boost your productivity by 35%</text>
  
  <!-- Side Panels -->
  
  <!-- Health-Habit Connection -->
  <g>
    <rect x="580" y="230" width="200" height="220" rx="15" ry="15" fill="#FFFFFF" stroke="#2A3990" stroke-width="2" filter="url(#shadow)" />
    <text x="600" y="260" font-family="Arial" font-size="14" font-weight="bold" fill="#2A3990">Health-Habit Connection</text>
    
    <line x1="600" y1="270" x2="760" y2="270" stroke="#E0E2E8" stroke-width="1" />
    
    <text x="600" y="290" font-family="Arial" font-size="12" fill="#333333">
      <tspan x="600" y="290">How health metrics affect your habits:</tspan>
    </text>
    
    <!-- Connection 1 -->
    <rect x="600" y="300" width="160" height="40" rx="5" ry="5" fill="#F6F7FB" />
    <text x="610" y="315" font-family="Arial" font-size="12" font-weight="bold" fill="#333333">Sleep Quality</text>
    <text x="610" y="330" font-family="Arial" font-size="10" fill="#333333">↑ Deep Work Focus</text>
    <rect x="735" y="315" width="15" height="15" rx="7.5" ry="7.5" fill="#83CE8B" />
    <text x="742.5" y="326" font-family="Arial" font-size="12" text-anchor="middle" fill="#FFFFFF">+</text>
    
    <!-- Connection 2 -->
    <rect x="600" y="350" width="160" height="40" rx="5" ry="5" fill="#F6F7FB" />
    <text x="610" y="365" font-family="Arial" font-size="12" font-weight="bold" fill="#333333">Exercise Frequency</text>
    <text x="610" y="380" font-family="Arial" font-size="10" fill="#333333">↑ Task Completion Rate</text>
    <rect x="735" y="365" width="15" height="15" rx="7.5" ry="7.5" fill="#83CE8B" />
    <text x="742.5" y="376" font-family="Arial" font-size="12" text-anchor="middle" fill="#FFFFFF">+</text>
    
    <!-- Connection 3 -->
    <rect x="600" y="400" width="160" height="40" rx="5" ry="5" fill="#F6F7FB" />
    <text x="610" y="415" font-family="Arial" font-size="12" font-weight="bold" fill="#333333">Screen Time</text>
    <text x="610" y="430" font-family="Arial" font-size="10" fill="#333333">↓ Evening Routine Quality</text>
    <rect x="735" y="415" width="15" height="15" rx="7.5" ry="7.5" fill="#E54D42" />
    <text x="742.5" y="426" font-family="Arial" font-size="12" text-anchor="middle" fill="#FFFFFF">–</text>
  </g>
  
  <!-- Weekly Trends Analysis -->
  <g>
    <rect x="580" y="460" width="200" height="230" rx="15" ry="15" fill="#FFFFFF" stroke="#2A3990" stroke-width="2" filter="url(#shadow)" />
    <text x="600" y="490" font-family="Arial" font-size="14" font-weight="bold" fill="#2A3990">Weekly Trends</text>
    
    <line x1="600" y1="500" x2="760" y2="500" stroke="#E0E2E8" stroke-width="1" />
    
    <text x="600" y="520" font-family="Arial" font-size="12" fill="#333333">
      <tspan x="600" y="520">Sleep vs Productivity:</tspan>
    </text>
    
    <!-- Mini Chart -->
    <rect x="600" y="530" width="160" height="100" rx="5" ry="5" fill="#F6F7FB" />
    
    <!-- Sleep Line -->
    <path d="M600,590 C610,585 620,570 630,580 C640,590 650,595 660,575 C670,555 680,560 690,565 C700,570 710,580 720,575 C730,570 740,560 750,565 C760,570" fill="none" stroke="#5FCDFA" stroke-width="2" />
    
    <!-- Productivity Line -->
    <path d="M600,600 C610,590 620,585 630,575 C640,565 650,580 660,570 C670,560 680,565 690,560 C700,555 710,565 720,570 C730,575 740,565 750,570 C760,575" fill="none" stroke="#2A3990" stroke-width="2" />
    
    <text x="620" y="620" font-family="Arial" font-size="8" fill="#5FCDFA">Sleep</text>
    <text x="660" y="620" font-family="Arial" font-size="8" fill="#2A3990">Productivity</text>
    
    <text x="600" y="645" font-family="Arial" font-size="12" fill="#333333">
      <tspan x="600" y="645">Exercise Consistency:</tspan>
    </text>
    
    <!-- Exercise Bar Chart -->
    <rect x="600" y="655" width="160" height="80" rx="5" ry="5" fill="#F6F7FB" />
    
    <rect x="610" y="710" width="15" height="15" rx="2" ry="2" fill="#75D701" />
    <rect x="635" y="695" width="15" height="30" rx="2" ry="2" fill="#75D701" />
    <rect x="660" y="680" width="15" height="45" rx="2" ry="2" fill="#75D701" />
    <rect x="685" y="700" width="15" height="25" rx="2" ry="2" fill="#75D701" />
    <rect x="710" y="675" width="15" height="50" rx="2" ry="2" fill="#75D701" />
    <rect x="735" y="695" width="15" height="30" rx="2" ry="2" fill="#75D701" />
    
    <text x="610" y="735" font-family="Arial" font-size="8" fill="#9A9A9A">M</text>
    <text x="635" y="735" font-family="Arial" font-size="8" fill="#9A9A9A">T</text>
    <text x="660" y="735" font-family="Arial" font-size="8" fill="#9A9A9A">W</text>
    <text x="685" y="735" font-family="Arial" font-size="8" fill="#9A9A9A">T</text>
    <text x="710" y="735" font-family="Arial" font-size="8" fill="#9A9A9A">F</text>
    <text x="735" y="735" font-family="Arial" font-size="8" fill="#9A9A9A">S</text>
  </g>
  
  <!-- Medical Integration Options -->
  <g>
    <rect x="580" y="700" width="200" height="230" rx="15" ry="15" fill="#FFFFFF" stroke="#2A3990" stroke-width="2" filter="url(#shadow)" />
    <text x="600" y="730" font-family="Arial" font-size="14" font-weight="bold" fill="#2A3990">Health Record Access</text>
    
    <line x1="600" y1="740" x2="760" y2="740" stroke="#E0E2E8" stroke-width="1" />
    
    <text x="600" y="760" font-family="Arial" font-size="12" fill="#333333">
      <tspan x="600" y="760">Medical integration options:</tspan>
    </text>
    
    <!-- Health Record Option 1 -->
    <rect x="600" y="770" width="160" height="40" rx="5" ry="5" fill="#F6F7FB" />
    <text x="615" y="790" font-family="Arial" font-size="12" fill="#333333">Medical Appointments</text>
    <rect x="740" y="780" width="20" height="20" rx="10" ry="10" fill="#F6F7FB" stroke="#2A3990" stroke-width="1" />
    <circle cx="750" cy="790" r="6" fill="#FFFFFF" />
    
    <!-- Health Record Option 2 -->
    <rect x="600" y="820" width="160" height="40" rx="5" ry="5" fill="#F6F7FB" />
    <text x="615" y="840" font-family="Arial" font-size="12" fill="#333333">Medication Tracking</text>
    <rect x="740" y="830" width="20" height="20" rx="10" ry="10" fill="#F6F7FB" stroke="#2A3990" stroke-width="1" />
    <circle cx="750" cy="840" r="6" fill="#FFFFFF" />
    
    <!-- Health Record Option 3 -->
    <rect x="600" y="870" width="160" height="40" rx="5" ry="5" fill="#F6F7FB" />
    <text x="615" y="890" font-family="Arial" font-size="12" fill="#333333">Vital Statistics</text>
    <rect x="740" y="880" width="20" height="20" rx="10" ry="10" fill="#2A3990" />
    <circle cx="750" cy="890" r="6" fill="#FFFFFF" />
    
    <text x="600" y="920" font-family="Arial" font-size="10" fill="#9A9A9A">
      <tspan x="600" y="920">All health data is encrypted and</tspan>
      <tspan x="600" y="935">only accessible to you</tspan>
    </text>
  </g>
  
  <!-- Health Import Notification -->
  <g>
    <rect x="270" y="170" width="260" height="80" rx="10" ry="10" fill="#FFFFFF" filter="url(#shadow)" />
    <rect x="270" y="170" width="260" height="25" rx="10" ry="10" fill="#2A3990" />
    <text x="290" y="188" font-family="Arial" font-size="12" fill="#FFFFFF">Health Update</text>
    <text x="510" y="188" font-family="Arial" font-size="12" text-anchor="end" fill="#FFFFFF">now</text>
    <text x="290" y="215" font-family="Arial" font-size="14" font-weight="bold" fill="#333333">Workout imported from Fitbit</text>
    <text x="290" y="235" font-family="Arial" font-size="12" fill="#9A9A9A">45 min Running • 420 calories burned</text>
  </g>
  
  <!-- Caption -->
  <text x="400" y="1150" font-family="Arial" font-size="16" text-anchor="middle" fill="#333333">
    <tspan x="400" y="1150">Project Kage - Health Tracking Integration</tspan>
    <tspan x="400" y="1175">Feature: Holistic Health and Habit Connection</tspan>
  </text>
  
  <!-- Drop shadow for panels -->
  <defs>
    <filter id="shadow" x="-20%" y="-20%" width="140%" height="140%">
      <feDropShadow dx="0" dy="4" stdDeviation="4" flood-color="#0003" />
    </filter>
  </defs>
</svg>
