<?xml version="1.0" encoding="UTF-8"?>
<svg viewBox="0 0 800 1200" xmlns="http://www.w3.org/2000/svg">
  <!-- Background -->
  <rect width="800" height="1200" fill="#F6F7FB" />
  
  <!-- Phone Frame -->
  <rect x="150" y="100" width="500" height="1000" rx="40" ry="40" fill="#FFFFFF" stroke="#E0E2E8" stroke-width="2" />
  
  <!-- Status Bar -->
  <rect x="150" y="100" width="500" height="50" rx="40" ry="40" fill="#FFFFFF" />
  <text x="430" y="132" font-family="Arial" font-size="16" text-anchor="middle" fill="#333333">10:45 AM</text>
  
  <!-- Navigation Bar at bottom -->
  <rect x="150" y="1050" width="500" height="50" rx="40" ry="40" fill="#FFFFFF" />
  
  <!-- App Header -->
  <rect x="150" y="150" width="500" height="70" fill="#2A3990" /> <!-- Deep indigo color -->
  <text x="275" y="195" font-family="Arial" font-size="24" font-weight="bold" text-anchor="middle" fill="#FFFFFF">Today</text>
  <text x="550" y="195" font-family="Arial" font-size="14" text-anchor="end" fill="#FFFFFF">Tuesday, May 9</text>
  
  <!-- Main Container -->
  <rect x="170" y="230" width="460" height="810" fill="#F6F7FB" rx="15" ry="15" />
  
  <!-- Daily Overview Card -->
  <rect x="190" y="250" width="420" height="100" rx="15" ry="15" fill="#FFFFFF" stroke="#E0E2E8" stroke-width="2" />
  
  <text x="210" y="280" font-family="Arial" font-size="16" font-weight="bold" fill="#2A3990">Daily Overview</text>
  
  <!-- Progress Metrics -->
  <rect x="210" y="295" width="125" height="40" rx="10" ry="10" fill="#F6F7FB" />
  <text x="272.5" y="315" font-family="Arial" font-size="16" font-weight="bold" text-anchor="middle" fill="#2A3990">2/7</text>
  <text x="272.5" y="330" font-family="Arial" font-size="10" text-anchor="middle" fill="#9A9A9A">Habits Completed</text>
  
  <rect x="342.5" y="295" width="125" height="40" rx="10" ry="10" fill="#F6F7FB" />
  <text x="405" y="315" font-family="Arial" font-size="16" font-weight="bold" text-anchor="middle" fill="#2A3990">3h 15m</text>
  <text x="405" y="330" font-family="Arial" font-size="10" text-anchor="middle" fill="#9A9A9A">Focused Time</text>
  
  <rect x="475" y="295" width="125" height="40" rx="10" ry="10" fill="#F6F7FB" />
  <text x="537.5" y="315" font-family="Arial" font-size="16" font-weight="bold" text-anchor="middle" fill="#83CE8B">71%</text>
  <text x="537.5" y="330" font-family="Arial" font-size="10" text-anchor="middle" fill="#9A9A9A">Daily Progress</text>
  
  <!-- Timeline View -->
  <rect x="190" y="360" width="420" height="670" rx="15" ry="15" fill="#FFFFFF" stroke="#E0E2E8" stroke-width="2" />
  
  <text x="210" y="390" font-family="Arial" font-size="16" font-weight="bold" fill="#2A3990">Today's Timeline</text>
  
  <!-- Current Time Indicator -->
  <line x1="210" y1="425" x2="590" y2="425" stroke="#E54D42" stroke-width="2" stroke-dasharray="4 2" />
  <circle cx="210" cy="425" r="5" fill="#E54D42" />
  <text x="225" y="420" font-family="Arial" font-size="12" fill="#E54D42">Now (10:45 AM)</text>
  
  <!-- Timeline Item: Morning Routine (Completed) -->
  <line x1="230" y1="460" x2="230" y2="510" stroke="#E0E2E8" stroke-width="1" />
  <circle cx="230" cy="460" r="10" fill="#83CE8B" />
  <text x="230" y="465" font-family="Arial" font-size="12" font-weight="bold" text-anchor="middle" fill="#FFFFFF">✓</text>
  
  <rect x="245" y="445" width="345" height="50" rx="10" ry="10" fill="#F6F7FB" />
  <text x="265" y="465" font-family="Arial" font-size="14" font-weight="bold" fill="#333333">Morning Routine</text>
  <text x="265" y="483" font-family="Arial" font-size="12" fill="#9A9A9A">7:00 AM - 8:00 AM • Completed</text>
  
  <rect x="550" y="445" width="30" height="30" rx="15" ry="15" fill="#83CE8B22" />
  <text x="565" y="465" font-family="Arial" font-size="14" font-weight="bold" text-anchor="middle" fill="#83CE8B">✓</text>
  
  <!-- Timeline Item: Meditation (Completed) -->
  <line x1="230" y1="510" x2="230" y2="560" stroke="#E0E2E8" stroke-width="1" />
  <circle cx="230" cy="510" r="10" fill="#83CE8B" />
  <text x="230" y="515" font-family="Arial" font-size="12" font-weight="bold" text-anchor="middle" fill="#FFFFFF">✓</text>
  
  <rect x="245" y="495" width="345" height="50" rx="10" ry="10" fill="#F6F7FB" />
  <text x="265" y="515" font-family="Arial" font-size="14" font-weight="bold" fill="#333333">Morning Meditation</text>
  <text x="265" y="533" font-family="Arial" font-size="12" fill="#9A9A9A">8:15 AM - 8:25 AM • Completed</text>
  
  <rect x="550" y="495" width="30" height="30" rx="15" ry="15" fill="#83CE8B22" />
  <text x="565" y="515" font-family="Arial" font-size="14" font-weight="bold" text-anchor="middle" fill="#83CE8B">✓</text>
  
  <!-- Timeline Item: Deep Work (In Progress) -->
  <line x1="230" y1="560" x2="230" y2="610" stroke="#E0E2E8" stroke-width="1" />
  <circle cx="230" cy="560" r="10" fill="#F5A623" />
  <text x="230" y="565" font-family="Arial" font-size="12" font-weight="bold" text-anchor="middle" fill="#FFFFFF">▶</text>
  
  <rect x="245" y="545" width="345" height="50" rx="10" ry="10" fill="#F5A62322" />
  <text x="265" y="565" font-family="Arial" font-size="14" font-weight="bold" fill="#333333">Deep Work Session</text>
  <text x="265" y="583" font-family="Arial" font-size="12" fill="#9A9A9A">9:00 AM - 11:30 AM • In Progress</text>
  
  <rect x="550" y="545" width="30" height="30" rx="15" ry="15" fill="#F5A62333" />
  <text x="565" y="565" font-family="Arial" font-size="14" font-weight="bold" text-anchor="middle" fill="#F5A623">▶</text>
  
  <!-- Timeline Item: Exercise -->
  <line x1="230" y1="610" x2="230" y2="660" stroke="#E0E2E8" stroke-width="1" />
  <circle cx="230" cy="610" r="10" fill="#9A9A9A" />
  <text x="230" y="615" font-family="Arial" font-size="12" font-weight="bold" text-anchor="middle" fill="#FFFFFF">⬛</text>
  
  <rect x="245" y="595" width="345" height="50" rx="10" ry="10" fill="#F6F7FB" />
  <text x="265" y="615" font-family="Arial" font-size="14" font-weight="bold" fill="#333333">Exercise Session</text>
  <text x="265" y="633" font-family="Arial" font-size="12" fill="#9A9A9A">12:00 PM - 12:30 PM • Upcoming</text>
  
  <rect x="550" y="595" width="30" height="30" rx="15" ry="15" fill="#F6F7FB" />
  <text x="565" y="615" font-family="Arial" font-size="14" text-anchor="middle" fill="#9A9A9A">⬛</text>
  
  <!-- Timeline Item: Lunch Break -->
  <line x1="230" y1="660" x2="230" y2="710" stroke="#E0E2E8" stroke-width="1" />
  <circle cx="230" cy="660" r="10" fill="#9A9A9A" />
  <text x="230" y="665" font-family="Arial" font-size="12" font-weight="bold" text-anchor="middle" fill="#FFFFFF">⬛</text>
  
  <rect x="245" y="645" width="345" height="50" rx="10" ry="10" fill="#F6F7FB" />
  <text x="265" y="665" font-family="Arial" font-size="14" font-weight="bold" fill="#333333">Lunch Break</text>
  <text x="265" y="683" font-family="Arial" font-size="12" fill="#9A9A9A">12:30 PM - 1:30 PM • Upcoming</text>
  
  <rect x="550" y="645" width="30" height="30" rx="15" ry="15" fill="#F6F7FB" />
  <text x="565" y="665" font-family="Arial" font-size="14" text-anchor="middle" fill="#9A9A9A">⬛</text>
  
  <!-- Timeline Item: Project Meeting -->
  <line x1="230" y1="710" x2="230" y2="760" stroke="#E0E2E8" stroke-width="1" />
  <circle cx="230" cy="710" r="10" fill="#9A9A9A" />
  <text x="230" y="715" font-family="Arial" font-size="12" font-weight="bold" text-anchor="middle" fill="#FFFFFF">⬛</text>
  
  <rect x="245" y="695" width="345" height="50" rx="10" ry="10" fill="#F6F7FB" />
  <text x="265" y="715" font-family="Arial" font-size="14" font-weight="bold" fill="#333333">Project Meeting</text>
  <text x="265" y="733" font-family="Arial" font-size="12" fill="#9A9A9A">3:00 PM - 4:30 PM • Upcoming</text>
  
  <rect x="550" y="695" width="30" height="30" rx="15" ry="15" fill="#F6F7FB" />
  <text x="565" y="715" font-family="Arial" font-size="14" text-anchor="middle" fill="#9A9A9A">⬛</text>
  
  <!-- Timeline Item: Digital Detox -->
  <line x1="230" y1="760" x2="230" y2="810" stroke="#E0E2E8" stroke-width="1" />
  <circle cx="230" cy="760" r="10" fill="#9A9A9A" />
  <text x="230" y="765" font-family="Arial" font-size="12" font-weight="bold" text-anchor="middle" fill="#FFFFFF">⬛</text>
  
  <rect x="245" y="745" width="345" height="50" rx="10" ry="10" fill="#F6F7FB" />
  <text x="265" y="765" font-family="Arial" font-size="14" font-weight="bold" fill="#333333">Digital Detox</text>
  <text x="265" y="783" font-family="Arial" font-size="12" fill="#9A9A9A">6:00 PM - 7:00 PM • Upcoming</text>
  
  <rect x="550" y="745" width="30" height="30" rx="15" ry="15" fill="#F6F7FB" />
  <text x="565" y="765" font-family="Arial" font-size="14" text-anchor="middle" fill="#9A9A9A">⬛</text>
  
  <!-- Timeline Item: Evening Routine -->
  <line x1="230" y1="810" x2="230" y2="860" stroke="#E0E2E8" stroke-width="1" />
  <circle cx="230" cy="810" r="10" fill="#9A9A9A" />
  <text x="230" y="815" font-family="Arial" font-size="12" font-weight="bold" text-anchor="middle" fill="#FFFFFF">⬛</text>
  
  <rect x="245" y="795" width="345" height="50" rx="10" ry="10" fill="#F6F7FB" />
  <text x="265" y="815" font-family="Arial" font-size="14" font-weight="bold" fill="#333333">Evening Routine</text>
  <text x="265" y="833" font-family="Arial" font-size="12" fill="#9A9A9A">9:00 PM - 10:00 PM • Upcoming</text>
  
  <rect x="550" y="795" width="30" height="30" rx="15" ry="15" fill="#F6F7FB" />
  <text x="565" y="815" font-family="Arial" font-size="14" text-anchor="middle" fill="#9A9A9A">⬛</text>
  
  <!-- Timeline End -->
  <circle cx="230" cy="865" r="10" fill="#E0E2E8" />
  <text x="230" y="870" font-family="Arial" font-size="12" font-weight="bold" text-anchor="middle" fill="#FFFFFF">⬜</text>
  
  <!-- Daily Note Button -->
  <rect x="245" y="865" width="345" height="50" rx="25" ry="25" fill="#2A399022" />
  <text x="417.5" y="895" font-family="Arial" font-size="14" font-weight="bold" text-anchor="middle" fill="#2A3990">Add Daily Note</text>
  
  <!-- Side Card: Daily Progress -->
  <g>
    <rect x="580" y="250" width="200" height="180" rx="15" ry="15" fill="#FFFFFF" stroke="#2A3990" stroke-width="2" filter="url(#shadow)" />
    <text x="600" y="280" font-family="Arial" font-size="14" font-weight="bold" fill="#2A3990">Daily Progress</text>
    
    <line x1="600" y1="290" x2="760" y2="290" stroke="#E0E2E8" stroke-width="1" />
    
    <!-- Progress Chart -->
    <circle cx="680" cy="360" r="50" fill="#FFFFFF" stroke="#E0E2E8" stroke-width="2" />
    <path d="M680,310 A50,50 0 1,1 644,339" stroke="#83CE8B" stroke-width="8" fill="none" stroke-linecap="round" />
    <text x="680" y="355" font-family="Arial" font-size="18" font-weight="bold" text-anchor="middle" fill="#2A3990">71%</text>
    <text x="680" y="375" font-family="Arial" font-size="12" text-anchor="middle" fill="#9A9A9A">Completed</text>
    
    <!-- Legend -->
    <rect x="600" y="310" width="12" height="12" rx="2" ry="2" fill="#83CE8B" />
    <text x="620" y="320" font-family="Arial" font-size="12" fill="#333333">Completed</text>
    
    <rect x="600" y="330" width="12" height="12" rx="2" ry="2" fill="#F5A623" />
    <text x="620" y="340" font-family="Arial" font-size="12" fill="#333333">In Progress</text>
    
    <rect x="600" y="350" width="12" height="12" rx="2" ry="2" fill="#9A9A9A" />
    <text x="620" y="360" font-family="Arial" font-size="12" fill="#333333">Upcoming</text>
  </g>
  
  <!-- Side Card: Quick Edit -->
  <g>
    <rect x="580" y="440" width="200" height="180" rx="15" ry="15" fill="#FFFFFF" stroke="#F5A623" stroke-width="2" filter="url(#shadow)" />
    <text x="600" y="470" font-family="Arial" font-size="14" font-weight="bold" fill="#F5A623">Quick Schedule Edit</text>
    
    <line x1="600" y1="480" x2="760" y2="480" stroke="#E0E2E8" stroke-width="1" />
    
    <text x="600" y="500" font-family="Arial" font-size="12" fill="#333333">
      <tspan x="600" y="500">Make changes to your day:</tspan>
    </text>
    
    <!-- Action 1 -->
    <rect x="600" y="515" width="160" height="30" rx="15" ry="15" fill="#F6F7FB" />
    <text x="680" y="535" font-family="Arial" font-size="12" text-anchor="middle" fill="#333333">Add New Item</text>
    
    <!-- Action 2 -->
    <rect x="600" y="555" width="160" height="30" rx="15" ry="15" fill="#F6F7FB" />
    <text x="680" y="575" font-family="Arial" font-size="12" text-anchor="middle" fill="#333333">Rearrange Schedule</text>
    
    <!-- Action 3 -->
    <rect x="600" y="595" width="160" height="30" rx="15" ry="15" fill="#F6F7FB" />
    <text x="680" y="615" font-family="Arial" font-size="12" text-anchor="middle" fill="#333333">Adjust Time Blocks</text>
  </g>
  
  <!-- Side Card: View Options -->
  <g>
    <rect x="580" y="630" width="200" height="180" rx="15" ry="15" fill="#FFFFFF" stroke="#2A3990" stroke-width="2" filter="url(#shadow)" />
    <text x="600" y="660" font-family="Arial" font-size="14" font-weight="bold" fill="#2A3990">View Options</text>
    
    <line x1="600" y1="670" x2="760" y2="670" stroke="#E0E2E8" stroke-width="1" />
    
    <text x="600" y="690" font-family="Arial" font-size="12" fill="#333333">
      <tspan x="600" y="690">Change how you see your day:</tspan>
    </text>
    
    <!-- View Option 1 -->
    <rect x="600" y="705" width="160" height="30" rx="15" ry="15" fill="#2A3990" />
    <text x="680" y="725" font-family="Arial" font-size="12" font-weight="bold" text-anchor="middle" fill="#FFFFFF">Timeline View</text>
    
    <!-- View Option 2 -->
    <rect x="600" y="745" width="160" height="30" rx="15" ry="15" fill="#F6F7FB" />
    <text x="680" y="765" font-family="Arial" font-size="12" text-anchor="middle" fill="#333333">Calendar View</text>
    
    <!-- View Option 3 -->
    <rect x="600" y="785" width="160" height="30" rx="15" ry="15" fill="#F6F7FB" />
    <text x="680" y="805" font-family="Arial" font-size="12" text-anchor="middle" fill="#333333">List View</text>
  </g>
  
  <!-- Next Up Notification -->
  <g>
    <rect x="270" y="170" width="260" height="80" rx="10" ry="10" fill="#FFFFFF" filter="url(#shadow)" />
    <rect x="270" y="170" width="260" height="25" rx="10" ry="10" fill="#F5A623" />
    <text x="290" y="188" font-family="Arial" font-size="12" fill="#FFFFFF">Coming Up</text>
    <text x="510" y="188" font-family="Arial" font-size="12" text-anchor="end" fill="#FFFFFF">15m</text>
    <text x="290" y="215" font-family="Arial" font-size="14" font-weight="bold" fill="#333333">Exercise Session in 1 hour 15 minutes</text>
    <text x="290" y="235" font-family="Arial" font-size="12" fill="#9A9A9A">12:00 PM - 12:30 PM</text>
  </g>
  
  <!-- AI Assistant Button -->
  <circle cx="400" cy="1075" r="25" fill="#2A3990" filter="url(#shadow)" />
  <text x="400" y="1082" font-family="Arial" font-size="20" font-weight="bold" text-anchor="middle" fill="#FFFFFF">AI</text>
  
  <!-- Caption -->
  <text x="400" y="1150" font-family="Arial" font-size="16" text-anchor="middle" fill="#333333">
    <tspan x="400" y="1150">Project Kage - Today View</tspan>
    <tspan x="400" y="1175">Feature: Focused Daily Schedule</tspan>
  </text>
  
  <!-- Drop shadow for panels -->
  <defs>
    <filter id="shadow" x="-20%" y="-20%" width="140%" height="140%">
      <feDropShadow dx="0" dy="4" stdDeviation="4" flood-color="#0003" />
    </filter>
  </defs>
</svg>
