<?xml version="1.0" encoding="UTF-8"?>
<svg viewBox="0 0 800 1200" xmlns="http://www.w3.org/2000/svg">
  <!-- Background -->
  <rect width="800" height="1200" fill="#F6F7FB" />
  
  <!-- Phone Frame -->
  <rect x="150" y="100" width="500" height="1000" rx="40" ry="40" fill="#FFFFFF" stroke="#E0E2E8" stroke-width="2" />
  
  <!-- Status Bar -->
  <rect x="150" y="100" width="500" height="50" rx="40" ry="40" fill="#FFFFFF" />
  <text x="430" y="132" font-family="Arial" font-size="16" text-anchor="middle" fill="#333333">2:45 PM</text>
  
  <!-- Navigation Bar at bottom -->
  <rect x="150" y="1050" width="500" height="50" rx="40" ry="40" fill="#FFFFFF" />
  
  <!-- App Header -->
  <rect x="150" y="150" width="500" height="70" fill="#2A3990" /> <!-- Deep indigo color -->
  <text x="400" y="195" font-family="Arial" font-size="24" font-weight="bold" text-anchor="middle" fill="#FFFFFF">Tasks</text>
  
  <!-- Sub-header with tabs -->
  <rect x="150" y="220" width="500" height="50" fill="#FFFFFF" />
  <rect x="170" y="220" width="90" height="50" fill="#FFFFFF" />
  <text x="215" y="250" font-family="Arial" font-size="16" font-weight="bold" text-anchor="middle" fill="#2A3990">Today</text>
  <rect x="214" y="265" width="40" height="3" rx="1.5" ry="1.5" fill="#2A3990" />
  
  <rect x="260" y="220" width="90" height="50" fill="#FFFFFF" />
  <text x="305" y="250" font-family="Arial" font-size="16" text-anchor="middle" fill="#9A9A9A">Upcoming</text>
  
  <rect x="350" y="220" width="90" height="50" fill="#FFFFFF" />
  <text x="395" y="250" font-family="Arial" font-size="16" text-anchor="middle" fill="#9A9A9A">Projects</text>
  
  <rect x="440" y="220" width="90" height="50" fill="#FFFFFF" />
  <text x="485" y="250" font-family="Arial" font-size="16" text-anchor="middle" fill="#9A9A9A">All</text>
  
  <!-- Date Display -->
  <rect x="170" y="270" width="460" height="40" fill="#F6F7FB" />
  <text x="190" y="297" font-family="Arial" font-size="16" font-weight="bold" fill="#333333">Friday, May 9</text>
  <text x="585" y="297" font-family="Arial" font-size="16" text-anchor="end" fill="#333333">5 tasks</text>
  
  <!-- Main Container -->
  <rect x="170" y="310" width="460" height="730" fill="#F6F7FB" rx="15" ry="15" />
  
  <!-- High Priority Section -->
  <text x="190" y="340" font-family="Arial" font-size="14" font-weight="bold" fill="#E54D42">HIGH PRIORITY</text>
  
  <!-- Task Item 1 -->
  <rect x="190" y="350" width="420" height="80" rx="10" ry="10" fill="#FFFFFF" stroke="#E0E2E8" stroke-width="1" />
  <circle cx="220" cy="390" r="15" fill="#F6F7FB" stroke="#E54D42" stroke-width="2" />
  
  <text x="250" y="375" font-family="Arial" font-size="16" font-weight="bold" fill="#333333">Submit project proposal</text>
  <text x="250" y="395" font-family="Arial" font-size="12" fill="#9A9A9A">Work • Due 4:00 PM</text>
  
  <rect x="250" y="405" width="80" height="20" rx="10" ry="10" fill="#F6F7FB" />
  <text x="290" y="420" font-family="Arial" font-size="10" text-anchor="middle" fill="#2A3990">Career Goal</text>
  
  <rect x="560" y="370" width="30" height="30" rx="15" ry="15" fill="#F6F7FB" />
  <text x="575" y="390" font-family="Arial" font-size="12" text-anchor="middle" fill="#9A9A9A">⋮</text>
  
  <!-- Medium Priority Section -->
  <text x="190" y="450" font-family="Arial" font-size="14" font-weight="bold" fill="#F5A623">MEDIUM PRIORITY</text>
  
  <!-- Task Item 2 -->
  <rect x="190" y="460" width="420" height="100" rx="10" ry="10" fill="#FFFFFF" stroke="#E0E2E8" stroke-width="1" />
  <circle cx="220" cy="510" r="15" fill="#F6F7FB" stroke="#F5A623" stroke-width="2" />
  
  <text x="250" y="485" font-family="Arial" font-size="16" font-weight="bold" fill="#333333">Prepare materials for meeting</text>
  <text x="250" y="505" font-family="Arial" font-size="12" fill="#9A9A9A">Work • Due 3:30 PM</text>
  
  <rect x="250" y="515" width="80" height="20" rx="10" ry="10" fill="#F6F7FB" />
  <text x="290" y="530" font-family="Arial" font-size="10" text-anchor="middle" fill="#2A3990">Career Goal</text>
  
  <rect x="340" y="515" width="120" height="20" rx="10" ry="10" fill="#F6F7FB" />
  <text x="400" y="530" font-family="Arial" font-size="10" text-anchor="middle" fill="#9A9A9A">30 min estimated</text>
  
  <rect x="560" y="490" width="30" height="30" rx="15" ry="15" fill="#F6F7FB" />
  <text x="575" y="510" font-family="Arial" font-size="12" text-anchor="middle" fill="#9A9A9A">⋮</text>
  
  <!-- Task Item 3 -->
  <rect x="190" y="570" width="420" height="80" rx="10" ry="10" fill="#FFFFFF" stroke="#E0E2E8" stroke-width="1" />
  <circle cx="220" cy="610" r="15" fill="#F6F7FB" stroke="#F5A623" stroke-width="2" />
  
  <text x="250" y="595" font-family="Arial" font-size="16" font-weight="bold" fill="#333333">Call doctor for appointment</text>
  <text x="250" y="615" font-family="Arial" font-size="12" fill="#9A9A9A">Personal • Before 5:00 PM</text>
  
  <rect x="250" y="625" width="80" height="20" rx="10" ry="10" fill="#F6F7FB" />
  <text x="290" y="640" font-family="Arial" font-size="10" text-anchor="middle" fill="#2A3990">Health Goal</text>
  
  <rect x="560" y="590" width="30" height="30" rx="15" ry="15" fill="#F6F7FB" />
  <text x="575" y="610" font-family="Arial" font-size="12" text-anchor="middle" fill="#9A9A9A">⋮</text>
  
  <!-- Regular Priority Section -->
  <text x="190" y="670" font-family="Arial" font-size="14" font-weight="bold" fill="#9A9A9A">REGULAR</text>
  
  <!-- Task Item 4 (Completed) -->
  <rect x="190" y="680" width="420" height="80" rx="10" ry="10" fill="#FFFFFF" stroke="#E0E2E8" stroke-width="1" />
  <circle cx="220" cy="720" r="15" fill="#83CE8B" />
  <text x="220" y="725" font-family="Arial" font-size="16" font-weight="bold" text-anchor="middle" fill="#FFFFFF">✓</text>
  
  <text x="250" y="705" font-family="Arial" font-size="16" font-weight="bold" fill="#9A9A9A"><tspan text-decoration="line-through">Review project documentation</tspan></text>
  <text x="250" y="725" font-family="Arial" font-size="12" fill="#9A9A9A">Work • Completed at 1:30 PM</text>
  
  <rect x="250" y="735" width="80" height="20" rx="10" ry="10" fill="#F6F7FB" />
  <text x="290" y="750" font-family="Arial" font-size="10" text-anchor="middle" fill="#9A9A9A">Career Goal</text>
  
  <rect x="560" y="700" width="30" height="30" rx="15" ry="15" fill="#F6F7FB" />
  <text x="575" y="720" font-family="Arial" font-size="12" text-anchor="middle" fill="#9A9A9A">⋮</text>
  
  <!-- Task Item 5 -->
  <rect x="190" y="770" width="420" height="120" rx="10" ry="10" fill="#FFFFFF" stroke="#E0E2E8" stroke-width="1" />
  <circle cx="220" cy="830" r="15" fill="#F6F7FB" stroke="#9A9A9A" stroke-width="2" />
  
  <text x="250" y="795" font-family="Arial" font-size="16" font-weight="bold" fill="#333333">Grocery shopping</text>
  <text x="250" y="815" font-family="Arial" font-size="12" fill="#9A9A9A">Personal • Anytime today</text>
  
  <rect x="250" y="825" width="120" height="20" rx="10" ry="10" fill="#F6F7FB" />
  <text x="310" y="840" font-family="Arial" font-size="10" text-anchor="middle" fill="#2A3990">Healthy Eating Goal</text>
  
  <!-- Subtasks -->
  <rect x="250" y="850" width="360" height="30" rx="5" ry="5" fill="#F6F7FB" />
  <text x="265" y="870" font-family="Arial" font-size="12" fill="#9A9A9A">3 subtasks: Vegetables, Fruits, Protein</text>
  
  <rect x="560" y="805" width="30" height="30" rx="15" ry="15" fill="#F6F7FB" />
  <text x="575" y="825" font-family="Arial" font-size="12" text-anchor="middle" fill="#9A9A9A">⋮</text>
  
  <!-- Add Task Button (Floating) -->
  <circle cx="570" cy="970" r="30" fill="#2A3990" filter="url(#shadow)" />
  <text x="570" y="977" font-family="Arial" font-size="24" font-weight="bold" text-anchor="middle" fill="#FFFFFF">+</text>
  
  <!-- Task Detail Panel (Slide-up) -->
  <g>
    <rect x="170" y="600" width="460" height="450" rx="15" ry="15" fill="#FFFFFF" filter="url(#shadow)" />
    
    <!-- Handle -->
    <rect x="370" y="610" width="60" height="6" rx="3" ry="3" fill="#E0E2E8" />
    
    <!-- Task Title -->
    <text x="200" y="645" font-family="Arial" font-size="20" font-weight="bold" fill="#333333">Submit project proposal</text>
    
    <!-- Due Date & Priority -->
    <rect x="200" y="660" width="120" height="25" rx="12.5" ry="12.5" fill="#F6F7FB" />
    <text x="215" y="678" font-family="Arial" font-size="12" fill="#9A9A9A">🕓 Due 4:00 PM</text>
    
    <rect x="330" y="660" width="120" height="25" rx="12.5" ry="12.5" fill="#F6F7FB" />
    <text x="345" y="678" font-family="Arial" font-size="12" fill="#E54D42">⚠ High Priority</text>
    
    <!-- Description Field -->
    <text x="200" y="710" font-family="Arial" font-size="14" font-weight="bold" fill="#333333">Description</text>
    <rect x="200" y="720" width="400" height="80" rx="10" ry="10" fill="#F6F7FB" />
    <text x="215" y="745" font-family="Arial" font-size="12" fill="#333333">Finalize the quarterly project proposal including:</text>
    <text x="215" y="765" font-family="Arial" font-size="12" fill="#333333">- Budget estimates</text>
    <text x="215" y="785" font-family="Arial" font-size="12" fill="#333333">- Timeline and milestones</text>
    
    <!-- Goal Connection -->
    <text x="200" y="825" font-family="Arial" font-size="14" font-weight="bold" fill="#333333">Connected Goal</text>
    <rect x="200" y="835" width="400" height="50" rx="10" ry="10" fill="#F6F7FB" />
    <text x="215" y="865" font-family="Arial" font-size="14" fill="#2A3990">Career Advancement</text>
    <text x="425" y="865" font-family="Arial" font-size="12" text-anchor="end" fill="#9A9A9A">5% contribution</text>
    <rect x="560" y="850" width="20" height="20" rx="10" ry="10" fill="#F6F7FB" />
    <text x="570" y="865" font-family="Arial" font-size="12" text-anchor="middle" fill="#9A9A9A">▶</text>
    
    <!-- Action Buttons -->
    <rect x="200" y="900" width="190" height="40" rx="20" ry="20" fill="#2A3990" />
    <text x="295" y="925" font-family="Arial" font-size="14" font-weight="bold" text-anchor="middle" fill="#FFFFFF">Complete Task</text>
    
    <rect x="410" y="900" width="190" height="40" rx="20" ry="20" fill="#F6F7FB" />
    <text x="505" y="925" font-family="Arial" font-size="14" font-weight="bold" text-anchor="middle" fill="#E54D42">Delete Task</text>
    
    <!-- Task to Schedule Button -->
    <rect x="200" y="950" width="400" height="40" rx="20" ry="20" fill="#F6F7FB" />
    <text x="400" y="975" font-family="Arial" font-size="14" font-weight="bold" text-anchor="middle" fill="#2A3990">Schedule Time for This Task</text>
  </g>
  
  <!-- Side Explanations -->
  
  <!-- Task Creation -->
  <g>
    <rect x="580" y="200" width="200" height="220" rx="15" ry="15" fill="#FFFFFF" stroke="#2A3990" stroke-width="2" filter="url(#shadow)" />
    <text x="600" y="230" font-family="Arial" font-size="14" font-weight="bold" fill="#2A3990">Task Creation</text>
    
    <line x1="600" y1="240" x2="760" y2="240" stroke="#E0E2E8" stroke-width="1" />
    
    <text x="600" y="260" font-family="Arial" font-size="12" fill="#333333">Natural language input:</text>
    <rect x="600" y="270" width="160" height="70" rx="10" ry="10" fill="#F6F7FB" />
    <text x="610" y="290" font-family="Arial" font-size="10" fill="#333333">"Call doctor tomorrow at 2pm,</text>
    <text x="610" y="305" font-family="Arial" font-size="10" fill="#333333">high priority, connected to my</text>
    <text x="610" y="320" font-family="Arial" font-size="10" fill="#333333">health goal"</text>
    
    <text x="600" y="355" font-family="Arial" font-size="12" fill="#333333">Task attributes extracted:</text>
    <rect x="600" y="365" width="160" height="45" rx="5" ry="5" fill="#F6F7FB" />
    <text x="610" y="380" font-family="Arial" font-size="10" fill="#333333">• Title: Call doctor</text>
    <text x="610" y="395" font-family="Arial" font-size="10" fill="#333333">• Due: Tomorrow 2:00 PM</text>
    <text x="610" y="410" font-family="Arial" font-size="10" fill="#333333">• Priority: High</text>
  </g>
  
  <!-- Priority System -->
  <g>
    <rect x="580" y="430" width="200" height="160" rx="15" ry="15" fill="#FFFFFF" stroke="#2A3990" stroke-width="2" filter="url(#shadow)" />
    <text x="600" y="460" font-family="Arial" font-size="14" font-weight="bold" fill="#2A3990">Priority System</text>
    
    <line x1="600" y1="470" x2="760" y2="470" stroke="#E0E2E8" stroke-width="1" />
    
    <!-- Priority Indicators -->
    <rect x="600" y="485" width="160" height="30" rx="5" ry="5" fill="#F6F7FB" />
    <circle cx="615" cy="500" r="8" fill="#E54D42" />
    <text x="635" y="504" font-family="Arial" font-size="12" fill="#333333">High: Urgent tasks</text>
    
    <rect x="600" y="520" width="160" height="30" rx="5" ry="5" fill="#F6F7FB" />
    <circle cx="615" cy="535" r="8" fill="#F5A623" />
    <text x="635" y="539" font-family="Arial" font-size="12" fill="#333333">Medium: Important</text>
    
    <rect x="600" y="555" width="160" height="30" rx="5" ry="5" fill="#F6F7FB" />
    <circle cx="615" cy="570" r="8" fill="#9A9A9A" />
    <text x="635" y="574" font-family="Arial" font-size="12" fill="#333333">Regular: Standard</text>
  </g>
  
  <!-- Goal Integration -->
  <g>
    <rect x="580" y="600" width="200" height="180" rx="15" ry="15" fill="#FFFFFF" stroke="#2A3990" stroke-width="2" filter="url(#shadow)" />
    <text x="600" y="630" font-family="Arial" font-size="14" font-weight="bold" fill="#2A3990">Goal Integration</text>
    
    <line x1="600" y1="640" x2="760" y2="640" stroke="#E0E2E8" stroke-width="1" />
    
    <text x="600" y="660" font-family="Arial" font-size="12" fill="#333333">Tasks contribute to goals:</text>
    
    <!-- Goal Progress Bars -->
    <text x="600" y="685" font-family="Arial" font-size="12" fill="#2A3990">Career Goal</text>
    <rect x="600" y="695" width="160" height="10" rx="5" ry="5" fill="#F6F7FB" />
    <rect x="600" y="695" width="96" height="10" rx="5" ry="5" fill="#2A3990" />
    <text x="765" y="705" font-family="Arial" font-size="10" text-anchor="end" fill="#333333">60%</text>
    
    <text x="600" y="725" font-family="Arial" font-size="12" fill="#2A3990">Health Goal</text>
    <rect x="600" y="735" width="160" height="10" rx="5" ry="5" fill="#F6F7FB" />
    <rect x="600" y="735" width="32" height="10" rx="5" ry="5" fill="#2A3990" />
    <text x="765" y="745" font-family="Arial" font-size="10" text-anchor="end" fill="#333333">20%</text>
    
    <text x="600" y="765" font-family="Arial" font-size="12" fill="#2A3990">Reading Goal</text>
    <rect x="600" y="775" width="160" height="10" rx="5" ry="5" fill="#F6F7FB" />
    <rect x="600" y="775" width="120" height="10" rx="5" ry="5" fill="#2A3990" />
    <text x="765" y="785" font-family="Arial" font-size="10" text-anchor="end" fill="#333333">75%</text>
  </g>
  
  <!-- Task Management Tips -->
  <g>
    <rect x="580" y="790" width="200" height="200" rx="15" ry="15" fill="#FFFFFF" stroke="#F5A623" stroke-width="2" filter="url(#shadow)" />
    <text x="600" y="820" font-family="Arial" font-size="14" font-weight="bold" fill="#F5A623">Task Management Tips</text>
    
    <line x1="600" y1="830" x2="760" y2="830" stroke="#E0E2E8" stroke-width="1" />
    
    <!-- Tips -->
    <rect x="600" y="845" width="160" height="30" rx="5" ry="5" fill="#F6F7FB" />
    <text x="605" y="865" font-family="Arial" font-size="10" fill="#333333">📊 Complete highest priority first</text>
    
    <rect x="600" y="880" width="160" height="30" rx="5" ry="5" fill="#F6F7FB" />
    <text x="605" y="900" font-family="Arial" font-size="10" fill="#333333">⏱️ Add time estimates for better planning</text>
    
    <rect x="600" y="915" width="160" height="30" rx="5" ry="5" fill="#F6F7FB" />
    <text x="605" y="935" font-family="Arial" font-size="10" fill="#333333">🔗 Link tasks to goals for motivation</text>
    
    <rect x="600" y="950" width="160" height="30" rx="5" ry="5" fill="#F6F7FB" />
    <text x="605" y="970" font-family="Arial" font-size="10" fill="#333333">🔁 Create recurring tasks for habits</text>
  </g>
  
  <!-- Quick Add Task Alert -->
  <g>
    <rect x="270" y="170" width="260" height="80" rx="10" ry="10" fill="#FFFFFF" filter="url(#shadow)" />
    <rect x="270" y="170" width="260" height="25" rx="10" ry="10" fill="#2A3990" />
    <text x="290" y="188" font-family="Arial" font-size="12" fill="#FFFFFF">Quick Add Task</text>
    <text x="510" y="188" font-family="Arial" font-size="12" text-anchor="end" fill="#FFFFFF">now</text>
    
    <rect x="290" y="205" width="220" height="35" rx="5" ry="5" fill="#F6F7FB" />
    <text x="300" y="227" font-family="Arial" font-size="12" fill="#9A9A9A">What do you need to do?</text>
  </g>
  
  <!-- Caption -->
  <text x="400" y="1150" font-family="Arial" font-size="16" text-anchor="middle" fill="#333333">
    <tspan x="400" y="1150">Project Kage - To-do List Management</tspan>
    <tspan x="400" y="1175">Feature: Task Management with Goal Integration</tspan>
  </text>
  
  <!-- Drop shadow for panels -->
  <defs>
    <filter id="shadow" x="-20%" y="-20%" width="140%" height="140%">
      <feDropShadow dx="0" dy="4" stdDeviation="4" flood-color="#0003" />
    </filter>
  </defs>
</svg>
