<?xml version="1.0" encoding="UTF-8"?>
<svg viewBox="0 0 800 1200" xmlns="http://www.w3.org/2000/svg">
  <!-- Background -->
  <rect width="800" height="1200" fill="#F6F7FB" />
  
  <!-- Phone Frame -->
  <rect x="150" y="100" width="500" height="1000" rx="40" ry="40" fill="#FFFFFF" stroke="#E0E2E8" stroke-width="2" />
  
  <!-- Status Bar -->
  <rect x="150" y="100" width="500" height="50" rx="40" ry="40" fill="#FFFFFF" />
  <text x="430" y="132" font-family="Arial" font-size="16" text-anchor="middle" fill="#333333">11:15 AM</text>
  
  <!-- Navigation Bar at bottom -->
  <rect x="150" y="1050" width="500" height="50" rx="40" ry="40" fill="#FFFFFF" />
  
  <!-- App Header -->
  <rect x="150" y="150" width="500" height="70" fill="#2A3990" /> <!-- Deep indigo color -->
  <text x="400" y="195" font-family="Arial" font-size="24" font-weight="bold" text-anchor="middle" fill="#FFFFFF">Time Blocks</text>
  
  <!-- Main Container -->
  <rect x="170" y="230" width="460" height="810" fill="#F6F7FB" rx="15" ry="15" />
  
  <!-- Calendar Navigation -->
  <rect x="190" y="250" width="420" height="60" rx="15" ry="15" fill="#FFFFFF" stroke="#E0E2E8" stroke-width="2" />
  
  <circle cx="230" cy="280" r="15" fill="#F6F7FB" />
  <text x="230" y="285" font-family="Arial" font-size="14" text-anchor="middle" fill="#2A3990">◀</text>
  
  <text x="400" y="285" font-family="Arial" font-size="16" font-weight="bold" text-anchor="middle" fill="#333333">Monday, May 9, 2025</text>
  
  <circle cx="570" cy="280" r="15" fill="#F6F7FB" />
  <text x="570" y="285" font-family="Arial" font-size="14" text-anchor="middle" fill="#2A3990">▶</text>
  
  <!-- View Toggle -->
  <rect x="190" y="320" width="420" height="40" rx="20" ry="20" fill="#F6F7FB" />
  
  <rect x="195" y="325" width="100" height="30" rx="15" ry="15" fill="#2A3990" />
  <text x="245" y="345" font-family="Arial" font-size="14" text-anchor="middle" fill="#FFFFFF">Day</text>
  
  <text x="345" y="345" font-family="Arial" font-size="14" text-anchor="middle" fill="#9A9A9A">Week</text>
  
  <text x="445" y="345" font-family="Arial" font-size="14" text-anchor="middle" fill="#9A9A9A">Month</text>
  
  <text x="545" y="345" font-family="Arial" font-size="14" text-anchor="middle" fill="#9A9A9A">Ideal</text>
  
  <!-- Time Block Calendar -->
  <rect x="190" y="370" width="420" height="530" rx="15" ry="15" fill="#FFFFFF" stroke="#E0E2E8" stroke-width="2" />
  
  <!-- Time Markers -->
  <line x1="230" y1="400" x2="230" y2="900" stroke="#E0E2E8" stroke-width="1" />
  <text x="215" y="400" font-family="Arial" font-size="12" text-anchor="end" fill="#9A9A9A">6 AM</text>
  <text x="215" y="450" font-family="Arial" font-size="12" text-anchor="end" fill="#9A9A9A">8 AM</text>
  <text x="215" y="500" font-family="Arial" font-size="12" text-anchor="end" fill="#9A9A9A">10 AM</text>
  <text x="215" y="550" font-family="Arial" font-size="12" text-anchor="end" fill="#9A9A9A">12 PM</text>
  <text x="215" y="600" font-family="Arial" font-size="12" text-anchor="end" fill="#9A9A9A">2 PM</text>
  <text x="215" y="650" font-family="Arial" font-size="12" text-anchor="end" fill="#9A9A9A">4 PM</text>
  <text x="215" y="700" font-family="Arial" font-size="12" text-anchor="end" fill="#9A9A9A">6 PM</text>
  <text x="215" y="750" font-family="Arial" font-size="12" text-anchor="end" fill="#9A9A9A">8 PM</text>
  <text x="215" y="800" font-family="Arial" font-size="12" text-anchor="end" fill="#9A9A9A">10 PM</text>
  
  <!-- Hour Lines -->
  <line x1="230" y1="400" x2="590" y2="400" stroke="#E0E2E8" stroke-width="1" stroke-dasharray="4 4" />
  <line x1="230" y1="425" x2="590" y2="425" stroke="#E0E2E8" stroke-width="1" stroke-dasharray="4 4" />
  <line x1="230" y1="450" x2="590" y2="450" stroke="#E0E2E8" stroke-width="1" stroke-dasharray="4 4" />
  <line x1="230" y1="475" x2="590" y2="475" stroke="#E0E2E8" stroke-width="1" stroke-dasharray="4 4" />
  <line x1="230" y1="500" x2="590" y2="500" stroke="#E0E2E8" stroke-width="1" stroke-dasharray="4 4" />
  <line x1="230" y1="525" x2="590" y2="525" stroke="#E0E2E8" stroke-width="1" stroke-dasharray="4 4" />
  <line x1="230" y1="550" x2="590" y2="550" stroke="#E0E2E8" stroke-width="1" stroke-dasharray="4 4" />
  <line x1="230" y1="575" x2="590" y2="575" stroke="#E0E2E8" stroke-width="1" stroke-dasharray="4 4" />
  <line x1="230" y1="600" x2="590" y2="600" stroke="#E0E2E8" stroke-width="1" stroke-dasharray="4 4" />
  <line x1="230" y1="625" x2="590" y2="625" stroke="#E0E2E8" stroke-width="1" stroke-dasharray="4 4" />
  <line x1="230" y1="650" x2="590" y2="650" stroke="#E0E2E8" stroke-width="1" stroke-dasharray="4 4" />
  <line x1="230" y1="675" x2="590" y2="675" stroke="#E0E2E8" stroke-width="1" stroke-dasharray="4 4" />
  <line x1="230" y1="700" x2="590" y2="700" stroke="#E0E2E8" stroke-width="1" stroke-dasharray="4 4" />
  <line x1="230" y1="725" x2="590" y2="725" stroke="#E0E2E8" stroke-width="1" stroke-dasharray="4 4" />
  <line x1="230" y1="750" x2="590" y2="750" stroke="#E0E2E8" stroke-width="1" stroke-dasharray="4 4" />
  <line x1="230" y1="775" x2="590" y2="775" stroke="#E0E2E8" stroke-width="1" stroke-dasharray="4 4" />
  <line x1="230" y1="800" x2="590" y2="800" stroke="#E0E2E8" stroke-width="1" stroke-dasharray="4 4" />
  <line x1="230" y1="825" x2="590" y2="825" stroke="#E0E2E8" stroke-width="1" stroke-dasharray="4 4" />
  <line x1="230" y1="850" x2="590" y2="850" stroke="#E0E2E8" stroke-width="1" stroke-dasharray="4 4" />
  <line x1="230" y1="875" x2="590" y2="875" stroke="#E0E2E8" stroke-width="1" stroke-dasharray="4 4" />
  <line x1="230" y1="900" x2="590" y2="900" stroke="#E0E2E8" stroke-width="1" stroke-dasharray="4 4" />
  
  <!-- Current Time Indicator -->
  <line x1="230" y1="515" x2="590" y2="515" stroke="#E54D42" stroke-width="2" />
  <circle cx="230" cy="515" r="5" fill="#E54D42" />
  <text x="240" y="510" font-family="Arial" font-size="10" fill="#E54D42">11:15 AM</text>
  
  <!-- Time Blocks -->
  
  <!-- Morning Routine Block -->
  <rect x="240" y="400" width="340" height="50" rx="5" ry="5" fill="#9F85FF" opacity="0.7" />
  <text x="260" y="425" font-family="Arial" font-size="14" font-weight="bold" fill="#FFFFFF">Morning Routine</text>
  <text x="260" y="445" font-family="Arial" font-size="12" fill="#FFFFFF">Meditation, Journaling</text>
  <text x="550" y="425" font-family="Arial" font-size="12" text-anchor="end" fill="#FFFFFF">6:00 - 7:00</text>
  
  <!-- Buffer Time -->
  <rect x="240" y="450" width="340" height="12.5" rx="2" ry="2" fill="#E0E2E8" opacity="0.7" />
  <text x="410" y="460" font-family="Arial" font-size="10" text-anchor="middle" fill="#9A9A9A">Buffer Time</text>
  
  <!-- Work Block 1 -->
  <rect x="240" y="462.5" width="340" height="75" rx="5" ry="5" fill="#2A3990" opacity="0.7" />
  <text x="260" y="487.5" font-family="Arial" font-size="14" font-weight="bold" fill="#FFFFFF">Deep Work</text>
  <text x="260" y="507.5" font-family="Arial" font-size="12" fill="#FFFFFF">Project Proposal</text>
  <text x="550" y="487.5" font-family="Arial" font-size="12" text-anchor="end" fill="#FFFFFF">7:15 - 9:00</text>
  
  <!-- Break -->
  <rect x="240" y="537.5" width="340" height="25" rx="5" ry="5" fill="#83CE8B" opacity="0.7" />
  <text x="260" y="555" font-family="Arial" font-size="14" font-weight="bold" fill="#FFFFFF">Break</text>
  <text x="550" y="555" font-family="Arial" font-size="12" text-anchor="end" fill="#FFFFFF">9:00 - 9:30</text>
  
  <!-- Work Block 2 -->
  <rect x="240" y="562.5" width="340" height="75" rx="5" ry="5" fill="#2A3990" opacity="0.7" />
  <text x="260" y="587.5" font-family="Arial" font-size="14" font-weight="bold" fill="#FFFFFF">Meetings</text>
  <text x="260" y="607.5" font-family="Arial" font-size="12" fill="#FFFFFF">Team Sync, Client Call</text>
  <text x="550" y="587.5" font-family="Arial" font-size="12" text-anchor="end" fill="#FFFFFF">9:30 - 11:30</text>
  
  <!-- Lunch -->
  <rect x="240" y="637.5" width="340" height="50" rx="5" ry="5" fill="#F5A623" opacity="0.7" />
  <text x="260" y="662.5" font-family="Arial" font-size="14" font-weight="bold" fill="#FFFFFF">Lunch Break</text>
  <text x="260" y="682.5" font-family="Arial" font-size="12" fill="#FFFFFF">+ Walk</text>
  <text x="550" y="662.5" font-family="Arial" font-size="12" text-anchor="end" fill="#FFFFFF">11:30 - 12:30</text>
  
  <!-- Work Block 3 -->
  <rect x="240" y="687.5" width="340" height="100" rx="5" ry="5" fill="#2A3990" opacity="0.7" />
  <text x="260" y="712.5" font-family="Arial" font-size="14" font-weight="bold" fill="#FFFFFF">Project Work</text>
  <text x="260" y="732.5" font-family="Arial" font-size="12" fill="#FFFFFF">UI Design, Documentation</text>
  <text x="550" y="712.5" font-family="Arial" font-size="12" text-anchor="end" fill="#FFFFFF">12:30 - 3:30</text>
  
  <!-- Workout -->
  <rect x="240" y="787.5" width="340" height="50" rx="5" ry="5" fill="#E54D42" opacity="0.7" />
  <text x="260" y="812.5" font-family="Arial" font-size="14" font-weight="bold" fill="#FFFFFF">Workout</text>
  <text x="260" y="832.5" font-family="Arial" font-size="12" fill="#FFFFFF">Gym Session</text>
  <text x="550" y="812.5" font-family="Arial" font-size="12" text-anchor="end" fill="#FFFFFF">3:30 - 4:30</text>
  
  <!-- Evening Routine -->
  <rect x="240" y="837.5" width="340" height="62.5" rx="5" ry="5" fill="#9F85FF" opacity="0.7" />
  <text x="260" y="862.5" font-family="Arial" font-size="14" font-weight="bold" fill="#FFFFFF">Evening Routine</text>
  <text x="260" y="882.5" font-family="Arial" font-size="12" fill="#FFFFFF">Dinner, Reading, Wind Down</text>
  <text x="550" y="862.5" font-family="Arial" font-size="12" text-anchor="end" fill="#FFFFFF">4:30 - 6:00</text>
  
  <!-- Time Block Action Buttons -->
  <rect x="190" y="910" width="420" height="60" rx="15" ry="15" fill="#FFFFFF" stroke="#E0E2E8" stroke-width="2" />
  
  <rect x="210" y="925" width="115" height="30" rx="15" ry="15" fill="#2A3990" />
  <text x="267.5" y="945" font-family="Arial" font-size="12" text-anchor="middle" fill="#FFFFFF">Add Block</text>
  
  <rect x="335" y="925" width="115" height="30" rx="15" ry="15" fill="#F6F7FB" />
  <text x="392.5" y="945" font-family="Arial" font-size="12" text-anchor="middle" fill="#2A3990">Templates</text>
  
  <rect x="460" y="925" width="130" height="30" rx="15" ry="15" fill="#F6F7FB" />
  <text x="525" y="945" font-family="Arial" font-size="12" text-anchor="middle" fill="#2A3990">Optimize</text>
  
  <!-- Focus Mode Button -->
  <rect x="190" y="980" width="420" height="60" rx="15" ry="15" fill="#2A3990" />
  <text x="400" y="1015" font-family="Arial" font-size="16" font-weight="bold" text-anchor="middle" fill="#FFFFFF">Start Focus Mode</text>
  <text x="400" y="1035" font-family="Arial" font-size="12" text-anchor="middle" fill="#FFFFFF">Current Block: Deep Work (9:30 - 11:30)</text>
  
  <!-- Side Card: Block Types -->
  <g>
    <rect x="580" y="250" width="200" height="220" rx="15" ry="15" fill="#FFFFFF" stroke="#2A3990" stroke-width="2" filter="url(#shadow)" />
    <text x="600" y="280" font-family="Arial" font-size="14" font-weight="bold" fill="#2A3990">Block Types</text>
    
    <line x1="600" y1="290" x2="760" y2="290" stroke="#E0E2E8" stroke-width="1" />
    
    <!-- Block Type 1 -->
    <rect x="600" y="305" width="160" height="25" rx="5" ry="5" fill="#2A3990" opacity="0.7" />
    <text x="610" y="322" font-family="Arial" font-size="12" fill="#FFFFFF">Work</text>
    
    <!-- Block Type 2 -->
    <rect x="600" y="340" width="160" height="25" rx="5" ry="5" fill="#9F85FF" opacity="0.7" />
    <text x="610" y="357" font-family="Arial" font-size="12" fill="#FFFFFF">Routine</text>
    
    <!-- Block Type 3 -->
    <rect x="600" y="375" width="160" height="25" rx="5" ry="5" fill="#F5A623" opacity="0.7" />
    <text x="610" y="392" font-family="Arial" font-size="12" fill="#FFFFFF">Break/Meal</text>
    
    <!-- Block Type 4 -->
    <rect x="600" y="410" width="160" height="25" rx="5" ry="5" fill="#E54D42" opacity="0.7" />
    <text x="610" y="427" font-family="Arial" font-size="12" fill="#FFFFFF">Exercise</text>
    
    <!-- Block Type 5 -->
    <rect x="600" y="445" width="160" height="25" rx="5" ry="5" fill="#83CE8B" opacity="0.7" />
    <text x="610" y="462" font-family="Arial" font-size="12" fill="#FFFFFF">Rest</text>
  </g>
  
  <!-- Side Card: Day Statistics -->
  <g>
    <rect x="580" y="480" width="200" height="180" rx="15" ry="15" fill="#FFFFFF" stroke="#2A3990" stroke-width="2" filter="url(#shadow)" />
    <text x="600" y="510" font-family="Arial" font-size="14" font-weight="bold" fill="#2A3990">Day Balance</text>
    
    <line x1="600" y1="520" x2="760" y2="520" stroke="#E0E2E8" stroke-width="1" />
    
    <!-- Pie Chart -->
    <circle cx="650" cy="580" r="40" fill="#FFFFFF" stroke="#E0E2E8" stroke-width="1" />
    
    <!-- Pie Segments -->
    <path d="M 650 580 L 650 540 A 40 40 0 0 1 686.6 600 Z" fill="#2A3990" />
    <path d="M 650 580 L 686.6 600 A 40 40 0 0 1 650 620 Z" fill="#9F85FF" />
    <path d="M 650 580 L 650 620 A 40 40 0 0 1 613.4 600 Z" fill="#F5A623" />
    <path d="M 650 580 L 613.4 600 A 40 40 0 0 1 630 547.7 Z" fill="#E54D42" />
    <path d="M 650 580 L 630 547.7 A 40 40 0 0 1 650 540 Z" fill="#83CE8B" />
    
    <!-- Legend -->
    <rect x="710" y="555" width="10" height="10" fill="#2A3990" />
    <text x="725" y="565" font-family="Arial" font-size="10" fill="#333333">Work: 42%</text>
    
    <rect x="710" y="575" width="10" height="10" fill="#9F85FF" />
    <text x="725" y="585" font-family="Arial" font-size="10" fill="#333333">Routine: 22%</text>
    
    <rect x="710" y="595" width="10" height="10" fill="#F5A623" />
    <text x="725" y="605" font-family="Arial" font-size="10" fill="#333333">Breaks: 16%</text>
    
    <rect x="710" y="615" width="10" height="10" fill="#E54D42" />
    <text x="725" y="625" font-family="Arial" font-size="10" fill="#333333">Exercise: 12%</text>
    
    <rect x="710" y="635" width="10" height="10" fill="#83CE8B" />
    <text x="725" y="645" font-family="Arial" font-size="10" fill="#333333">Rest: 8%</text>
  </g>
  
  <!-- Side Card: Focus Tips -->
  <g>
    <rect x="580" y="670" width="200" height="180" rx="15" ry="15" fill="#FFFFFF" stroke="#F5A623" stroke-width="2" filter="url(#shadow)" />
    <text x="600" y="700" font-family="Arial" font-size="14" font-weight="bold" fill="#F5A623">Schedule Insights</text>
    
    <line x1="600" y1="710" x2="760" y2="710" stroke="#E0E2E8" stroke-width="1" />
    
    <text x="600" y="730" font-family="Arial" font-size="12" fill="#333333">
      <tspan x="600" y="730">Your schedule today is well</tspan>
      <tspan x="600" y="750">balanced with appropriate</tspan>
      <tspan x="600" y="770">breaks between deep work.</tspan>
    </text>
    
    <text x="600" y="800" font-family="Arial" font-size="12" fill="#333333">
      <tspan x="600" y="800">Suggestion: Consider adding</tspan>
      <tspan x="600" y="820">a short walk after lunch to</tspan>
      <tspan x="600" y="840">boost afternoon energy.</tspan>
    </text>
  </g>
  
  <!-- Caption -->
  <text x="400" y="1150" font-family="Arial" font-size="16" text-anchor="middle" fill="#333333">
    <tspan x="400" y="1150">Project Kage - Time-blocking Calendar</tspan>
    <tspan x="400" y="1175">Feature: Visual Scheduling System</tspan>
  </text>
  
  <!-- Drag Handle Illustration -->
  <g transform="translate(410, 523.75)">
    <rect x="-10" y="-10" width="20" height="20" fill="#FFFFFF" fill-opacity="0.8" rx="3" ry="3" />
    <line x1="-5" y1="-3" x2="5" y2="-3" stroke="#2A3990" stroke-width="2" />
    <line x1="-5" y1="0" x2="5" y2="0" stroke="#2A3990" stroke-width="2" />
    <line x1="-5" y1="3" x2="5" y2="3" stroke="#2A3990" stroke-width="2" />
  </g>
  
  <!-- Drop shadow for panels -->
  <defs>
    <filter id="shadow" x="-20%" y="-20%" width="140%" height="140%">
      <feDropShadow dx="0" dy="4" stdDeviation="4" flood-color="#0003" />
    </filter>
  </defs>
</svg>