<?xml version="1.0" encoding="UTF-8"?>
<svg viewBox="0 0 800 1200" xmlns="http://www.w3.org/2000/svg">
  <!-- Background -->
  <rect width="800" height="1200" fill="#F6F7FB" />
  
  <!-- Phone Frame -->
  <rect x="150" y="100" width="500" height="1000" rx="40" ry="40" fill="#FFFFFF" stroke="#E0E2E8" stroke-width="2" />
  
  <!-- Status Bar -->
  <rect x="150" y="100" width="500" height="50" rx="40" ry="40" fill="#FFFFFF" />
  <text x="430" y="132" font-family="Arial" font-size="16" text-anchor="middle" fill="#333333">4:45 PM</text>
  
  <!-- Navigation Bar at bottom -->
  <rect x="150" y="1050" width="500" height="50" rx="40" ry="40" fill="#FFFFFF" />
  
  <!-- App Header -->
  <rect x="150" y="150" width="500" height="70" fill="#2A3990" /> <!-- Deep indigo color -->
  <text x="400" y="195" font-family="Arial" font-size="24" font-weight="bold" text-anchor="middle" fill="#FFFFFF">Productivity Analytics</text>
  
  <!-- Time Range Selection -->
  <rect x="150" y="220" width="500" height="50" fill="#FFFFFF" />
  <rect x="170" y="230" width="90" height="40" fill="#FFFFFF" />
  <text x="215" y="255" font-family="Arial" font-size="14" text-anchor="middle" fill="#9A9A9A">Daily</text>
  
  <rect x="260" y="230" width="90" height="40" fill="#FFFFFF" />
  <text x="305" y="255" font-family="Arial" font-size="14" font-weight="bold" text-anchor="middle" fill="#2A3990">Weekly</text>
  <rect x="285" y="267" width="40" height="3" rx="1.5" ry="1.5" fill="#2A3990" />
  
  <rect x="350" y="230" width="90" height="40" fill="#FFFFFF" />
  <text x="395" y="255" font-family="Arial" font-size="14" text-anchor="middle" fill="#9A9A9A">Monthly</text>
  
  <rect x="440" y="230" width="90" height="40" fill="#FFFFFF" />
  <text x="485" y="255" font-family="Arial" font-size="14" text-anchor="middle" fill="#9A9A9A">Custom</text>
  
  <!-- Main Container -->
  <rect x="170" y="280" width="460" height="760" fill="#F6F7FB" rx="15" ry="15" />
  
  <!-- Date Range Display -->
  <rect x="190" y="300" width="420" height="50" rx="15" ry="15" fill="#FFFFFF" stroke="#E0E2E8" stroke-width="2" />
  <text x="220" y="330" font-family="Arial" font-size="14" font-weight="bold" fill="#333333">May 3 - May 9, 2025</text>
  <rect x="530" y="315" width="60" height="25" rx="12.5" ry="12.5" fill="#F6F7FB" />
  <text x="560" y="332" font-family="Arial" font-size="16" text-anchor="middle" fill="#9A9A9A">↔</text>
  
  <!-- Focus Time Overview -->
  <rect x="190" y="360" width="420" height="200" rx="15" ry="15" fill="#FFFFFF" stroke="#E0E2E8" stroke-width="2" />
  
  <text x="210" y="390" font-family="Arial" font-size="16" font-weight="bold" fill="#333333">Focus Time Overview</text>
  
  <!-- Focus Time Chart -->
  <rect x="210" y="405" width="380" height="140" rx="5" ry="5" fill="#F6F7FB" />
  
  <!-- Chart Grid -->
  <line x1="210" y1="525" x2="590" y2="525" stroke="#E0E2E8" stroke-width="1" />
  <line x1="210" y1="485" x2="590" y2="485" stroke="#E0E2E8" stroke-width="1" />
  <line x1="210" y1="445" x2="590" y2="445" stroke="#E0E2E8" stroke-width="1" />
  <line x1="210" y1="405" x2="590" y2="405" stroke="#E0E2E8" stroke-width="1" />
  
  <!-- Chart Bars -->
  <rect x="230" y="485" width="40" height="40" rx="3" ry="3" fill="#2A399055" />
  <rect x="280" y="445" width="40" height="80" rx="3" ry="3" fill="#2A399055" />
  <rect x="330" y="425" width="40" height="100" rx="3" ry="3" fill="#2A399055" />
  <rect x="380" y="460" width="40" height="65" rx="3" ry="3" fill="#2A399055" />
  <rect x="430" y="405" width="40" height="120" rx="3" ry="3" fill="#2A3990" />
  <rect x="480" y="445" width="40" height="80" rx="3" ry="3" fill="#2A399055" />
  <rect x="530" y="475" width="40" height="50" rx="3" ry="3" fill="#2A399055" />
  
  <!-- X-Axis Labels -->
  <text x="250" y="545" font-family="Arial" font-size="10" text-anchor="middle" fill="#9A9A9A">M</text>
  <text x="300" y="545" font-family="Arial" font-size="10" text-anchor="middle" fill="#9A9A9A">T</text>
  <text x="350" y="545" font-family="Arial" font-size="10" text-anchor="middle" fill="#9A9A9A">W</text>
  <text x="400" y="545" font-family="Arial" font-size="10" text-anchor="middle" fill="#9A9A9A">T</text>
  <text x="450" y="545" font-family="Arial" font-size="10" text-anchor="middle" fill="#9A9A9A">F</text>
  <text x="500" y="545" font-family="Arial" font-size="10" text-anchor="middle" fill="#9A9A9A">S</text>
  <text x="550" y="545" font-family="Arial" font-size="10" text-anchor="middle" fill="#9A9A9A">S</text>
  
  <!-- Y-Axis Labels -->
  <text x="205" y="525" font-family="Arial" font-size="10" text-anchor="end" fill="#9A9A9A">1h</text>
  <text x="205" y="485" font-family="Arial" font-size="10" text-anchor="end" fill="#9A9A9A">2h</text>
  <text x="205" y="445" font-family="Arial" font-size="10" text-anchor="end" fill="#9A9A9A">3h</text>
  <text x="205" y="405" font-family="Arial" font-size="10" text-anchor="end" fill="#9A9A9A">4h</text>
  
  <!-- Highlight explanation -->
  <rect x="450" y="390" width="20" height="10" rx="5" ry="5" fill="#2A3990" />
  <text x="480" y="398" font-family="Arial" font-size="10" fill="#333333">Today</text>
  
  <!-- Goal Advancement Rate -->
  <rect x="190" y="570" width="420" height="140" rx="15" ry="15" fill="#FFFFFF" stroke="#E0E2E8" stroke-width="2" />
  
  <text x="210" y="600" font-family="Arial" font-size="16" font-weight="bold" fill="#333333">Goal Progress</text>
  
  <!-- Goal Progress Chart (Horizontal Bars) -->
  <text x="210" y="630" font-family="Arial" font-size="12" fill="#333333">Career Advancement</text>
  <rect x="210" y="640" width="300" height="10" rx="5" ry="5" fill="#F6F7FB" />
  <rect x="210" y="640" width="150" height="10" rx="5" ry="5" fill="#2A3990" />
  <text x="520" y="645" font-family="Arial" font-size="10" text-anchor="end" fill="#333333">50%</text>
  
  <text x="210" y="665" font-family="Arial" font-size="12" fill="#333333">Health & Fitness</text>
  <rect x="210" y="675" width="300" height="10" rx="5" ry="5" fill="#F6F7FB" />
  <rect x="210" y="675" width="210" height="10" rx="5" ry="5" fill="#2A3990" />
  <text x="520" y="680" font-family="Arial" font-size="10" text-anchor="end" fill="#333333">70%</text>
  
  <text x="210" y="700" font-family="Arial" font-size="12" fill="#333333">Reading Goal</text>
  <rect x="210" y="710" width="300" height="10" rx="5" ry="5" fill="#F6F7FB" />
  <rect x="210" y="710" width="90" height="10" rx="5" ry="5" fill="#2A3990" />
  <text x="520" y="715" font-family="Arial" font-size="10" text-anchor="end" fill="#333333">30%</text>
  
  <text x="370" y="735" font-family="Arial" font-size="10" text-anchor="middle" fill="#2A3990">Week-over-week change: +8%</text>
  
  <!-- Productivity Patterns -->
  <rect x="190" y="720" width="420" height="180" rx="15" ry="15" fill="#FFFFFF" stroke="#E0E2E8" stroke-width="2" />
  
  <text x="210" y="750" font-family="Arial" font-size="16" font-weight="bold" fill="#333333">Productivity Patterns</text>
  
  <!-- Time of Day Chart -->
  <rect x="210" y="760" width="380" height="110" rx="5" ry="5" fill="#F6F7FB" />
  
  <!-- Chart Data (Area/Line Chart) -->
  <path d="M210,870 C250,825 290,850 330,840 C370,830 410,790 450,800 C490,810 530,835 590,870 L590,870 L210,870 Z" fill="#2A399033" />
  <path d="M210,870 C250,825 290,850 330,840 C370,830 410,790 450,800 C490,810 530,835 590,870" fill="none" stroke="#2A3990" stroke-width="2" />
  
  <!-- Peaks Highlighting -->
  <circle cx="250" cy="825" r="5" fill="#FFFFFF" stroke="#2A3990" stroke-width="2" />
  <circle cx="410" cy="790" r="5" fill="#FFFFFF" stroke="#2A3990" stroke-width="2" />
  
  <!-- X-Axis Labels -->
  <text x="210" y="890" font-family="Arial" font-size="10" fill="#9A9A9A">6am</text>
  <text x="270" y="890" font-family="Arial" font-size="10" fill="#9A9A9A">9am</text>
  <text x="330" y="890" font-family="Arial" font-size="10" fill="#9A9A9A">12pm</text>
  <text x="390" y="890" font-family="Arial" font-size="10" fill="#9A9A9A">3pm</text>
  <text x="450" y="890" font-family="Arial" font-size="10" fill="#9A9A9A">6pm</text>
  <text x="510" y="890" font-family="Arial" font-size="10" fill="#9A9A9A">9pm</text>
  <text x="570" y="890" font-family="Arial" font-size="10" fill="#9A9A9A">12am</text>
  
  <text x="400" y="910" font-family="Arial" font-size="12" text-anchor="middle" fill="#333333">Peak productivity: 10am and 3pm</text>
  
  <!-- Efficiency Summary -->
  <rect x="190" y="910" width="420" height="120" rx="15" ry="15" fill="#FFFFFF" stroke="#E0E2E8" stroke-width="2" />
  
  <text x="210" y="940" font-family="Arial" font-size="16" font-weight="bold" fill="#333333">Efficiency Summary</text>
  
  <!-- Efficiency Metrics -->
  <rect x="210" y="950" width="120" height="70" rx="10" ry="10" fill="#F6F7FB" />
  <text x="270" y="980" font-family="Arial" font-size="18" font-weight="bold" text-anchor="middle" fill="#2A3990">82%</text>
  <text x="270" y="1000" font-family="Arial" font-size="10" text-anchor="middle" fill="#333333">Task Completion</text>
  
  <rect x="340" y="950" width="120" height="70" rx="10" ry="10" fill="#F6F7FB" />
  <text x="400" y="980" font-family="Arial" font-size="18" font-weight="bold" text-anchor="middle" fill="#2A3990">3.5h</text>
  <text x="400" y="1000" font-family="Arial" font-size="10" text-anchor="middle" fill="#333333">Daily Focus Avg</text>
  
  <rect x="470" y="950" width="120" height="70" rx="10" ry="10" fill="#F6F7FB" />
  <text x="530" y="980" font-family="Arial" font-size="18" font-weight="bold" text-anchor="middle" fill="#2A3990">12</text>
  <text x="530" y="1000" font-family="Arial" font-size="10" text-anchor="middle" fill="#333333">Distractions/Day</text>
  
  <!-- Side Panels -->
  
  <!-- AI Insights Panel -->
  <g>
    <rect x="580" y="280" width="200" height="270" rx="15" ry="15" fill="#FFFFFF" stroke="#2A3990" stroke-width="2" filter="url(#shadow)" />
    <text x="600" y="310" font-family="Arial" font-size="14" font-weight="bold" fill="#2A3990">AI Insights</text>
    
    <line x1="600" y1="320" x2="760" y2="320" stroke="#E0E2E8" stroke-width="1" />
    
    <text x="600" y="340" font-family="Arial" font-size="12" fill="#333333">
      <tspan x="600" y="340">Patterns identified:</tspan>
    </text>
    
    <!-- Insight 1 -->
    <rect x="600" y="350" width="160" height="60" rx="5" ry="5" fill="#F6F7FB" />
    <circle cx="615" cy="370" r="8" fill="#2A3990" />
    <text x="615" y="374" font-family="Arial" font-size="10" text-anchor="middle" fill="#FFFFFF">💡</text>
    <text x="630" y="365" font-family="Arial" font-size="12" font-weight="bold" fill="#333333">Morning Focus</text>
    <text x="630" y="385" font-family="Arial" font-size="10" fill="#333333">You're most productive during</text>
    <text x="630" y="400" font-family="Arial" font-size="10" fill="#333333">early morning hours (9-11am)</text>
    
    <!-- Insight 2 -->
    <rect x="600" y="420" width="160" height="60" rx="5" ry="5" fill="#F6F7FB" />
    <circle cx="615" cy="440" r="8" fill="#2A3990" />
    <text x="615" y="444" font-family="Arial" font-size="10" text-anchor="middle" fill="#FFFFFF">💡</text>
    <text x="630" y="435" font-family="Arial" font-size="12" font-weight="bold" fill="#333333">Friday Peak</text>
    <text x="630" y="455" font-family="Arial" font-size="10" fill="#333333">Fridays show significantly higher</text>
    <text x="630" y="470" font-family="Arial" font-size="10" fill="#333333">productivity than other days</text>
    
    <!-- View More Link -->
    <text x="680" y="500" font-family="Arial" font-size="12" text-anchor="middle" fill="#2A3990">View All Insights →</text>
    
    <text x="600" y="530" font-family="Arial" font-size="12" fill="#333333">
      <tspan x="600" y="530">Suggested actions:</tspan>
    </text>
    
    <rect x="600" y="540" width="160" height="40" rx="20" ry="20" fill="#2A399022" />
    <text x="680" y="565" font-family="Arial" font-size="12" text-anchor="middle" fill="#2A3990">Schedule Deep Work Mornings</text>
  </g>
  
  <!-- Correlation Analysis -->
  <g>
    <rect x="580" y="560" width="200" height="220" rx="15" ry="15" fill="#FFFFFF" stroke="#2A3990" stroke-width="2" filter="url(#shadow)" />
    <text x="600" y="590" font-family="Arial" font-size="14" font-weight="bold" fill="#2A3990">Factor Correlations</text>
    
    <line x1="600" y1="600" x2="760" y2="600" stroke="#E0E2E8" stroke-width="1" />
    
    <text x="600" y="620" font-family="Arial" font-size="12" fill="#333333">
      <tspan x="600" y="620">What affects your productivity:</tspan>
    </text>
    
    <!-- Factor 1 -->
    <rect x="600" y="630" width="160" height="30" rx="5" ry="5" fill="#F6F7FB" />
    <text x="610" y="650" font-family="Arial" font-size="12" fill="#333333">Sleep Quality</text>
    <rect x="710" y="635" width="40" height="20" rx="10" ry="10" fill="#2A3990" />
    <text x="730" y="650" font-family="Arial" font-size="12" text-anchor="middle" fill="#FFFFFF">High</text>
    
    <!-- Factor 2 -->
    <rect x="600" y="670" width="160" height="30" rx="5" ry="5" fill="#F6F7FB" />
    <text x="610" y="690" font-family="Arial" font-size="12" fill="#333333">Exercise</text>
    <rect x="710" y="675" width="40" height="20" rx="10" ry="10" fill="#2A3990" />
    <text x="730" y="690" font-family="Arial" font-size="12" text-anchor="middle" fill="#FFFFFF">High</text>
    
    <!-- Factor 3 -->
    <rect x="600" y="710" width="160" height="30" rx="5" ry="5" fill="#F6F7FB" />
    <text x="610" y="730" font-family="Arial" font-size="12" fill="#333333">Meeting Load</text>
    <rect x="710" y="715" width="40" height="20" rx="10" ry="10" fill="#E54D42" />
    <text x="730" y="730" font-family="Arial" font-size="12" text-anchor="middle" fill="#FFFFFF">Neg</text>
    
    <!-- Factor 4 -->
    <rect x="600" y="750" width="160" height="30" rx="5" ry="5" fill="#F6F7FB" />
    <text x="610" y="770" font-family="Arial" font-size="12" fill="#333333">Morning Planning</text>
    <rect x="710" y="755" width="40" height="20" rx="10" ry="10" fill="#2A3990" />
    <text x="730" y="770" font-family="Arial" font-size="12" text-anchor="middle" fill="#FFFFFF">High</text>
  </g>
  
  <!-- Custom Report Options -->
  <g>
    <rect x="580" y="790" width="200" height="150" rx="15" ry="15" fill="#FFFFFF" stroke="#2A3990" stroke-width="2" filter="url(#shadow)" />
    <text x="600" y="820" font-family="Arial" font-size="14" font-weight="bold" fill="#2A3990">Custom Reports</text>
    
    <line x1="600" y1="830" x2="760" y2="830" stroke="#E0E2E8" stroke-width="1" />
    
    <!-- Report Options -->
    <rect x="600" y="845" width="160" height="30" rx="15" ry="15" fill="#F6F7FB" />
    <text x="680" y="865" font-family="Arial" font-size="12" text-anchor="middle" fill="#333333">Goal Progress Breakdown</text>
    
    <rect x="600" y="885" width="160" height="30" rx="15" ry="15" fill="#F6F7FB" />
    <text x="680" y="905" font-family="Arial" font-size="12" text-anchor="middle" fill="#333333">Task Efficiency Analysis</text>
    
    <rect x="600" y="925" width="160" height="30" rx="15" ry="15" fill="#F6F7FB" />
    <text x="680" y="945" font-family="Arial" font-size="12" text-anchor="middle" fill="#333333">Distraction Source Report</text>
  </g>
  
  <!-- Export Options -->
  <rect x="600" y="950" width="160" height="40" rx="20" ry="20" fill="#2A3990" />
  <text x="680" y="975" font-family="Arial" font-size="14" font-weight="bold" text-anchor="middle" fill="#FFFFFF">Export Analytics</text>
  
  <!-- Analytics Notification -->
  <g>
    <rect x="270" y="170" width="260" height="80" rx="10" ry="10" fill="#FFFFFF" filter="url(#shadow)" />
    <rect x="270" y="170" width="260" height="25" rx="10" ry="10" fill="#2A3990" />
    <text x="290" y="188" font-family="Arial" font-size="12" fill="#FFFFFF">Weekly Report</text>
    <text x="510" y="188" font-family="Arial" font-size="12" text-anchor="end" fill="#FFFFFF">now</text>
    <text x="290" y="215" font-family="Arial" font-size="14" font-weight="bold" fill="#333333">Your most productive week yet!</text>
    <text x="290" y="235" font-family="Arial" font-size="12" fill="#9A9A9A">+15% focus time compared to last week</text>
  </g>
  
  <!-- Caption -->
  <text x="400" y="1150" font-family="Arial" font-size="16" text-anchor="middle" fill="#333333">
    <tspan x="400" y="1150">Project Kage - Productivity Analytics</tspan>
    <tspan x="400" y="1175">Feature: Comprehensive Work Pattern Analysis</tspan>
  </text>
  
  <!-- Drop shadow for panels -->
  <defs>
    <filter id="shadow" x="-20%" y="-20%" width="140%" height="140%">
      <feDropShadow dx="0" dy="4" stdDeviation="4" flood-color="#0003" />
    </filter>
  </defs>
</svg>
