<svg width="512" height="512" viewBox="0 0 512 512" xmlns="http://www.w3.org/2000/svg">
  <!-- Background with rounded corners -->
  <defs>
    <!-- Main gradient background -->
    <radialGradient id="backgroundGradient" cx="50%" cy="30%" r="70%">
      <stop offset="0%" style="stop-color:#FFF4E6;stop-opacity:1" />
      <stop offset="30%" style="stop-color:#FFB366;stop-opacity:1" />
      <stop offset="70%" style="stop-color:#FF7101;stop-opacity:1" />
      <stop offset="100%" style="stop-color:#CC5500;stop-opacity:1" />
    </radialGradient>
    
    <!-- Subtle sun rays -->
    <linearGradient id="rayGradient" x1="0%" y1="0%" x2="100%" y2="100%">
      <stop offset="0%" style="stop-color:#FFDD88;stop-opacity:0.3" />
      <stop offset="100%" style="stop-color:#FFB366;stop-opacity:0.1" />
    </linearGradient>
    
    <!-- Seed/bulb gradient -->
    <radialGradient id="seedGradient" cx="50%" cy="40%" r="60%">
      <stop offset="0%" style="stop-color:#FFB366;stop-opacity:1" />
      <stop offset="50%" style="stop-color:#FF7101;stop-opacity:1" />
      <stop offset="100%" style="stop-color:#CC5500;stop-opacity:1" />
    </radialGradient>
    
    <!-- Soil gradient -->
    <linearGradient id="soilGradient" x1="0%" y1="0%" x2="0%" y2="100%">
      <stop offset="0%" style="stop-color:#8B4513;stop-opacity:1" />
      <stop offset="50%" style="stop-color:#654321;stop-opacity:1" />
      <stop offset="100%" style="stop-color:#4A2C17;stop-opacity:1" />
    </linearGradient>
  </defs>
  
  <!-- Rounded rectangle background -->
  <rect width="512" height="512" rx="115" ry="115" fill="url(#backgroundGradient)"/>
  
  <!-- Subtle sun rays -->
  <g opacity="0.4">
    <line x1="256" y1="80" x2="256" y2="140" stroke="url(#rayGradient)" stroke-width="3" stroke-linecap="round"/>
    <line x1="320" y1="100" x2="290" y2="150" stroke="url(#rayGradient)" stroke-width="2" stroke-linecap="round"/>
    <line x1="370" y1="150" x2="320" y2="180" stroke="url(#rayGradient)" stroke-width="2" stroke-linecap="round"/>
    <line x1="390" y1="220" x2="340" y2="220" stroke="url(#rayGradient)" stroke-width="2" stroke-linecap="round"/>
    <line x1="192" y1="100" x2="222" y2="150" stroke="url(#rayGradient)" stroke-width="2" stroke-linecap="round"/>
    <line x1="142" y1="150" x2="192" y2="180" stroke="url(#rayGradient)" stroke-width="2" stroke-linecap="round"/>
    <line x1="122" y1="220" x2="172" y2="220" stroke="url(#rayGradient)" stroke-width="2" stroke-linecap="round"/>
  </g>
  
  <!-- Soil base -->
  <ellipse cx="256" cy="420" rx="180" ry="25" fill="url(#soilGradient)"/>
  <rect x="76" y="395" width="360" height="50" fill="url(#soilGradient)" rx="10"/>
  
  <!-- Plant stem -->
  <path d="M 256 395 Q 256 350 256 300" stroke="#8FBC8F" stroke-width="8" fill="none" stroke-linecap="round"/>
  
  <!-- Seed/bulb at base -->
  <ellipse cx="256" cy="385" rx="25" ry="30" fill="url(#seedGradient)"/>
  
  <!-- Subtle seed lines for texture -->
  <ellipse cx="256" cy="385" rx="20" ry="25" fill="none" stroke="#CC5500" stroke-width="1" opacity="0.6"/>
  <ellipse cx="256" cy="385" rx="15" ry="20" fill="none" stroke="#CC5500" stroke-width="1" opacity="0.4"/>
  
  <!-- Leaves -->
  <g>
    <!-- Left leaf -->
    <path d="M 256 300 Q 220 280 210 250 Q 215 260 240 275 Q 250 285 256 300" fill="#6B8E23" opacity="0.9"/>
    <!-- Right leaf -->
    <path d="M 256 300 Q 292 280 302 250 Q 297 260 272 275 Q 262 285 256 300" fill="#8FBC8F" opacity="0.9"/>
  </g>
  
  <!-- Leaf details -->
  <g opacity="0.7">
    <path d="M 215 260 Q 235 270 250 285" stroke="#556B2F" stroke-width="1" fill="none"/>
    <path d="M 297 260 Q 277 270 262 285" stroke="#6B8E23" stroke-width="1" fill="none"/>
  </g>
  
  <!-- Soft highlight on seed -->
  <ellipse cx="246" cy="375" rx="8" ry="10" fill="#FFDD88" opacity="0.6"/>
  
</svg>